%TF.GenerationSoftware,KiCad,Pcbnew,7.0.5*%
%TF.CreationDate,2023-11-11T15:26:14-08:00*%
%TF.ProjectId,ValveServoI2C,56616c76-6553-4657-9276-6f4932432e6b,rev?*%
%TF.SameCoordinates,Original*%
%TF.FileFunction,Legend,Bot*%
%TF.FilePolarity,Positive*%
%FSLAX46Y46*%
G04 Gerber Fmt 4.6, Leading zero omitted, Abs format (unit mm)*
G04 Created by KiCad (PCBNEW 7.0.5) date 2023-11-11 15:26:14*
%MOMM*%
%LPD*%
G01*
G04 APERTURE LIST*
%ADD10C,0.150000*%
G04 APERTURE END LIST*
D10*
X120039411Y-131317438D02*
X120134649Y-131269819D01*
X120134649Y-131269819D02*
X120277506Y-131269819D01*
X120277506Y-131269819D02*
X120420363Y-131317438D01*
X120420363Y-131317438D02*
X120515601Y-131412676D01*
X120515601Y-131412676D02*
X120563220Y-131507914D01*
X120563220Y-131507914D02*
X120610839Y-131698390D01*
X120610839Y-131698390D02*
X120610839Y-131841247D01*
X120610839Y-131841247D02*
X120563220Y-132031723D01*
X120563220Y-132031723D02*
X120515601Y-132126961D01*
X120515601Y-132126961D02*
X120420363Y-132222200D01*
X120420363Y-132222200D02*
X120277506Y-132269819D01*
X120277506Y-132269819D02*
X120182268Y-132269819D01*
X120182268Y-132269819D02*
X120039411Y-132222200D01*
X120039411Y-132222200D02*
X119991792Y-132174580D01*
X119991792Y-132174580D02*
X119991792Y-131841247D01*
X119991792Y-131841247D02*
X120182268Y-131841247D01*
X119563220Y-132269819D02*
X119563220Y-131269819D01*
X119563220Y-131269819D02*
X118991792Y-132269819D01*
X118991792Y-132269819D02*
X118991792Y-131269819D01*
X118515601Y-132269819D02*
X118515601Y-131269819D01*
X118515601Y-131269819D02*
X118277506Y-131269819D01*
X118277506Y-131269819D02*
X118134649Y-131317438D01*
X118134649Y-131317438D02*
X118039411Y-131412676D01*
X118039411Y-131412676D02*
X117991792Y-131507914D01*
X117991792Y-131507914D02*
X117944173Y-131698390D01*
X117944173Y-131698390D02*
X117944173Y-131841247D01*
X117944173Y-131841247D02*
X117991792Y-132031723D01*
X117991792Y-132031723D02*
X118039411Y-132126961D01*
X118039411Y-132126961D02*
X118134649Y-132222200D01*
X118134649Y-132222200D02*
X118277506Y-132269819D01*
X118277506Y-132269819D02*
X118515601Y-132269819D01*
X105763220Y-131988866D02*
X105001316Y-131988866D01*
X105382268Y-132369819D02*
X105382268Y-131607914D01*
X104001316Y-132369819D02*
X104572744Y-132369819D01*
X104287030Y-132369819D02*
X104287030Y-131369819D01*
X104287030Y-131369819D02*
X104382268Y-131512676D01*
X104382268Y-131512676D02*
X104477506Y-131607914D01*
X104477506Y-131607914D02*
X104572744Y-131655533D01*
X103620363Y-131465057D02*
X103572744Y-131417438D01*
X103572744Y-131417438D02*
X103477506Y-131369819D01*
X103477506Y-131369819D02*
X103239411Y-131369819D01*
X103239411Y-131369819D02*
X103144173Y-131417438D01*
X103144173Y-131417438D02*
X103096554Y-131465057D01*
X103096554Y-131465057D02*
X103048935Y-131560295D01*
X103048935Y-131560295D02*
X103048935Y-131655533D01*
X103048935Y-131655533D02*
X103096554Y-131798390D01*
X103096554Y-131798390D02*
X103667982Y-132369819D01*
X103667982Y-132369819D02*
X103048935Y-132369819D01*
X102763220Y-131369819D02*
X102429887Y-132369819D01*
X102429887Y-132369819D02*
X102096554Y-131369819D01*
X115263220Y-131888866D02*
X114501316Y-131888866D01*
X114882268Y-132269819D02*
X114882268Y-131507914D01*
X113548935Y-131269819D02*
X114025125Y-131269819D01*
X114025125Y-131269819D02*
X114072744Y-131746009D01*
X114072744Y-131746009D02*
X114025125Y-131698390D01*
X114025125Y-131698390D02*
X113929887Y-131650771D01*
X113929887Y-131650771D02*
X113691792Y-131650771D01*
X113691792Y-131650771D02*
X113596554Y-131698390D01*
X113596554Y-131698390D02*
X113548935Y-131746009D01*
X113548935Y-131746009D02*
X113501316Y-131841247D01*
X113501316Y-131841247D02*
X113501316Y-132079342D01*
X113501316Y-132079342D02*
X113548935Y-132174580D01*
X113548935Y-132174580D02*
X113596554Y-132222200D01*
X113596554Y-132222200D02*
X113691792Y-132269819D01*
X113691792Y-132269819D02*
X113929887Y-132269819D01*
X113929887Y-132269819D02*
X114025125Y-132222200D01*
X114025125Y-132222200D02*
X114072744Y-132174580D01*
X113215601Y-131269819D02*
X112882268Y-132269819D01*
X112882268Y-132269819D02*
X112548935Y-131269819D01*
X109839411Y-131317438D02*
X109934649Y-131269819D01*
X109934649Y-131269819D02*
X110077506Y-131269819D01*
X110077506Y-131269819D02*
X110220363Y-131317438D01*
X110220363Y-131317438D02*
X110315601Y-131412676D01*
X110315601Y-131412676D02*
X110363220Y-131507914D01*
X110363220Y-131507914D02*
X110410839Y-131698390D01*
X110410839Y-131698390D02*
X110410839Y-131841247D01*
X110410839Y-131841247D02*
X110363220Y-132031723D01*
X110363220Y-132031723D02*
X110315601Y-132126961D01*
X110315601Y-132126961D02*
X110220363Y-132222200D01*
X110220363Y-132222200D02*
X110077506Y-132269819D01*
X110077506Y-132269819D02*
X109982268Y-132269819D01*
X109982268Y-132269819D02*
X109839411Y-132222200D01*
X109839411Y-132222200D02*
X109791792Y-132174580D01*
X109791792Y-132174580D02*
X109791792Y-131841247D01*
X109791792Y-131841247D02*
X109982268Y-131841247D01*
X109363220Y-132269819D02*
X109363220Y-131269819D01*
X109363220Y-131269819D02*
X108791792Y-132269819D01*
X108791792Y-132269819D02*
X108791792Y-131269819D01*
X108315601Y-132269819D02*
X108315601Y-131269819D01*
X108315601Y-131269819D02*
X108077506Y-131269819D01*
X108077506Y-131269819D02*
X107934649Y-131317438D01*
X107934649Y-131317438D02*
X107839411Y-131412676D01*
X107839411Y-131412676D02*
X107791792Y-131507914D01*
X107791792Y-131507914D02*
X107744173Y-131698390D01*
X107744173Y-131698390D02*
X107744173Y-131841247D01*
X107744173Y-131841247D02*
X107791792Y-132031723D01*
X107791792Y-132031723D02*
X107839411Y-132126961D01*
X107839411Y-132126961D02*
X107934649Y-132222200D01*
X107934649Y-132222200D02*
X108077506Y-132269819D01*
X108077506Y-132269819D02*
X108315601Y-132269819D01*
X163269819Y-74527255D02*
X163269819Y-74717731D01*
X163269819Y-74717731D02*
X163317438Y-74812969D01*
X163317438Y-74812969D02*
X163412676Y-74908207D01*
X163412676Y-74908207D02*
X163603152Y-74955826D01*
X163603152Y-74955826D02*
X163936485Y-74955826D01*
X163936485Y-74955826D02*
X164126961Y-74908207D01*
X164126961Y-74908207D02*
X164222200Y-74812969D01*
X164222200Y-74812969D02*
X164269819Y-74717731D01*
X164269819Y-74717731D02*
X164269819Y-74527255D01*
X164269819Y-74527255D02*
X164222200Y-74432017D01*
X164222200Y-74432017D02*
X164126961Y-74336779D01*
X164126961Y-74336779D02*
X163936485Y-74289160D01*
X163936485Y-74289160D02*
X163603152Y-74289160D01*
X163603152Y-74289160D02*
X163412676Y-74336779D01*
X163412676Y-74336779D02*
X163317438Y-74432017D01*
X163317438Y-74432017D02*
X163269819Y-74527255D01*
X164269819Y-75384398D02*
X163269819Y-75384398D01*
X163269819Y-75384398D02*
X163269819Y-75765350D01*
X163269819Y-75765350D02*
X163317438Y-75860588D01*
X163317438Y-75860588D02*
X163365057Y-75908207D01*
X163365057Y-75908207D02*
X163460295Y-75955826D01*
X163460295Y-75955826D02*
X163603152Y-75955826D01*
X163603152Y-75955826D02*
X163698390Y-75908207D01*
X163698390Y-75908207D02*
X163746009Y-75860588D01*
X163746009Y-75860588D02*
X163793628Y-75765350D01*
X163793628Y-75765350D02*
X163793628Y-75384398D01*
X163746009Y-76384398D02*
X163746009Y-76717731D01*
X164269819Y-76860588D02*
X164269819Y-76384398D01*
X164269819Y-76384398D02*
X163269819Y-76384398D01*
X163269819Y-76384398D02*
X163269819Y-76860588D01*
X164269819Y-77289160D02*
X163269819Y-77289160D01*
X163269819Y-77289160D02*
X164269819Y-77860588D01*
X164269819Y-77860588D02*
X163269819Y-77860588D01*
X163317438Y-64360588D02*
X163269819Y-64265350D01*
X163269819Y-64265350D02*
X163269819Y-64122493D01*
X163269819Y-64122493D02*
X163317438Y-63979636D01*
X163317438Y-63979636D02*
X163412676Y-63884398D01*
X163412676Y-63884398D02*
X163507914Y-63836779D01*
X163507914Y-63836779D02*
X163698390Y-63789160D01*
X163698390Y-63789160D02*
X163841247Y-63789160D01*
X163841247Y-63789160D02*
X164031723Y-63836779D01*
X164031723Y-63836779D02*
X164126961Y-63884398D01*
X164126961Y-63884398D02*
X164222200Y-63979636D01*
X164222200Y-63979636D02*
X164269819Y-64122493D01*
X164269819Y-64122493D02*
X164269819Y-64217731D01*
X164269819Y-64217731D02*
X164222200Y-64360588D01*
X164222200Y-64360588D02*
X164174580Y-64408207D01*
X164174580Y-64408207D02*
X163841247Y-64408207D01*
X163841247Y-64408207D02*
X163841247Y-64217731D01*
X164269819Y-64836779D02*
X163269819Y-64836779D01*
X163269819Y-64836779D02*
X164269819Y-65408207D01*
X164269819Y-65408207D02*
X163269819Y-65408207D01*
X164269819Y-65884398D02*
X163269819Y-65884398D01*
X163269819Y-65884398D02*
X163269819Y-66122493D01*
X163269819Y-66122493D02*
X163317438Y-66265350D01*
X163317438Y-66265350D02*
X163412676Y-66360588D01*
X163412676Y-66360588D02*
X163507914Y-66408207D01*
X163507914Y-66408207D02*
X163698390Y-66455826D01*
X163698390Y-66455826D02*
X163841247Y-66455826D01*
X163841247Y-66455826D02*
X164031723Y-66408207D01*
X164031723Y-66408207D02*
X164126961Y-66360588D01*
X164126961Y-66360588D02*
X164222200Y-66265350D01*
X164222200Y-66265350D02*
X164269819Y-66122493D01*
X164269819Y-66122493D02*
X164269819Y-65884398D01*
X163269819Y-85527255D02*
X163269819Y-85717731D01*
X163269819Y-85717731D02*
X163317438Y-85812969D01*
X163317438Y-85812969D02*
X163412676Y-85908207D01*
X163412676Y-85908207D02*
X163603152Y-85955826D01*
X163603152Y-85955826D02*
X163936485Y-85955826D01*
X163936485Y-85955826D02*
X164126961Y-85908207D01*
X164126961Y-85908207D02*
X164222200Y-85812969D01*
X164222200Y-85812969D02*
X164269819Y-85717731D01*
X164269819Y-85717731D02*
X164269819Y-85527255D01*
X164269819Y-85527255D02*
X164222200Y-85432017D01*
X164222200Y-85432017D02*
X164126961Y-85336779D01*
X164126961Y-85336779D02*
X163936485Y-85289160D01*
X163936485Y-85289160D02*
X163603152Y-85289160D01*
X163603152Y-85289160D02*
X163412676Y-85336779D01*
X163412676Y-85336779D02*
X163317438Y-85432017D01*
X163317438Y-85432017D02*
X163269819Y-85527255D01*
X163269819Y-86384398D02*
X164079342Y-86384398D01*
X164079342Y-86384398D02*
X164174580Y-86432017D01*
X164174580Y-86432017D02*
X164222200Y-86479636D01*
X164222200Y-86479636D02*
X164269819Y-86574874D01*
X164269819Y-86574874D02*
X164269819Y-86765350D01*
X164269819Y-86765350D02*
X164222200Y-86860588D01*
X164222200Y-86860588D02*
X164174580Y-86908207D01*
X164174580Y-86908207D02*
X164079342Y-86955826D01*
X164079342Y-86955826D02*
X163269819Y-86955826D01*
X163269819Y-87289160D02*
X163269819Y-87860588D01*
X164269819Y-87574874D02*
X163269819Y-87574874D01*
X163365057Y-88146303D02*
X163317438Y-88193922D01*
X163317438Y-88193922D02*
X163269819Y-88289160D01*
X163269819Y-88289160D02*
X163269819Y-88527255D01*
X163269819Y-88527255D02*
X163317438Y-88622493D01*
X163317438Y-88622493D02*
X163365057Y-88670112D01*
X163365057Y-88670112D02*
X163460295Y-88717731D01*
X163460295Y-88717731D02*
X163555533Y-88717731D01*
X163555533Y-88717731D02*
X163698390Y-88670112D01*
X163698390Y-88670112D02*
X164269819Y-88098684D01*
X164269819Y-88098684D02*
X164269819Y-88717731D01*
X163269819Y-79527255D02*
X163269819Y-79717731D01*
X163269819Y-79717731D02*
X163317438Y-79812969D01*
X163317438Y-79812969D02*
X163412676Y-79908207D01*
X163412676Y-79908207D02*
X163603152Y-79955826D01*
X163603152Y-79955826D02*
X163936485Y-79955826D01*
X163936485Y-79955826D02*
X164126961Y-79908207D01*
X164126961Y-79908207D02*
X164222200Y-79812969D01*
X164222200Y-79812969D02*
X164269819Y-79717731D01*
X164269819Y-79717731D02*
X164269819Y-79527255D01*
X164269819Y-79527255D02*
X164222200Y-79432017D01*
X164222200Y-79432017D02*
X164126961Y-79336779D01*
X164126961Y-79336779D02*
X163936485Y-79289160D01*
X163936485Y-79289160D02*
X163603152Y-79289160D01*
X163603152Y-79289160D02*
X163412676Y-79336779D01*
X163412676Y-79336779D02*
X163317438Y-79432017D01*
X163317438Y-79432017D02*
X163269819Y-79527255D01*
X163269819Y-80384398D02*
X164079342Y-80384398D01*
X164079342Y-80384398D02*
X164174580Y-80432017D01*
X164174580Y-80432017D02*
X164222200Y-80479636D01*
X164222200Y-80479636D02*
X164269819Y-80574874D01*
X164269819Y-80574874D02*
X164269819Y-80765350D01*
X164269819Y-80765350D02*
X164222200Y-80860588D01*
X164222200Y-80860588D02*
X164174580Y-80908207D01*
X164174580Y-80908207D02*
X164079342Y-80955826D01*
X164079342Y-80955826D02*
X163269819Y-80955826D01*
X163269819Y-81289160D02*
X163269819Y-81860588D01*
X164269819Y-81574874D02*
X163269819Y-81574874D01*
X164269819Y-82717731D02*
X164269819Y-82146303D01*
X164269819Y-82432017D02*
X163269819Y-82432017D01*
X163269819Y-82432017D02*
X163412676Y-82336779D01*
X163412676Y-82336779D02*
X163507914Y-82241541D01*
X163507914Y-82241541D02*
X163555533Y-82146303D01*
X164174580Y-69408207D02*
X164222200Y-69360588D01*
X164222200Y-69360588D02*
X164269819Y-69217731D01*
X164269819Y-69217731D02*
X164269819Y-69122493D01*
X164269819Y-69122493D02*
X164222200Y-68979636D01*
X164222200Y-68979636D02*
X164126961Y-68884398D01*
X164126961Y-68884398D02*
X164031723Y-68836779D01*
X164031723Y-68836779D02*
X163841247Y-68789160D01*
X163841247Y-68789160D02*
X163698390Y-68789160D01*
X163698390Y-68789160D02*
X163507914Y-68836779D01*
X163507914Y-68836779D02*
X163412676Y-68884398D01*
X163412676Y-68884398D02*
X163317438Y-68979636D01*
X163317438Y-68979636D02*
X163269819Y-69122493D01*
X163269819Y-69122493D02*
X163269819Y-69217731D01*
X163269819Y-69217731D02*
X163317438Y-69360588D01*
X163317438Y-69360588D02*
X163365057Y-69408207D01*
X164269819Y-70312969D02*
X164269819Y-69836779D01*
X164269819Y-69836779D02*
X163269819Y-69836779D01*
X163269819Y-70836779D02*
X163269819Y-71027255D01*
X163269819Y-71027255D02*
X163317438Y-71122493D01*
X163317438Y-71122493D02*
X163412676Y-71217731D01*
X163412676Y-71217731D02*
X163603152Y-71265350D01*
X163603152Y-71265350D02*
X163936485Y-71265350D01*
X163936485Y-71265350D02*
X164126961Y-71217731D01*
X164126961Y-71217731D02*
X164222200Y-71122493D01*
X164222200Y-71122493D02*
X164269819Y-71027255D01*
X164269819Y-71027255D02*
X164269819Y-70836779D01*
X164269819Y-70836779D02*
X164222200Y-70741541D01*
X164222200Y-70741541D02*
X164126961Y-70646303D01*
X164126961Y-70646303D02*
X163936485Y-70598684D01*
X163936485Y-70598684D02*
X163603152Y-70598684D01*
X163603152Y-70598684D02*
X163412676Y-70646303D01*
X163412676Y-70646303D02*
X163317438Y-70741541D01*
X163317438Y-70741541D02*
X163269819Y-70836779D01*
X164222200Y-71646303D02*
X164269819Y-71789160D01*
X164269819Y-71789160D02*
X164269819Y-72027255D01*
X164269819Y-72027255D02*
X164222200Y-72122493D01*
X164222200Y-72122493D02*
X164174580Y-72170112D01*
X164174580Y-72170112D02*
X164079342Y-72217731D01*
X164079342Y-72217731D02*
X163984104Y-72217731D01*
X163984104Y-72217731D02*
X163888866Y-72170112D01*
X163888866Y-72170112D02*
X163841247Y-72122493D01*
X163841247Y-72122493D02*
X163793628Y-72027255D01*
X163793628Y-72027255D02*
X163746009Y-71836779D01*
X163746009Y-71836779D02*
X163698390Y-71741541D01*
X163698390Y-71741541D02*
X163650771Y-71693922D01*
X163650771Y-71693922D02*
X163555533Y-71646303D01*
X163555533Y-71646303D02*
X163460295Y-71646303D01*
X163460295Y-71646303D02*
X163365057Y-71693922D01*
X163365057Y-71693922D02*
X163317438Y-71741541D01*
X163317438Y-71741541D02*
X163269819Y-71836779D01*
X163269819Y-71836779D02*
X163269819Y-72074874D01*
X163269819Y-72074874D02*
X163317438Y-72217731D01*
X163746009Y-72646303D02*
X163746009Y-72979636D01*
X164269819Y-73122493D02*
X164269819Y-72646303D01*
X164269819Y-72646303D02*
X163269819Y-72646303D01*
X163269819Y-72646303D02*
X163269819Y-73122493D01*
X164349580Y-101058207D02*
X164397200Y-101010588D01*
X164397200Y-101010588D02*
X164444819Y-100867731D01*
X164444819Y-100867731D02*
X164444819Y-100772493D01*
X164444819Y-100772493D02*
X164397200Y-100629636D01*
X164397200Y-100629636D02*
X164301961Y-100534398D01*
X164301961Y-100534398D02*
X164206723Y-100486779D01*
X164206723Y-100486779D02*
X164016247Y-100439160D01*
X164016247Y-100439160D02*
X163873390Y-100439160D01*
X163873390Y-100439160D02*
X163682914Y-100486779D01*
X163682914Y-100486779D02*
X163587676Y-100534398D01*
X163587676Y-100534398D02*
X163492438Y-100629636D01*
X163492438Y-100629636D02*
X163444819Y-100772493D01*
X163444819Y-100772493D02*
X163444819Y-100867731D01*
X163444819Y-100867731D02*
X163492438Y-101010588D01*
X163492438Y-101010588D02*
X163540057Y-101058207D01*
X164444819Y-101962969D02*
X164444819Y-101486779D01*
X164444819Y-101486779D02*
X163444819Y-101486779D01*
X163444819Y-102486779D02*
X163444819Y-102677255D01*
X163444819Y-102677255D02*
X163492438Y-102772493D01*
X163492438Y-102772493D02*
X163587676Y-102867731D01*
X163587676Y-102867731D02*
X163778152Y-102915350D01*
X163778152Y-102915350D02*
X164111485Y-102915350D01*
X164111485Y-102915350D02*
X164301961Y-102867731D01*
X164301961Y-102867731D02*
X164397200Y-102772493D01*
X164397200Y-102772493D02*
X164444819Y-102677255D01*
X164444819Y-102677255D02*
X164444819Y-102486779D01*
X164444819Y-102486779D02*
X164397200Y-102391541D01*
X164397200Y-102391541D02*
X164301961Y-102296303D01*
X164301961Y-102296303D02*
X164111485Y-102248684D01*
X164111485Y-102248684D02*
X163778152Y-102248684D01*
X163778152Y-102248684D02*
X163587676Y-102296303D01*
X163587676Y-102296303D02*
X163492438Y-102391541D01*
X163492438Y-102391541D02*
X163444819Y-102486779D01*
X164397200Y-103296303D02*
X164444819Y-103439160D01*
X164444819Y-103439160D02*
X164444819Y-103677255D01*
X164444819Y-103677255D02*
X164397200Y-103772493D01*
X164397200Y-103772493D02*
X164349580Y-103820112D01*
X164349580Y-103820112D02*
X164254342Y-103867731D01*
X164254342Y-103867731D02*
X164159104Y-103867731D01*
X164159104Y-103867731D02*
X164063866Y-103820112D01*
X164063866Y-103820112D02*
X164016247Y-103772493D01*
X164016247Y-103772493D02*
X163968628Y-103677255D01*
X163968628Y-103677255D02*
X163921009Y-103486779D01*
X163921009Y-103486779D02*
X163873390Y-103391541D01*
X163873390Y-103391541D02*
X163825771Y-103343922D01*
X163825771Y-103343922D02*
X163730533Y-103296303D01*
X163730533Y-103296303D02*
X163635295Y-103296303D01*
X163635295Y-103296303D02*
X163540057Y-103343922D01*
X163540057Y-103343922D02*
X163492438Y-103391541D01*
X163492438Y-103391541D02*
X163444819Y-103486779D01*
X163444819Y-103486779D02*
X163444819Y-103724874D01*
X163444819Y-103724874D02*
X163492438Y-103867731D01*
X163921009Y-104296303D02*
X163921009Y-104629636D01*
X164444819Y-104772493D02*
X164444819Y-104296303D01*
X164444819Y-104296303D02*
X163444819Y-104296303D01*
X163444819Y-104296303D02*
X163444819Y-104772493D01*
X163444819Y-106177255D02*
X163444819Y-106367731D01*
X163444819Y-106367731D02*
X163492438Y-106462969D01*
X163492438Y-106462969D02*
X163587676Y-106558207D01*
X163587676Y-106558207D02*
X163778152Y-106605826D01*
X163778152Y-106605826D02*
X164111485Y-106605826D01*
X164111485Y-106605826D02*
X164301961Y-106558207D01*
X164301961Y-106558207D02*
X164397200Y-106462969D01*
X164397200Y-106462969D02*
X164444819Y-106367731D01*
X164444819Y-106367731D02*
X164444819Y-106177255D01*
X164444819Y-106177255D02*
X164397200Y-106082017D01*
X164397200Y-106082017D02*
X164301961Y-105986779D01*
X164301961Y-105986779D02*
X164111485Y-105939160D01*
X164111485Y-105939160D02*
X163778152Y-105939160D01*
X163778152Y-105939160D02*
X163587676Y-105986779D01*
X163587676Y-105986779D02*
X163492438Y-106082017D01*
X163492438Y-106082017D02*
X163444819Y-106177255D01*
X164444819Y-107034398D02*
X163444819Y-107034398D01*
X163444819Y-107034398D02*
X163444819Y-107415350D01*
X163444819Y-107415350D02*
X163492438Y-107510588D01*
X163492438Y-107510588D02*
X163540057Y-107558207D01*
X163540057Y-107558207D02*
X163635295Y-107605826D01*
X163635295Y-107605826D02*
X163778152Y-107605826D01*
X163778152Y-107605826D02*
X163873390Y-107558207D01*
X163873390Y-107558207D02*
X163921009Y-107510588D01*
X163921009Y-107510588D02*
X163968628Y-107415350D01*
X163968628Y-107415350D02*
X163968628Y-107034398D01*
X163921009Y-108034398D02*
X163921009Y-108367731D01*
X164444819Y-108510588D02*
X164444819Y-108034398D01*
X164444819Y-108034398D02*
X163444819Y-108034398D01*
X163444819Y-108034398D02*
X163444819Y-108510588D01*
X164444819Y-108939160D02*
X163444819Y-108939160D01*
X163444819Y-108939160D02*
X164444819Y-109510588D01*
X164444819Y-109510588D02*
X163444819Y-109510588D01*
X163444819Y-111177255D02*
X163444819Y-111367731D01*
X163444819Y-111367731D02*
X163492438Y-111462969D01*
X163492438Y-111462969D02*
X163587676Y-111558207D01*
X163587676Y-111558207D02*
X163778152Y-111605826D01*
X163778152Y-111605826D02*
X164111485Y-111605826D01*
X164111485Y-111605826D02*
X164301961Y-111558207D01*
X164301961Y-111558207D02*
X164397200Y-111462969D01*
X164397200Y-111462969D02*
X164444819Y-111367731D01*
X164444819Y-111367731D02*
X164444819Y-111177255D01*
X164444819Y-111177255D02*
X164397200Y-111082017D01*
X164397200Y-111082017D02*
X164301961Y-110986779D01*
X164301961Y-110986779D02*
X164111485Y-110939160D01*
X164111485Y-110939160D02*
X163778152Y-110939160D01*
X163778152Y-110939160D02*
X163587676Y-110986779D01*
X163587676Y-110986779D02*
X163492438Y-111082017D01*
X163492438Y-111082017D02*
X163444819Y-111177255D01*
X163444819Y-112034398D02*
X164254342Y-112034398D01*
X164254342Y-112034398D02*
X164349580Y-112082017D01*
X164349580Y-112082017D02*
X164397200Y-112129636D01*
X164397200Y-112129636D02*
X164444819Y-112224874D01*
X164444819Y-112224874D02*
X164444819Y-112415350D01*
X164444819Y-112415350D02*
X164397200Y-112510588D01*
X164397200Y-112510588D02*
X164349580Y-112558207D01*
X164349580Y-112558207D02*
X164254342Y-112605826D01*
X164254342Y-112605826D02*
X163444819Y-112605826D01*
X163444819Y-112939160D02*
X163444819Y-113510588D01*
X164444819Y-113224874D02*
X163444819Y-113224874D01*
X164444819Y-114367731D02*
X164444819Y-113796303D01*
X164444819Y-114082017D02*
X163444819Y-114082017D01*
X163444819Y-114082017D02*
X163587676Y-113986779D01*
X163587676Y-113986779D02*
X163682914Y-113891541D01*
X163682914Y-113891541D02*
X163730533Y-113796303D01*
X163492438Y-96010588D02*
X163444819Y-95915350D01*
X163444819Y-95915350D02*
X163444819Y-95772493D01*
X163444819Y-95772493D02*
X163492438Y-95629636D01*
X163492438Y-95629636D02*
X163587676Y-95534398D01*
X163587676Y-95534398D02*
X163682914Y-95486779D01*
X163682914Y-95486779D02*
X163873390Y-95439160D01*
X163873390Y-95439160D02*
X164016247Y-95439160D01*
X164016247Y-95439160D02*
X164206723Y-95486779D01*
X164206723Y-95486779D02*
X164301961Y-95534398D01*
X164301961Y-95534398D02*
X164397200Y-95629636D01*
X164397200Y-95629636D02*
X164444819Y-95772493D01*
X164444819Y-95772493D02*
X164444819Y-95867731D01*
X164444819Y-95867731D02*
X164397200Y-96010588D01*
X164397200Y-96010588D02*
X164349580Y-96058207D01*
X164349580Y-96058207D02*
X164016247Y-96058207D01*
X164016247Y-96058207D02*
X164016247Y-95867731D01*
X164444819Y-96486779D02*
X163444819Y-96486779D01*
X163444819Y-96486779D02*
X164444819Y-97058207D01*
X164444819Y-97058207D02*
X163444819Y-97058207D01*
X164444819Y-97534398D02*
X163444819Y-97534398D01*
X163444819Y-97534398D02*
X163444819Y-97772493D01*
X163444819Y-97772493D02*
X163492438Y-97915350D01*
X163492438Y-97915350D02*
X163587676Y-98010588D01*
X163587676Y-98010588D02*
X163682914Y-98058207D01*
X163682914Y-98058207D02*
X163873390Y-98105826D01*
X163873390Y-98105826D02*
X164016247Y-98105826D01*
X164016247Y-98105826D02*
X164206723Y-98058207D01*
X164206723Y-98058207D02*
X164301961Y-98010588D01*
X164301961Y-98010588D02*
X164397200Y-97915350D01*
X164397200Y-97915350D02*
X164444819Y-97772493D01*
X164444819Y-97772493D02*
X164444819Y-97534398D01*
X163444819Y-117177255D02*
X163444819Y-117367731D01*
X163444819Y-117367731D02*
X163492438Y-117462969D01*
X163492438Y-117462969D02*
X163587676Y-117558207D01*
X163587676Y-117558207D02*
X163778152Y-117605826D01*
X163778152Y-117605826D02*
X164111485Y-117605826D01*
X164111485Y-117605826D02*
X164301961Y-117558207D01*
X164301961Y-117558207D02*
X164397200Y-117462969D01*
X164397200Y-117462969D02*
X164444819Y-117367731D01*
X164444819Y-117367731D02*
X164444819Y-117177255D01*
X164444819Y-117177255D02*
X164397200Y-117082017D01*
X164397200Y-117082017D02*
X164301961Y-116986779D01*
X164301961Y-116986779D02*
X164111485Y-116939160D01*
X164111485Y-116939160D02*
X163778152Y-116939160D01*
X163778152Y-116939160D02*
X163587676Y-116986779D01*
X163587676Y-116986779D02*
X163492438Y-117082017D01*
X163492438Y-117082017D02*
X163444819Y-117177255D01*
X163444819Y-118034398D02*
X164254342Y-118034398D01*
X164254342Y-118034398D02*
X164349580Y-118082017D01*
X164349580Y-118082017D02*
X164397200Y-118129636D01*
X164397200Y-118129636D02*
X164444819Y-118224874D01*
X164444819Y-118224874D02*
X164444819Y-118415350D01*
X164444819Y-118415350D02*
X164397200Y-118510588D01*
X164397200Y-118510588D02*
X164349580Y-118558207D01*
X164349580Y-118558207D02*
X164254342Y-118605826D01*
X164254342Y-118605826D02*
X163444819Y-118605826D01*
X163444819Y-118939160D02*
X163444819Y-119510588D01*
X164444819Y-119224874D02*
X163444819Y-119224874D01*
X163540057Y-119796303D02*
X163492438Y-119843922D01*
X163492438Y-119843922D02*
X163444819Y-119939160D01*
X163444819Y-119939160D02*
X163444819Y-120177255D01*
X163444819Y-120177255D02*
X163492438Y-120272493D01*
X163492438Y-120272493D02*
X163540057Y-120320112D01*
X163540057Y-120320112D02*
X163635295Y-120367731D01*
X163635295Y-120367731D02*
X163730533Y-120367731D01*
X163730533Y-120367731D02*
X163873390Y-120320112D01*
X163873390Y-120320112D02*
X164444819Y-119748684D01*
X164444819Y-119748684D02*
X164444819Y-120367731D01*
X58955180Y-105172744D02*
X58955180Y-104982268D01*
X58955180Y-104982268D02*
X58907561Y-104887030D01*
X58907561Y-104887030D02*
X58812323Y-104791792D01*
X58812323Y-104791792D02*
X58621847Y-104744173D01*
X58621847Y-104744173D02*
X58288514Y-104744173D01*
X58288514Y-104744173D02*
X58098038Y-104791792D01*
X58098038Y-104791792D02*
X58002800Y-104887030D01*
X58002800Y-104887030D02*
X57955180Y-104982268D01*
X57955180Y-104982268D02*
X57955180Y-105172744D01*
X57955180Y-105172744D02*
X58002800Y-105267982D01*
X58002800Y-105267982D02*
X58098038Y-105363220D01*
X58098038Y-105363220D02*
X58288514Y-105410839D01*
X58288514Y-105410839D02*
X58621847Y-105410839D01*
X58621847Y-105410839D02*
X58812323Y-105363220D01*
X58812323Y-105363220D02*
X58907561Y-105267982D01*
X58907561Y-105267982D02*
X58955180Y-105172744D01*
X58955180Y-104315601D02*
X58145657Y-104315601D01*
X58145657Y-104315601D02*
X58050419Y-104267982D01*
X58050419Y-104267982D02*
X58002800Y-104220363D01*
X58002800Y-104220363D02*
X57955180Y-104125125D01*
X57955180Y-104125125D02*
X57955180Y-103934649D01*
X57955180Y-103934649D02*
X58002800Y-103839411D01*
X58002800Y-103839411D02*
X58050419Y-103791792D01*
X58050419Y-103791792D02*
X58145657Y-103744173D01*
X58145657Y-103744173D02*
X58955180Y-103744173D01*
X58955180Y-103410839D02*
X58955180Y-102839411D01*
X57955180Y-103125125D02*
X58955180Y-103125125D01*
X57955180Y-101982268D02*
X57955180Y-102553696D01*
X57955180Y-102267982D02*
X58955180Y-102267982D01*
X58955180Y-102267982D02*
X58812323Y-102363220D01*
X58812323Y-102363220D02*
X58717085Y-102458458D01*
X58717085Y-102458458D02*
X58669466Y-102553696D01*
X58050419Y-115291792D02*
X58002800Y-115339411D01*
X58002800Y-115339411D02*
X57955180Y-115482268D01*
X57955180Y-115482268D02*
X57955180Y-115577506D01*
X57955180Y-115577506D02*
X58002800Y-115720363D01*
X58002800Y-115720363D02*
X58098038Y-115815601D01*
X58098038Y-115815601D02*
X58193276Y-115863220D01*
X58193276Y-115863220D02*
X58383752Y-115910839D01*
X58383752Y-115910839D02*
X58526609Y-115910839D01*
X58526609Y-115910839D02*
X58717085Y-115863220D01*
X58717085Y-115863220D02*
X58812323Y-115815601D01*
X58812323Y-115815601D02*
X58907561Y-115720363D01*
X58907561Y-115720363D02*
X58955180Y-115577506D01*
X58955180Y-115577506D02*
X58955180Y-115482268D01*
X58955180Y-115482268D02*
X58907561Y-115339411D01*
X58907561Y-115339411D02*
X58859942Y-115291792D01*
X57955180Y-114387030D02*
X57955180Y-114863220D01*
X57955180Y-114863220D02*
X58955180Y-114863220D01*
X58955180Y-113863220D02*
X58955180Y-113672744D01*
X58955180Y-113672744D02*
X58907561Y-113577506D01*
X58907561Y-113577506D02*
X58812323Y-113482268D01*
X58812323Y-113482268D02*
X58621847Y-113434649D01*
X58621847Y-113434649D02*
X58288514Y-113434649D01*
X58288514Y-113434649D02*
X58098038Y-113482268D01*
X58098038Y-113482268D02*
X58002800Y-113577506D01*
X58002800Y-113577506D02*
X57955180Y-113672744D01*
X57955180Y-113672744D02*
X57955180Y-113863220D01*
X57955180Y-113863220D02*
X58002800Y-113958458D01*
X58002800Y-113958458D02*
X58098038Y-114053696D01*
X58098038Y-114053696D02*
X58288514Y-114101315D01*
X58288514Y-114101315D02*
X58621847Y-114101315D01*
X58621847Y-114101315D02*
X58812323Y-114053696D01*
X58812323Y-114053696D02*
X58907561Y-113958458D01*
X58907561Y-113958458D02*
X58955180Y-113863220D01*
X58002800Y-113053696D02*
X57955180Y-112910839D01*
X57955180Y-112910839D02*
X57955180Y-112672744D01*
X57955180Y-112672744D02*
X58002800Y-112577506D01*
X58002800Y-112577506D02*
X58050419Y-112529887D01*
X58050419Y-112529887D02*
X58145657Y-112482268D01*
X58145657Y-112482268D02*
X58240895Y-112482268D01*
X58240895Y-112482268D02*
X58336133Y-112529887D01*
X58336133Y-112529887D02*
X58383752Y-112577506D01*
X58383752Y-112577506D02*
X58431371Y-112672744D01*
X58431371Y-112672744D02*
X58478990Y-112863220D01*
X58478990Y-112863220D02*
X58526609Y-112958458D01*
X58526609Y-112958458D02*
X58574228Y-113006077D01*
X58574228Y-113006077D02*
X58669466Y-113053696D01*
X58669466Y-113053696D02*
X58764704Y-113053696D01*
X58764704Y-113053696D02*
X58859942Y-113006077D01*
X58859942Y-113006077D02*
X58907561Y-112958458D01*
X58907561Y-112958458D02*
X58955180Y-112863220D01*
X58955180Y-112863220D02*
X58955180Y-112625125D01*
X58955180Y-112625125D02*
X58907561Y-112482268D01*
X58478990Y-112053696D02*
X58478990Y-111720363D01*
X57955180Y-111577506D02*
X57955180Y-112053696D01*
X57955180Y-112053696D02*
X58955180Y-112053696D01*
X58955180Y-112053696D02*
X58955180Y-111577506D01*
X58955180Y-110172744D02*
X58955180Y-109982268D01*
X58955180Y-109982268D02*
X58907561Y-109887030D01*
X58907561Y-109887030D02*
X58812323Y-109791792D01*
X58812323Y-109791792D02*
X58621847Y-109744173D01*
X58621847Y-109744173D02*
X58288514Y-109744173D01*
X58288514Y-109744173D02*
X58098038Y-109791792D01*
X58098038Y-109791792D02*
X58002800Y-109887030D01*
X58002800Y-109887030D02*
X57955180Y-109982268D01*
X57955180Y-109982268D02*
X57955180Y-110172744D01*
X57955180Y-110172744D02*
X58002800Y-110267982D01*
X58002800Y-110267982D02*
X58098038Y-110363220D01*
X58098038Y-110363220D02*
X58288514Y-110410839D01*
X58288514Y-110410839D02*
X58621847Y-110410839D01*
X58621847Y-110410839D02*
X58812323Y-110363220D01*
X58812323Y-110363220D02*
X58907561Y-110267982D01*
X58907561Y-110267982D02*
X58955180Y-110172744D01*
X57955180Y-109315601D02*
X58955180Y-109315601D01*
X58955180Y-109315601D02*
X58955180Y-108934649D01*
X58955180Y-108934649D02*
X58907561Y-108839411D01*
X58907561Y-108839411D02*
X58859942Y-108791792D01*
X58859942Y-108791792D02*
X58764704Y-108744173D01*
X58764704Y-108744173D02*
X58621847Y-108744173D01*
X58621847Y-108744173D02*
X58526609Y-108791792D01*
X58526609Y-108791792D02*
X58478990Y-108839411D01*
X58478990Y-108839411D02*
X58431371Y-108934649D01*
X58431371Y-108934649D02*
X58431371Y-109315601D01*
X58478990Y-108315601D02*
X58478990Y-107982268D01*
X57955180Y-107839411D02*
X57955180Y-108315601D01*
X57955180Y-108315601D02*
X58955180Y-108315601D01*
X58955180Y-108315601D02*
X58955180Y-107839411D01*
X57955180Y-107410839D02*
X58955180Y-107410839D01*
X58955180Y-107410839D02*
X57955180Y-106839411D01*
X57955180Y-106839411D02*
X58955180Y-106839411D01*
X58955180Y-99172744D02*
X58955180Y-98982268D01*
X58955180Y-98982268D02*
X58907561Y-98887030D01*
X58907561Y-98887030D02*
X58812323Y-98791792D01*
X58812323Y-98791792D02*
X58621847Y-98744173D01*
X58621847Y-98744173D02*
X58288514Y-98744173D01*
X58288514Y-98744173D02*
X58098038Y-98791792D01*
X58098038Y-98791792D02*
X58002800Y-98887030D01*
X58002800Y-98887030D02*
X57955180Y-98982268D01*
X57955180Y-98982268D02*
X57955180Y-99172744D01*
X57955180Y-99172744D02*
X58002800Y-99267982D01*
X58002800Y-99267982D02*
X58098038Y-99363220D01*
X58098038Y-99363220D02*
X58288514Y-99410839D01*
X58288514Y-99410839D02*
X58621847Y-99410839D01*
X58621847Y-99410839D02*
X58812323Y-99363220D01*
X58812323Y-99363220D02*
X58907561Y-99267982D01*
X58907561Y-99267982D02*
X58955180Y-99172744D01*
X58955180Y-98315601D02*
X58145657Y-98315601D01*
X58145657Y-98315601D02*
X58050419Y-98267982D01*
X58050419Y-98267982D02*
X58002800Y-98220363D01*
X58002800Y-98220363D02*
X57955180Y-98125125D01*
X57955180Y-98125125D02*
X57955180Y-97934649D01*
X57955180Y-97934649D02*
X58002800Y-97839411D01*
X58002800Y-97839411D02*
X58050419Y-97791792D01*
X58050419Y-97791792D02*
X58145657Y-97744173D01*
X58145657Y-97744173D02*
X58955180Y-97744173D01*
X58955180Y-97410839D02*
X58955180Y-96839411D01*
X57955180Y-97125125D02*
X58955180Y-97125125D01*
X58859942Y-96553696D02*
X58907561Y-96506077D01*
X58907561Y-96506077D02*
X58955180Y-96410839D01*
X58955180Y-96410839D02*
X58955180Y-96172744D01*
X58955180Y-96172744D02*
X58907561Y-96077506D01*
X58907561Y-96077506D02*
X58859942Y-96029887D01*
X58859942Y-96029887D02*
X58764704Y-95982268D01*
X58764704Y-95982268D02*
X58669466Y-95982268D01*
X58669466Y-95982268D02*
X58526609Y-96029887D01*
X58526609Y-96029887D02*
X57955180Y-96601315D01*
X57955180Y-96601315D02*
X57955180Y-95982268D01*
X58907561Y-120339411D02*
X58955180Y-120434649D01*
X58955180Y-120434649D02*
X58955180Y-120577506D01*
X58955180Y-120577506D02*
X58907561Y-120720363D01*
X58907561Y-120720363D02*
X58812323Y-120815601D01*
X58812323Y-120815601D02*
X58717085Y-120863220D01*
X58717085Y-120863220D02*
X58526609Y-120910839D01*
X58526609Y-120910839D02*
X58383752Y-120910839D01*
X58383752Y-120910839D02*
X58193276Y-120863220D01*
X58193276Y-120863220D02*
X58098038Y-120815601D01*
X58098038Y-120815601D02*
X58002800Y-120720363D01*
X58002800Y-120720363D02*
X57955180Y-120577506D01*
X57955180Y-120577506D02*
X57955180Y-120482268D01*
X57955180Y-120482268D02*
X58002800Y-120339411D01*
X58002800Y-120339411D02*
X58050419Y-120291792D01*
X58050419Y-120291792D02*
X58383752Y-120291792D01*
X58383752Y-120291792D02*
X58383752Y-120482268D01*
X57955180Y-119863220D02*
X58955180Y-119863220D01*
X58955180Y-119863220D02*
X57955180Y-119291792D01*
X57955180Y-119291792D02*
X58955180Y-119291792D01*
X57955180Y-118815601D02*
X58955180Y-118815601D01*
X58955180Y-118815601D02*
X58955180Y-118577506D01*
X58955180Y-118577506D02*
X58907561Y-118434649D01*
X58907561Y-118434649D02*
X58812323Y-118339411D01*
X58812323Y-118339411D02*
X58717085Y-118291792D01*
X58717085Y-118291792D02*
X58526609Y-118244173D01*
X58526609Y-118244173D02*
X58383752Y-118244173D01*
X58383752Y-118244173D02*
X58193276Y-118291792D01*
X58193276Y-118291792D02*
X58098038Y-118339411D01*
X58098038Y-118339411D02*
X58002800Y-118434649D01*
X58002800Y-118434649D02*
X57955180Y-118577506D01*
X57955180Y-118577506D02*
X57955180Y-118815601D01*
X58955180Y-72472744D02*
X58955180Y-72282268D01*
X58955180Y-72282268D02*
X58907561Y-72187030D01*
X58907561Y-72187030D02*
X58812323Y-72091792D01*
X58812323Y-72091792D02*
X58621847Y-72044173D01*
X58621847Y-72044173D02*
X58288514Y-72044173D01*
X58288514Y-72044173D02*
X58098038Y-72091792D01*
X58098038Y-72091792D02*
X58002800Y-72187030D01*
X58002800Y-72187030D02*
X57955180Y-72282268D01*
X57955180Y-72282268D02*
X57955180Y-72472744D01*
X57955180Y-72472744D02*
X58002800Y-72567982D01*
X58002800Y-72567982D02*
X58098038Y-72663220D01*
X58098038Y-72663220D02*
X58288514Y-72710839D01*
X58288514Y-72710839D02*
X58621847Y-72710839D01*
X58621847Y-72710839D02*
X58812323Y-72663220D01*
X58812323Y-72663220D02*
X58907561Y-72567982D01*
X58907561Y-72567982D02*
X58955180Y-72472744D01*
X58955180Y-71615601D02*
X58145657Y-71615601D01*
X58145657Y-71615601D02*
X58050419Y-71567982D01*
X58050419Y-71567982D02*
X58002800Y-71520363D01*
X58002800Y-71520363D02*
X57955180Y-71425125D01*
X57955180Y-71425125D02*
X57955180Y-71234649D01*
X57955180Y-71234649D02*
X58002800Y-71139411D01*
X58002800Y-71139411D02*
X58050419Y-71091792D01*
X58050419Y-71091792D02*
X58145657Y-71044173D01*
X58145657Y-71044173D02*
X58955180Y-71044173D01*
X58955180Y-70710839D02*
X58955180Y-70139411D01*
X57955180Y-70425125D02*
X58955180Y-70425125D01*
X57955180Y-69282268D02*
X57955180Y-69853696D01*
X57955180Y-69567982D02*
X58955180Y-69567982D01*
X58955180Y-69567982D02*
X58812323Y-69663220D01*
X58812323Y-69663220D02*
X58717085Y-69758458D01*
X58717085Y-69758458D02*
X58669466Y-69853696D01*
X58050419Y-82591792D02*
X58002800Y-82639411D01*
X58002800Y-82639411D02*
X57955180Y-82782268D01*
X57955180Y-82782268D02*
X57955180Y-82877506D01*
X57955180Y-82877506D02*
X58002800Y-83020363D01*
X58002800Y-83020363D02*
X58098038Y-83115601D01*
X58098038Y-83115601D02*
X58193276Y-83163220D01*
X58193276Y-83163220D02*
X58383752Y-83210839D01*
X58383752Y-83210839D02*
X58526609Y-83210839D01*
X58526609Y-83210839D02*
X58717085Y-83163220D01*
X58717085Y-83163220D02*
X58812323Y-83115601D01*
X58812323Y-83115601D02*
X58907561Y-83020363D01*
X58907561Y-83020363D02*
X58955180Y-82877506D01*
X58955180Y-82877506D02*
X58955180Y-82782268D01*
X58955180Y-82782268D02*
X58907561Y-82639411D01*
X58907561Y-82639411D02*
X58859942Y-82591792D01*
X57955180Y-81687030D02*
X57955180Y-82163220D01*
X57955180Y-82163220D02*
X58955180Y-82163220D01*
X58955180Y-81163220D02*
X58955180Y-80972744D01*
X58955180Y-80972744D02*
X58907561Y-80877506D01*
X58907561Y-80877506D02*
X58812323Y-80782268D01*
X58812323Y-80782268D02*
X58621847Y-80734649D01*
X58621847Y-80734649D02*
X58288514Y-80734649D01*
X58288514Y-80734649D02*
X58098038Y-80782268D01*
X58098038Y-80782268D02*
X58002800Y-80877506D01*
X58002800Y-80877506D02*
X57955180Y-80972744D01*
X57955180Y-80972744D02*
X57955180Y-81163220D01*
X57955180Y-81163220D02*
X58002800Y-81258458D01*
X58002800Y-81258458D02*
X58098038Y-81353696D01*
X58098038Y-81353696D02*
X58288514Y-81401315D01*
X58288514Y-81401315D02*
X58621847Y-81401315D01*
X58621847Y-81401315D02*
X58812323Y-81353696D01*
X58812323Y-81353696D02*
X58907561Y-81258458D01*
X58907561Y-81258458D02*
X58955180Y-81163220D01*
X58002800Y-80353696D02*
X57955180Y-80210839D01*
X57955180Y-80210839D02*
X57955180Y-79972744D01*
X57955180Y-79972744D02*
X58002800Y-79877506D01*
X58002800Y-79877506D02*
X58050419Y-79829887D01*
X58050419Y-79829887D02*
X58145657Y-79782268D01*
X58145657Y-79782268D02*
X58240895Y-79782268D01*
X58240895Y-79782268D02*
X58336133Y-79829887D01*
X58336133Y-79829887D02*
X58383752Y-79877506D01*
X58383752Y-79877506D02*
X58431371Y-79972744D01*
X58431371Y-79972744D02*
X58478990Y-80163220D01*
X58478990Y-80163220D02*
X58526609Y-80258458D01*
X58526609Y-80258458D02*
X58574228Y-80306077D01*
X58574228Y-80306077D02*
X58669466Y-80353696D01*
X58669466Y-80353696D02*
X58764704Y-80353696D01*
X58764704Y-80353696D02*
X58859942Y-80306077D01*
X58859942Y-80306077D02*
X58907561Y-80258458D01*
X58907561Y-80258458D02*
X58955180Y-80163220D01*
X58955180Y-80163220D02*
X58955180Y-79925125D01*
X58955180Y-79925125D02*
X58907561Y-79782268D01*
X58478990Y-79353696D02*
X58478990Y-79020363D01*
X57955180Y-78877506D02*
X57955180Y-79353696D01*
X57955180Y-79353696D02*
X58955180Y-79353696D01*
X58955180Y-79353696D02*
X58955180Y-78877506D01*
X58955180Y-77472744D02*
X58955180Y-77282268D01*
X58955180Y-77282268D02*
X58907561Y-77187030D01*
X58907561Y-77187030D02*
X58812323Y-77091792D01*
X58812323Y-77091792D02*
X58621847Y-77044173D01*
X58621847Y-77044173D02*
X58288514Y-77044173D01*
X58288514Y-77044173D02*
X58098038Y-77091792D01*
X58098038Y-77091792D02*
X58002800Y-77187030D01*
X58002800Y-77187030D02*
X57955180Y-77282268D01*
X57955180Y-77282268D02*
X57955180Y-77472744D01*
X57955180Y-77472744D02*
X58002800Y-77567982D01*
X58002800Y-77567982D02*
X58098038Y-77663220D01*
X58098038Y-77663220D02*
X58288514Y-77710839D01*
X58288514Y-77710839D02*
X58621847Y-77710839D01*
X58621847Y-77710839D02*
X58812323Y-77663220D01*
X58812323Y-77663220D02*
X58907561Y-77567982D01*
X58907561Y-77567982D02*
X58955180Y-77472744D01*
X57955180Y-76615601D02*
X58955180Y-76615601D01*
X58955180Y-76615601D02*
X58955180Y-76234649D01*
X58955180Y-76234649D02*
X58907561Y-76139411D01*
X58907561Y-76139411D02*
X58859942Y-76091792D01*
X58859942Y-76091792D02*
X58764704Y-76044173D01*
X58764704Y-76044173D02*
X58621847Y-76044173D01*
X58621847Y-76044173D02*
X58526609Y-76091792D01*
X58526609Y-76091792D02*
X58478990Y-76139411D01*
X58478990Y-76139411D02*
X58431371Y-76234649D01*
X58431371Y-76234649D02*
X58431371Y-76615601D01*
X58478990Y-75615601D02*
X58478990Y-75282268D01*
X57955180Y-75139411D02*
X57955180Y-75615601D01*
X57955180Y-75615601D02*
X58955180Y-75615601D01*
X58955180Y-75615601D02*
X58955180Y-75139411D01*
X57955180Y-74710839D02*
X58955180Y-74710839D01*
X58955180Y-74710839D02*
X57955180Y-74139411D01*
X57955180Y-74139411D02*
X58955180Y-74139411D01*
X58955180Y-66472744D02*
X58955180Y-66282268D01*
X58955180Y-66282268D02*
X58907561Y-66187030D01*
X58907561Y-66187030D02*
X58812323Y-66091792D01*
X58812323Y-66091792D02*
X58621847Y-66044173D01*
X58621847Y-66044173D02*
X58288514Y-66044173D01*
X58288514Y-66044173D02*
X58098038Y-66091792D01*
X58098038Y-66091792D02*
X58002800Y-66187030D01*
X58002800Y-66187030D02*
X57955180Y-66282268D01*
X57955180Y-66282268D02*
X57955180Y-66472744D01*
X57955180Y-66472744D02*
X58002800Y-66567982D01*
X58002800Y-66567982D02*
X58098038Y-66663220D01*
X58098038Y-66663220D02*
X58288514Y-66710839D01*
X58288514Y-66710839D02*
X58621847Y-66710839D01*
X58621847Y-66710839D02*
X58812323Y-66663220D01*
X58812323Y-66663220D02*
X58907561Y-66567982D01*
X58907561Y-66567982D02*
X58955180Y-66472744D01*
X58955180Y-65615601D02*
X58145657Y-65615601D01*
X58145657Y-65615601D02*
X58050419Y-65567982D01*
X58050419Y-65567982D02*
X58002800Y-65520363D01*
X58002800Y-65520363D02*
X57955180Y-65425125D01*
X57955180Y-65425125D02*
X57955180Y-65234649D01*
X57955180Y-65234649D02*
X58002800Y-65139411D01*
X58002800Y-65139411D02*
X58050419Y-65091792D01*
X58050419Y-65091792D02*
X58145657Y-65044173D01*
X58145657Y-65044173D02*
X58955180Y-65044173D01*
X58955180Y-64710839D02*
X58955180Y-64139411D01*
X57955180Y-64425125D02*
X58955180Y-64425125D01*
X58859942Y-63853696D02*
X58907561Y-63806077D01*
X58907561Y-63806077D02*
X58955180Y-63710839D01*
X58955180Y-63710839D02*
X58955180Y-63472744D01*
X58955180Y-63472744D02*
X58907561Y-63377506D01*
X58907561Y-63377506D02*
X58859942Y-63329887D01*
X58859942Y-63329887D02*
X58764704Y-63282268D01*
X58764704Y-63282268D02*
X58669466Y-63282268D01*
X58669466Y-63282268D02*
X58526609Y-63329887D01*
X58526609Y-63329887D02*
X57955180Y-63901315D01*
X57955180Y-63901315D02*
X57955180Y-63282268D01*
X58907561Y-87639411D02*
X58955180Y-87734649D01*
X58955180Y-87734649D02*
X58955180Y-87877506D01*
X58955180Y-87877506D02*
X58907561Y-88020363D01*
X58907561Y-88020363D02*
X58812323Y-88115601D01*
X58812323Y-88115601D02*
X58717085Y-88163220D01*
X58717085Y-88163220D02*
X58526609Y-88210839D01*
X58526609Y-88210839D02*
X58383752Y-88210839D01*
X58383752Y-88210839D02*
X58193276Y-88163220D01*
X58193276Y-88163220D02*
X58098038Y-88115601D01*
X58098038Y-88115601D02*
X58002800Y-88020363D01*
X58002800Y-88020363D02*
X57955180Y-87877506D01*
X57955180Y-87877506D02*
X57955180Y-87782268D01*
X57955180Y-87782268D02*
X58002800Y-87639411D01*
X58002800Y-87639411D02*
X58050419Y-87591792D01*
X58050419Y-87591792D02*
X58383752Y-87591792D01*
X58383752Y-87591792D02*
X58383752Y-87782268D01*
X57955180Y-87163220D02*
X58955180Y-87163220D01*
X58955180Y-87163220D02*
X57955180Y-86591792D01*
X57955180Y-86591792D02*
X58955180Y-86591792D01*
X57955180Y-86115601D02*
X58955180Y-86115601D01*
X58955180Y-86115601D02*
X58955180Y-85877506D01*
X58955180Y-85877506D02*
X58907561Y-85734649D01*
X58907561Y-85734649D02*
X58812323Y-85639411D01*
X58812323Y-85639411D02*
X58717085Y-85591792D01*
X58717085Y-85591792D02*
X58526609Y-85544173D01*
X58526609Y-85544173D02*
X58383752Y-85544173D01*
X58383752Y-85544173D02*
X58193276Y-85591792D01*
X58193276Y-85591792D02*
X58098038Y-85639411D01*
X58098038Y-85639411D02*
X58002800Y-85734649D01*
X58002800Y-85734649D02*
X57955180Y-85877506D01*
X57955180Y-85877506D02*
X57955180Y-86115601D01*
X107611133Y-54463220D02*
X107611133Y-53701316D01*
X107230180Y-54082268D02*
X107992085Y-54082268D01*
X108230180Y-53367982D02*
X107230180Y-53034649D01*
X107230180Y-53034649D02*
X108230180Y-52701316D01*
X112177800Y-55010839D02*
X112130180Y-54867982D01*
X112130180Y-54867982D02*
X112130180Y-54629887D01*
X112130180Y-54629887D02*
X112177800Y-54534649D01*
X112177800Y-54534649D02*
X112225419Y-54487030D01*
X112225419Y-54487030D02*
X112320657Y-54439411D01*
X112320657Y-54439411D02*
X112415895Y-54439411D01*
X112415895Y-54439411D02*
X112511133Y-54487030D01*
X112511133Y-54487030D02*
X112558752Y-54534649D01*
X112558752Y-54534649D02*
X112606371Y-54629887D01*
X112606371Y-54629887D02*
X112653990Y-54820363D01*
X112653990Y-54820363D02*
X112701609Y-54915601D01*
X112701609Y-54915601D02*
X112749228Y-54963220D01*
X112749228Y-54963220D02*
X112844466Y-55010839D01*
X112844466Y-55010839D02*
X112939704Y-55010839D01*
X112939704Y-55010839D02*
X113034942Y-54963220D01*
X113034942Y-54963220D02*
X113082561Y-54915601D01*
X113082561Y-54915601D02*
X113130180Y-54820363D01*
X113130180Y-54820363D02*
X113130180Y-54582268D01*
X113130180Y-54582268D02*
X113082561Y-54439411D01*
X112225419Y-53439411D02*
X112177800Y-53487030D01*
X112177800Y-53487030D02*
X112130180Y-53629887D01*
X112130180Y-53629887D02*
X112130180Y-53725125D01*
X112130180Y-53725125D02*
X112177800Y-53867982D01*
X112177800Y-53867982D02*
X112273038Y-53963220D01*
X112273038Y-53963220D02*
X112368276Y-54010839D01*
X112368276Y-54010839D02*
X112558752Y-54058458D01*
X112558752Y-54058458D02*
X112701609Y-54058458D01*
X112701609Y-54058458D02*
X112892085Y-54010839D01*
X112892085Y-54010839D02*
X112987323Y-53963220D01*
X112987323Y-53963220D02*
X113082561Y-53867982D01*
X113082561Y-53867982D02*
X113130180Y-53725125D01*
X113130180Y-53725125D02*
X113130180Y-53629887D01*
X113130180Y-53629887D02*
X113082561Y-53487030D01*
X113082561Y-53487030D02*
X113034942Y-53439411D01*
X112130180Y-52534649D02*
X112130180Y-53010839D01*
X112130180Y-53010839D02*
X113130180Y-53010839D01*
X115130180Y-54863220D02*
X116130180Y-54863220D01*
X115130180Y-54387030D02*
X116130180Y-54387030D01*
X116130180Y-54387030D02*
X115130180Y-53815602D01*
X115130180Y-53815602D02*
X116130180Y-53815602D01*
X116130180Y-53482268D02*
X116130180Y-52910840D01*
X115130180Y-53196554D02*
X116130180Y-53196554D01*
X109677800Y-54910839D02*
X109630180Y-54767982D01*
X109630180Y-54767982D02*
X109630180Y-54529887D01*
X109630180Y-54529887D02*
X109677800Y-54434649D01*
X109677800Y-54434649D02*
X109725419Y-54387030D01*
X109725419Y-54387030D02*
X109820657Y-54339411D01*
X109820657Y-54339411D02*
X109915895Y-54339411D01*
X109915895Y-54339411D02*
X110011133Y-54387030D01*
X110011133Y-54387030D02*
X110058752Y-54434649D01*
X110058752Y-54434649D02*
X110106371Y-54529887D01*
X110106371Y-54529887D02*
X110153990Y-54720363D01*
X110153990Y-54720363D02*
X110201609Y-54815601D01*
X110201609Y-54815601D02*
X110249228Y-54863220D01*
X110249228Y-54863220D02*
X110344466Y-54910839D01*
X110344466Y-54910839D02*
X110439704Y-54910839D01*
X110439704Y-54910839D02*
X110534942Y-54863220D01*
X110534942Y-54863220D02*
X110582561Y-54815601D01*
X110582561Y-54815601D02*
X110630180Y-54720363D01*
X110630180Y-54720363D02*
X110630180Y-54482268D01*
X110630180Y-54482268D02*
X110582561Y-54339411D01*
X109630180Y-53910839D02*
X110630180Y-53910839D01*
X110630180Y-53910839D02*
X110630180Y-53672744D01*
X110630180Y-53672744D02*
X110582561Y-53529887D01*
X110582561Y-53529887D02*
X110487323Y-53434649D01*
X110487323Y-53434649D02*
X110392085Y-53387030D01*
X110392085Y-53387030D02*
X110201609Y-53339411D01*
X110201609Y-53339411D02*
X110058752Y-53339411D01*
X110058752Y-53339411D02*
X109868276Y-53387030D01*
X109868276Y-53387030D02*
X109773038Y-53434649D01*
X109773038Y-53434649D02*
X109677800Y-53529887D01*
X109677800Y-53529887D02*
X109630180Y-53672744D01*
X109630180Y-53672744D02*
X109630180Y-53910839D01*
X109915895Y-52958458D02*
X109915895Y-52482268D01*
X109630180Y-53053696D02*
X110630180Y-52720363D01*
X110630180Y-52720363D02*
X109630180Y-52387030D01*
X105582561Y-54339411D02*
X105630180Y-54434649D01*
X105630180Y-54434649D02*
X105630180Y-54577506D01*
X105630180Y-54577506D02*
X105582561Y-54720363D01*
X105582561Y-54720363D02*
X105487323Y-54815601D01*
X105487323Y-54815601D02*
X105392085Y-54863220D01*
X105392085Y-54863220D02*
X105201609Y-54910839D01*
X105201609Y-54910839D02*
X105058752Y-54910839D01*
X105058752Y-54910839D02*
X104868276Y-54863220D01*
X104868276Y-54863220D02*
X104773038Y-54815601D01*
X104773038Y-54815601D02*
X104677800Y-54720363D01*
X104677800Y-54720363D02*
X104630180Y-54577506D01*
X104630180Y-54577506D02*
X104630180Y-54482268D01*
X104630180Y-54482268D02*
X104677800Y-54339411D01*
X104677800Y-54339411D02*
X104725419Y-54291792D01*
X104725419Y-54291792D02*
X105058752Y-54291792D01*
X105058752Y-54291792D02*
X105058752Y-54482268D01*
X104630180Y-53863220D02*
X105630180Y-53863220D01*
X105630180Y-53863220D02*
X104630180Y-53291792D01*
X104630180Y-53291792D02*
X105630180Y-53291792D01*
X104630180Y-52815601D02*
X105630180Y-52815601D01*
X105630180Y-52815601D02*
X105630180Y-52577506D01*
X105630180Y-52577506D02*
X105582561Y-52434649D01*
X105582561Y-52434649D02*
X105487323Y-52339411D01*
X105487323Y-52339411D02*
X105392085Y-52291792D01*
X105392085Y-52291792D02*
X105201609Y-52244173D01*
X105201609Y-52244173D02*
X105058752Y-52244173D01*
X105058752Y-52244173D02*
X104868276Y-52291792D01*
X104868276Y-52291792D02*
X104773038Y-52339411D01*
X104773038Y-52339411D02*
X104677800Y-52434649D01*
X104677800Y-52434649D02*
X104630180Y-52577506D01*
X104630180Y-52577506D02*
X104630180Y-52815601D01*
M02*
