M48
; DRILL file {KiCad 7.0.5} date Sat Nov 11 15:26:16 2023
; FORMAT={-:-/ absolute / inch / decimal}
; #@! TF.CreationDate,2023-11-11T15:26:16-08:00
; #@! TF.GenerationSoftware,Kicad,Pcbnew,7.0.5
; #@! TF.FileFunction,Plated,1,2,PTH
FMAT,2
INCH
; #@! TA.AperFunction,Plated,PTH,ComponentDrill
T1C0.0118
; #@! TA.AperFunction,Plated,PTH,ViaDrill
T2C0.0157
; #@! TA.AperFunction,Plated,PTH,ViaDrill
T3C0.0197
; #@! TA.AperFunction,Plated,PTH,ComponentDrill
T4C0.0394
; #@! TA.AperFunction,Plated,PTH,ComponentDrill
T5C0.0598
; #@! TA.AperFunction,Plated,PTH,ComponentDrill
T6C0.1260
%
G90
G05
T1
X3.4567Y-3.1752
X3.4567Y-3.2224
X3.4567Y-3.2697
X3.4567Y-3.3169
X3.4567Y-3.3642
X3.4567Y-3.4114
X3.4567Y-3.4587
X3.5039Y-3.1752
X3.5039Y-3.2224
X3.5039Y-3.2697
X3.5039Y-3.3169
X3.5039Y-3.3642
X3.5039Y-3.4114
X3.5039Y-3.4587
X3.5512Y-3.1752
X3.5512Y-3.2224
X3.5512Y-3.2697
X3.5512Y-3.3169
X3.5512Y-3.3642
X3.5512Y-3.4114
X3.5512Y-3.4587
X3.5984Y-3.1752
X3.5984Y-3.2224
X3.5984Y-3.2697
X3.5984Y-3.3169
X3.5984Y-3.3642
X3.5984Y-3.4114
X3.5984Y-3.4587
X3.6457Y-3.1752
X3.6457Y-3.2224
X3.6457Y-3.2697
X3.6457Y-3.3169
X3.6457Y-3.3642
X3.6457Y-3.4114
X3.6457Y-3.4587
X3.6929Y-3.1752
X3.6929Y-3.2224
X3.6929Y-3.2697
X3.6929Y-3.3169
X3.6929Y-3.3642
X3.6929Y-3.4114
X3.6929Y-3.4587
X3.7402Y-3.1752
X3.7402Y-3.2224
X3.7402Y-3.2697
X3.7402Y-3.3169
X3.7402Y-3.3642
X3.7402Y-3.4114
X3.7402Y-3.4587
X3.7874Y-3.1752
X3.7874Y-3.2224
X3.7874Y-3.2697
X3.7874Y-3.3169
X3.7874Y-3.3642
X3.7874Y-3.4114
X3.7874Y-3.4587
X3.8789Y-3.8823
X3.8789Y-3.9295
X3.8789Y-3.9768
X3.8789Y-4.024
X3.8789Y-4.0713
X3.8789Y-4.1185
X3.8789Y-4.1657
X3.8789Y-4.213
X3.9262Y-3.8823
X3.9262Y-3.9295
X3.9262Y-3.9768
X3.9262Y-4.024
X3.9262Y-4.0713
X3.9262Y-4.1185
X3.9262Y-4.1657
X3.9262Y-4.213
X3.9734Y-3.8823
X3.9734Y-3.9295
X3.9734Y-3.9768
X3.9734Y-4.024
X3.9734Y-4.0713
X3.9734Y-4.1185
X3.9734Y-4.1657
X3.9734Y-4.213
X4.0207Y-3.8823
X4.0207Y-3.9295
X4.0207Y-3.9768
X4.0207Y-4.024
X4.0207Y-4.0713
X4.0207Y-4.1185
X4.0207Y-4.1657
X4.0207Y-4.213
X4.0679Y-3.8823
X4.0679Y-3.9295
X4.0679Y-3.9768
X4.0679Y-4.024
X4.0679Y-4.0713
X4.0679Y-4.1185
X4.0679Y-4.1657
X4.0679Y-4.213
X4.1152Y-3.8823
X4.1152Y-3.9295
X4.1152Y-3.9768
X4.1152Y-4.024
X4.1152Y-4.0713
X4.1152Y-4.1185
X4.1152Y-4.1657
X4.1152Y-4.213
X4.1624Y-3.8823
X4.1624Y-3.9295
X4.1624Y-3.9768
X4.1624Y-4.024
X4.1624Y-4.0713
X4.1624Y-4.1185
X4.1624Y-4.1657
X4.1624Y-4.213
X4.7746Y-3.8791
X4.7746Y-3.9264
X4.7746Y-3.9736
X4.7746Y-4.0209
X4.7746Y-4.0681
X4.7746Y-4.1154
X4.7746Y-4.1626
X4.7746Y-4.2098
X4.8219Y-3.8791
X4.8219Y-3.9264
X4.8219Y-3.9736
X4.8219Y-4.0209
X4.8219Y-4.0681
X4.8219Y-4.1154
X4.8219Y-4.1626
X4.8219Y-4.2098
X4.8691Y-3.8791
X4.8691Y-3.9264
X4.8691Y-3.9736
X4.8691Y-4.0209
X4.8691Y-4.0681
X4.8691Y-4.1154
X4.8691Y-4.1626
X4.8691Y-4.2098
X4.9163Y-3.8791
X4.9163Y-3.9264
X4.9163Y-3.9736
X4.9163Y-4.0209
X4.9163Y-4.0681
X4.9163Y-4.1154
X4.9163Y-4.1626
X4.9163Y-4.2098
X4.9252Y-2.3799
X4.9252Y-2.4272
X4.9252Y-2.4744
X4.9252Y-2.5217
X4.9252Y-2.5689
X4.9252Y-2.6161
X4.9252Y-2.6634
X4.9636Y-3.8791
X4.9636Y-3.9264
X4.9636Y-3.9736
X4.9636Y-4.0209
X4.9636Y-4.0681
X4.9636Y-4.1154
X4.9636Y-4.1626
X4.9636Y-4.2098
X4.9724Y-2.3799
X4.9724Y-2.4272
X4.9724Y-2.4744
X4.9724Y-2.5217
X4.9724Y-2.5689
X4.9724Y-2.6161
X4.9724Y-2.6634
X5.0108Y-3.8791
X5.0108Y-3.9264
X5.0108Y-3.9736
X5.0108Y-4.0209
X5.0108Y-4.0681
X5.0108Y-4.1154
X5.0108Y-4.1626
X5.0108Y-4.2098
X5.0197Y-2.3799
X5.0197Y-2.4272
X5.0197Y-2.4744
X5.0197Y-2.5217
X5.0197Y-2.5689
X5.0197Y-2.6161
X5.0197Y-2.6634
X5.0581Y-3.8791
X5.0581Y-3.9264
X5.0581Y-3.9736
X5.0581Y-4.0209
X5.0581Y-4.0681
X5.0581Y-4.1154
X5.0581Y-4.1626
X5.0581Y-4.2098
X5.0669Y-2.3799
X5.0669Y-2.4272
X5.0669Y-2.4744
X5.0669Y-2.5217
X5.0669Y-2.5689
X5.0669Y-2.6161
X5.0669Y-2.6634
X5.1142Y-2.3799
X5.1142Y-2.4272
X5.1142Y-2.4744
X5.1142Y-2.5217
X5.1142Y-2.5689
X5.1142Y-2.6161
X5.1142Y-2.6634
X5.1614Y-2.3799
X5.1614Y-2.4272
X5.1614Y-2.4744
X5.1614Y-2.5217
X5.1614Y-2.5689
X5.1614Y-2.6161
X5.1614Y-2.6634
X5.2087Y-2.3799
X5.2087Y-2.4272
X5.2087Y-2.4744
X5.2087Y-2.5217
X5.2087Y-2.5689
X5.2087Y-2.6161
X5.2087Y-2.6634
X5.2559Y-2.3799
X5.2559Y-2.4272
X5.2559Y-2.4744
X5.2559Y-2.5217
X5.2559Y-2.5689
X5.2559Y-2.6161
X5.2559Y-2.6634
T2
X3.5787Y-3.0079
T3
X2.5709Y-3.937
X2.6063Y-2.6614
X2.6457Y-4.0591
X2.6496Y-3.7835
X2.6575Y-3.0709
X2.6575Y-4.189
X2.6575Y-4.3071
X2.6772Y-3.4291
X2.6772Y-4.689
X2.7323Y-2.8071
X2.7598Y-3.937
X2.8228Y-4.5266
X2.9646Y-3.6811
X2.9921Y-4.9449
X3.0197Y-4.878
X3.0354Y-4.5984
X3.0512Y-3.0157
X3.0512Y-3.3858
X3.0709Y-4.3583
X3.1299Y-3.1496
X3.1457Y-2.3701
X3.1457Y-4.9646
X3.185Y-2.8661
X3.189Y-3.3898
X3.189Y-4.0669
X3.1969Y-2.6142
X3.2259Y-4.3804
X3.2697Y-3.6359
X3.2835Y-2.6142
X3.2837Y-2.8581
X3.2874Y-3.5039
X3.2874Y-4.6024
X3.2953Y-3.8701
X3.3031Y-4.126
X3.3465Y-3.4882
X3.3858Y-3.0758
X3.3898Y-3.7992
X3.4449Y-2.6142
X3.5157Y-4.3346
X3.5315Y-4.5866
X3.5512Y-3.7126
X3.563Y-4.0709
X3.5709Y-3.7913
X3.572Y-4.5532
X3.689Y-2.9449
X3.6969Y-3.9961
X3.6969Y-4.1004
X3.7559Y-4.4331
X3.7992Y-4.4724
X3.815Y-3.5748
X3.8721Y-3.1575
X3.8898Y-2.9449
X3.9055Y-3.2087
X3.9213Y-3.5551
X3.9291Y-3.7874
X3.937Y-3.7244
X3.9646Y-3.2362
X3.9843Y-3.4961
X3.9961Y-3.8071
X4.0315Y-2.3685
X4.0945Y-4.3622
X4.1142Y-2.8504
X4.1535Y-2.3819
X4.2165Y-3.1299
X4.2205Y-3.2402
X4.2244Y-2.6811
X4.2441Y-4.4055
X4.2717Y-3.0276
X4.3071Y-3.2165
X4.315Y-3.7992
X4.3425Y-4.5039
X4.3661Y-2.3465
X4.3661Y-3.0118
X4.3701Y-2.4213
X4.3701Y-2.5
X4.4252Y-2.9646
X4.4449Y-3.2323
X4.4512Y-3.4055
X4.498Y-2.9803
X4.5157Y-3.2047
X4.5197Y-2.3465
X4.5551Y-2.7717
X4.5748Y-3.1929
X4.5866Y-2.4213
X4.5866Y-2.5
X4.6024Y-3.4016
X4.6378Y-4.311
X4.6457Y-3.2953
X4.6732Y-2.9449
X4.7087Y-4.4409
X4.7441Y-2.3819
X4.7441Y-2.5394
X4.752Y-3.5866
X4.7953Y-2.6181
X4.811Y-3.1811
X4.8295Y-2.954
X4.8858Y-3.8051
X4.9134Y-3.3071
X4.9213Y-3.2441
X4.9292Y-3.1772
X4.9331Y-3.126
X4.9528Y-3.7854
X4.9685Y-4.6181
X4.9783Y-3.683
X5.0079Y-3.7481
X5.0394Y-2.8425
X5.0512Y-3.311
X5.0551Y-3.5157
X5.1378Y-2.8543
X5.2008Y-3.5118
X5.2047Y-4.4724
X5.2047Y-4.5394
X5.2205Y-4.2992
X5.2244Y-3.9961
X5.2283Y-4.0945
X5.2598Y-2.8307
X5.2598Y-4.1917
X5.2717Y-3.8228
X5.2913Y-4.3661
X5.3307Y-2.9961
X5.378Y-3.5433
X5.3819Y-3.1811
X5.437Y-2.811
X5.4407Y-3.1026
X5.4409Y-3.3622
X5.4409Y-4.5709
X5.5118Y-4.4173
X5.5315Y-4.6102
X5.5433Y-2.9961
X5.5748Y-3.0512
X5.5866Y-3.378
X5.5906Y-3.122
X5.6063Y-3.7913
X5.6614Y-4.1811
X5.6811Y-4.6142
X5.6831Y-3.8199
X5.7008Y-2.622
X5.7047Y-2.8465
X5.7323Y-2.4803
X5.7913Y-4.5394
X5.874Y-2.8307
X5.878Y-4.0984
X5.8819Y-3.7726
X5.9882Y-3.2795
X6.0354Y-2.8622
X6.0394Y-2.7402
X6.0433Y-3.6024
X6.1181Y-4.1969
X6.122Y-3.4134
X6.122Y-4.6457
X6.126Y-3.1535
X6.1299Y-2.9409
X6.1299Y-3.0512
X6.1299Y-4.4685
X6.1575Y-4.8307
X6.2008Y-3.6102
X6.3346Y-2.9016
X6.3346Y-3.1024
X6.3425Y-3.2992
T4
X4.15Y-2.25
X4.25Y-2.25
X4.35Y-2.25
X4.45Y-2.25
X4.55Y-2.25
T5
X2.5Y-2.6
X2.5Y-2.8
X2.5Y-3.0
X2.5Y-3.2
X2.5Y-3.4
X2.5Y-3.85
X2.5Y-4.05
X2.5Y-4.25
X2.5Y-4.45
X2.5Y-4.65
X4.1Y-5.0
X4.3Y-5.0
X4.5Y-5.0
X4.7Y-5.0
X6.25Y-2.6
X6.25Y-2.8
X6.25Y-3.0
X6.25Y-3.2
X6.25Y-3.4
X6.25Y-3.85
X6.25Y-4.05
X6.25Y-4.25
X6.25Y-4.45
X6.25Y-4.65
T6
X2.5Y-2.25
X2.5Y-5.0
X6.25Y-2.25
X6.25Y-5.0
T0
M30
