%TF.GenerationSoftware,KiCad,Pcbnew,7.0.5*%
%TF.CreationDate,2023-09-16T15:25:37-07:00*%
%TF.ProjectId,ValveServoI2C,56616c76-6553-4657-9276-6f4932432e6b,rev?*%
%TF.SameCoordinates,Original*%
%TF.FileFunction,Copper,L2,Bot*%
%TF.FilePolarity,Positive*%
%FSLAX46Y46*%
G04 Gerber Fmt 4.6, Leading zero omitted, Abs format (unit mm)*
G04 Created by KiCad (PCBNEW 7.0.5) date 2023-09-16 15:25:37*
%MOMM*%
%LPD*%
G01*
G04 APERTURE LIST*
%TA.AperFunction,ComponentPad*%
%ADD10C,5.600000*%
%TD*%
%TA.AperFunction,ComponentPad*%
%ADD11R,3.000000X3.000000*%
%TD*%
%TA.AperFunction,ComponentPad*%
%ADD12C,3.000000*%
%TD*%
%TA.AperFunction,ComponentPad*%
%ADD13R,1.700000X1.700000*%
%TD*%
%TA.AperFunction,ComponentPad*%
%ADD14O,1.700000X1.700000*%
%TD*%
%TA.AperFunction,ViaPad*%
%ADD15C,0.800000*%
%TD*%
%TA.AperFunction,ViaPad*%
%ADD16C,0.700000*%
%TD*%
%TA.AperFunction,Conductor*%
%ADD17C,1.000000*%
%TD*%
%TA.AperFunction,Conductor*%
%ADD18C,0.300000*%
%TD*%
G04 APERTURE END LIST*
D10*
%TO.P,J2,1,Pin_1*%
%TO.N,GND*%
X82550000Y-120650000D03*
%TD*%
%TO.P,J1,1,Pin_1*%
%TO.N,GND*%
X82550000Y-50800000D03*
%TD*%
%TO.P,J4,1,Pin_1*%
%TO.N,GND*%
X165100000Y-50800000D03*
%TD*%
D11*
%TO.P,J7,1,Pin_1*%
%TO.N,GND*%
X165100000Y-91440000D03*
D12*
%TO.P,J7,2,Pin_2*%
%TO.N,/PCF8575/ServoValveConnection2/DigitalPinIO3/Output*%
X165100000Y-96520000D03*
%TO.P,J7,3,Pin_3*%
%TO.N,/PCF8575/ServoValveConnection2/DigitalPinIO2/Output*%
X165100000Y-101600000D03*
%TO.P,J7,4,Pin_4*%
%TO.N,Net-(D29-K)*%
X165100000Y-106680000D03*
%TO.P,J7,5,Pin_5*%
%TO.N,Net-(D25-K)*%
X165100000Y-111760000D03*
%TD*%
D11*
%TO.P,J10,1,Pin_1*%
%TO.N,GND*%
X132080000Y-120650000D03*
D12*
%TO.P,J10,2,Pin_2*%
%TO.N,Net-(J10-Pin_2)*%
X127000000Y-120650000D03*
%TO.P,J10,3,Pin_3*%
%TO.N,GND*%
X121920000Y-120650000D03*
%TO.P,J10,4,Pin_4*%
%TO.N,Net-(J10-Pin_4)*%
X116840000Y-120650000D03*
%TD*%
D11*
%TO.P,J5,1,Pin_1*%
%TO.N,GND*%
X82550000Y-78740000D03*
D12*
%TO.P,J5,2,Pin_2*%
%TO.N,/PCF8575/ServoValveConnection/DigitalPinIO3/Output*%
X82550000Y-73660000D03*
%TO.P,J5,3,Pin_3*%
%TO.N,/PCF8575/ServoValveConnection/DigitalPinIO2/Output*%
X82550000Y-68580000D03*
%TO.P,J5,4,Pin_4*%
%TO.N,Net-(D27-K)*%
X82550000Y-63500000D03*
%TO.P,J5,5,Pin_5*%
%TO.N,Net-(D23-K)*%
X82550000Y-58420000D03*
%TD*%
D10*
%TO.P,J3,1,Pin_1*%
%TO.N,GND*%
X165100000Y-120650000D03*
%TD*%
D11*
%TO.P,J8,1,Pin_1*%
%TO.N,GND*%
X82550000Y-111760000D03*
D12*
%TO.P,J8,2,Pin_2*%
%TO.N,/PCF8575/ServoValveConnection3/DigitalPinIO3/Output*%
X82550000Y-106680000D03*
%TO.P,J8,3,Pin_3*%
%TO.N,/PCF8575/ServoValveConnection3/DigitalPinIO2/Output*%
X82550000Y-101600000D03*
%TO.P,J8,4,Pin_4*%
%TO.N,Net-(D30-K)*%
X82550000Y-96520000D03*
%TO.P,J8,5,Pin_5*%
%TO.N,Net-(D26-K)*%
X82550000Y-91440000D03*
%TD*%
D11*
%TO.P,J6,1,Pin_1*%
%TO.N,GND*%
X165100000Y-59690000D03*
D12*
%TO.P,J6,2,Pin_2*%
%TO.N,/PCF8575/ServoValveConnection1/DigitalPinIO3/Output*%
X165100000Y-64770000D03*
%TO.P,J6,3,Pin_3*%
%TO.N,/PCF8575/ServoValveConnection1/DigitalPinIO2/Output*%
X165100000Y-69850000D03*
%TO.P,J6,4,Pin_4*%
%TO.N,Net-(D28-K)*%
X165100000Y-74930000D03*
%TO.P,J6,5,Pin_5*%
%TO.N,Net-(D24-K)*%
X165100000Y-80010000D03*
%TD*%
D13*
%TO.P,J9,1,Pin_1*%
%TO.N,GND*%
X118110000Y-50800000D03*
D14*
%TO.P,J9,2,Pin_2*%
%TO.N,/I2CConnector/VI2C*%
X120650000Y-50800000D03*
%TO.P,J9,3,Pin_3*%
%TO.N,Net-(D18-A)*%
X123190000Y-50800000D03*
%TO.P,J9,4,Pin_4*%
%TO.N,Net-(D17-A)*%
X125730000Y-50800000D03*
%TO.P,J9,5,Pin_5*%
%TO.N,/I2CConnector/INT*%
X128270000Y-50800000D03*
%TD*%
D15*
%TO.N,/I2CConnector/VI2C*%
X126000000Y-62750000D03*
X118500000Y-64275000D03*
D16*
%TO.N,GND*%
X143500000Y-83500000D03*
X114500000Y-74000000D03*
X125500000Y-110000000D03*
X139000000Y-64000000D03*
X151250000Y-60500000D03*
X121000000Y-68500000D03*
X110500000Y-95500000D03*
X120250000Y-77250000D03*
X118500000Y-57500000D03*
X133750000Y-47000000D03*
X124500000Y-76500000D03*
X105500000Y-70950000D03*
X125000000Y-105000000D03*
X146000000Y-108500000D03*
X151000000Y-85250000D03*
X96500000Y-57250000D03*
X143500000Y-96000000D03*
X126750000Y-58250000D03*
X106000000Y-83000000D03*
X113500000Y-97500000D03*
X144250000Y-76500000D03*
X139500000Y-110000000D03*
X96750000Y-103000000D03*
X151000000Y-89750000D03*
X102500000Y-91500000D03*
X144750000Y-89750000D03*
X97250000Y-69500000D03*
X138500000Y-67800000D03*
X139500000Y-86500000D03*
X151250000Y-80250000D03*
X133250000Y-67000000D03*
X151000000Y-67250000D03*
X139250000Y-106250000D03*
X116500000Y-104500000D03*
X151000000Y-105250000D03*
X115000000Y-54250000D03*
X97000000Y-109750000D03*
X139000000Y-60000000D03*
X131000000Y-97250000D03*
X122500000Y-84000000D03*
X146000000Y-69500000D03*
X110250000Y-63750000D03*
X144500000Y-105250000D03*
X129000000Y-90000000D03*
X124500000Y-107000000D03*
X122750000Y-58250000D03*
X103000000Y-93000000D03*
X133250000Y-57750000D03*
X151000000Y-110750000D03*
X144000000Y-86500000D03*
X96250000Y-64250000D03*
X137500000Y-76000000D03*
X97000000Y-79000000D03*
X119000000Y-74000000D03*
X96750000Y-96500000D03*
X110000000Y-92000000D03*
X99500000Y-85500000D03*
X151250000Y-99500000D03*
X106500000Y-79500000D03*
X151000000Y-74000000D03*
X125000000Y-101500000D03*
X146500000Y-66500000D03*
X145500000Y-73500000D03*
X116500000Y-101500000D03*
X106750000Y-54250000D03*
X105250000Y-101955000D03*
X103750000Y-62500000D03*
X123750000Y-79000000D03*
X122500000Y-93000000D03*
X96250000Y-91500000D03*
X114500000Y-88500000D03*
X120500000Y-62000000D03*
X140000000Y-84750000D03*
X93500000Y-84000000D03*
%TO.N,+5V*%
X124250000Y-81000000D03*
X99500000Y-104500000D03*
X108250000Y-98500000D03*
X131912500Y-105500000D03*
X99750000Y-78750000D03*
X133500000Y-82500000D03*
X138000000Y-100750000D03*
X138275000Y-70975000D03*
X147750000Y-58250000D03*
X131950000Y-102750000D03*
X99750000Y-71750000D03*
X100625000Y-112875000D03*
X129000000Y-55000000D03*
X147750000Y-64750000D03*
X147750000Y-97500000D03*
X134500000Y-55000000D03*
X128500000Y-64250000D03*
X105250000Y-104750000D03*
X116500000Y-77250000D03*
X109500000Y-90000000D03*
X123250000Y-55000000D03*
X113000000Y-104000000D03*
X132250000Y-70000000D03*
%TO.N,+12V*%
X147750000Y-78750000D03*
X114125000Y-107625000D03*
X100000000Y-65500000D03*
X147750000Y-103000000D03*
X105250000Y-100055000D03*
X115500000Y-109000000D03*
X141750000Y-69700000D03*
X99500000Y-92000000D03*
X142250000Y-99950000D03*
X100000000Y-58750000D03*
X99500000Y-97000000D03*
X147750000Y-109250000D03*
X105250000Y-69050000D03*
X147750000Y-71750000D03*
%TO.N,/I2CConnector/INT*%
X126000000Y-77000000D03*
X129250000Y-76000000D03*
%TO.N,/PCF8575/ServoValveConnection/DRV0*%
X114250000Y-71000000D03*
X113250000Y-67250000D03*
%TO.N,/PCF8575/ServoValveConnection/DRV1*%
X111500000Y-66250000D03*
X112250000Y-70750000D03*
%TO.N,/PCF8575/ServoValveConnection1/END1*%
X129500000Y-80250000D03*
X128000000Y-85500000D03*
%TO.N,/PCF8575/ServoValveConnection1/DRV1*%
X133125000Y-80625000D03*
X123869622Y-85869622D03*
%TO.N,/PCF8575/ServoValveConnection1/END0*%
X129500000Y-86500000D03*
X131250000Y-80750000D03*
%TO.N,/PCF8575/ServoValveConnection1/DRV0*%
X133750000Y-78750000D03*
X122500000Y-86000000D03*
%TO.N,/PCF8575/ServoValveConnection2/END1*%
X149500000Y-92500000D03*
X146250000Y-88500000D03*
%TO.N,/PCF8575/ServoValveConnection3/DRV0*%
X113500000Y-89750000D03*
X112000000Y-92500000D03*
%TO.N,Net-(U6-WP)*%
X131000000Y-73000000D03*
X127000000Y-74500000D03*
%TD*%
D17*
%TO.N,/I2CConnector/VI2C*%
X121475000Y-64275000D02*
X118500000Y-64275000D01*
X126000000Y-62750000D02*
X123000000Y-62750000D01*
X123000000Y-62750000D02*
X121475000Y-64275000D01*
%TO.N,GND*%
X101750000Y-70250000D02*
X101750000Y-71750000D01*
X151000000Y-74000000D02*
X151000000Y-67250000D01*
X90050000Y-50800000D02*
X82550000Y-50800000D01*
X138500000Y-67800000D02*
X137700000Y-67000000D01*
X144500000Y-105250000D02*
X144500000Y-110000000D01*
X101750000Y-94250000D02*
X101750000Y-98455000D01*
X151250000Y-95500000D02*
X151250000Y-91000000D01*
X122750000Y-58250000D02*
X119000000Y-58250000D01*
X150875000Y-95875000D02*
X151250000Y-95500000D01*
X97000000Y-117500000D02*
X93850000Y-120650000D01*
X151000000Y-105250000D02*
X151000000Y-99750000D01*
X124500000Y-78250000D02*
X123750000Y-79000000D01*
X103000000Y-93000000D02*
X101750000Y-94250000D01*
X136750000Y-50000000D02*
X133750000Y-47000000D01*
X160900000Y-120650000D02*
X152625000Y-112375000D01*
X96750000Y-96500000D02*
X96750000Y-92000000D01*
X124500000Y-76500000D02*
X124500000Y-78250000D01*
X152250000Y-112750000D02*
X152625000Y-112375000D01*
X99000000Y-53500000D02*
X96250000Y-56250000D01*
X115000000Y-54250000D02*
X115000000Y-53910000D01*
X151000000Y-85250000D02*
X151000000Y-80500000D01*
X96750000Y-103000000D02*
X96750000Y-97250000D01*
X108250000Y-69750000D02*
X110250000Y-67750000D01*
X97955000Y-98455000D02*
X101750000Y-98455000D01*
X151250000Y-91000000D02*
X151250000Y-90000000D01*
X145000000Y-77250000D02*
X151250000Y-77250000D01*
X133250000Y-57750000D02*
X135750000Y-57750000D01*
X91250000Y-86500000D02*
X91250000Y-85500000D01*
X135750000Y-57750000D02*
X136750000Y-56750000D01*
X106500000Y-54250000D02*
X106750000Y-54250000D01*
X96750000Y-97250000D02*
X96750000Y-96500000D01*
X137500000Y-82250000D02*
X140000000Y-84750000D01*
X118250000Y-57500000D02*
X115000000Y-54250000D01*
X101750000Y-71750000D02*
X104700000Y-71750000D01*
X103750000Y-62500000D02*
X103750000Y-57000000D01*
X137500000Y-76000000D02*
X137500000Y-82250000D01*
X115000000Y-53910000D02*
X118110000Y-50800000D01*
X91250000Y-85500000D02*
X84490000Y-78740000D01*
X152625000Y-112375000D02*
X151000000Y-110750000D01*
X96500000Y-64000000D02*
X96250000Y-64250000D01*
X151000000Y-110750000D02*
X151000000Y-105250000D01*
X104205000Y-101955000D02*
X105250000Y-101955000D01*
X165100000Y-120650000D02*
X160900000Y-120650000D01*
X96250000Y-56250000D02*
X96250000Y-57000000D01*
X150875000Y-95875000D02*
X151250000Y-96250000D01*
X96500000Y-57250000D02*
X96500000Y-64000000D01*
X96750000Y-92000000D02*
X96250000Y-91500000D01*
X133250000Y-67000000D02*
X133250000Y-57750000D01*
X100250000Y-53500000D02*
X99000000Y-53500000D01*
X151250000Y-74250000D02*
X151000000Y-74000000D01*
X151250000Y-96250000D02*
X151250000Y-99500000D01*
X139250000Y-106250000D02*
X143450000Y-110450000D01*
X151250000Y-90000000D02*
X151000000Y-89750000D01*
X136750000Y-56750000D02*
X136750000Y-50000000D01*
X107050000Y-70950000D02*
X108250000Y-69750000D01*
X97000000Y-109750000D02*
X97000000Y-117500000D01*
X144500000Y-110000000D02*
X144950000Y-110450000D01*
X137700000Y-67000000D02*
X133250000Y-67000000D01*
X96750000Y-97250000D02*
X97955000Y-98455000D01*
X97250000Y-69500000D02*
X101000000Y-69500000D01*
X126750000Y-58250000D02*
X122750000Y-58250000D01*
X103750000Y-57000000D02*
X106500000Y-54250000D01*
X151000000Y-99750000D02*
X151250000Y-99500000D01*
X151000000Y-67250000D02*
X151000000Y-60750000D01*
X96250000Y-91500000D02*
X91250000Y-86500000D01*
X143450000Y-110450000D02*
X144950000Y-110450000D01*
X84490000Y-78740000D02*
X82550000Y-78740000D01*
X101750000Y-98455000D02*
X103000000Y-99705000D01*
X96250000Y-57000000D02*
X90050000Y-50800000D01*
X96250000Y-57000000D02*
X96500000Y-57250000D01*
X119000000Y-58250000D02*
X118500000Y-57750000D01*
X151000000Y-80500000D02*
X151250000Y-80250000D01*
X119000000Y-74000000D02*
X119000000Y-76000000D01*
X147250000Y-112750000D02*
X152250000Y-112750000D01*
X104700000Y-71750000D02*
X105500000Y-70950000D01*
X110250000Y-67750000D02*
X110250000Y-63750000D01*
X118500000Y-57750000D02*
X118500000Y-57500000D01*
X151000000Y-60750000D02*
X151250000Y-60500000D01*
X151250000Y-77250000D02*
X151250000Y-74250000D01*
X144250000Y-76500000D02*
X145000000Y-77250000D01*
X144750000Y-89750000D02*
X150875000Y-95875000D01*
X151250000Y-80250000D02*
X151250000Y-77250000D01*
X101000000Y-69500000D02*
X101750000Y-70250000D01*
X93850000Y-120650000D02*
X82550000Y-120650000D01*
X119000000Y-76000000D02*
X120250000Y-77250000D01*
X103750000Y-57000000D02*
X100250000Y-53500000D01*
X144950000Y-110450000D02*
X147250000Y-112750000D01*
X105500000Y-70950000D02*
X107050000Y-70950000D01*
X103000000Y-100750000D02*
X104205000Y-101955000D01*
X97000000Y-109750000D02*
X97000000Y-103250000D01*
X118500000Y-57500000D02*
X118250000Y-57500000D01*
X151000000Y-89750000D02*
X151000000Y-85250000D01*
X103000000Y-99705000D02*
X103000000Y-100750000D01*
X97000000Y-103250000D02*
X96750000Y-103000000D01*
%TO.N,+5V*%
X97000000Y-76000000D02*
X97000000Y-73500000D01*
X132250000Y-68000000D02*
X128500000Y-64250000D01*
X100625000Y-112875000D02*
X101000000Y-112500000D01*
X138275000Y-70975000D02*
X138275000Y-69975000D01*
X120250000Y-81000000D02*
X116500000Y-77250000D01*
X131950000Y-102750000D02*
X136000000Y-102750000D01*
X128500000Y-55500000D02*
X129000000Y-55000000D01*
X133500000Y-75750000D02*
X133500000Y-71250000D01*
X135250000Y-77500000D02*
X133500000Y-75750000D01*
X133500000Y-83250000D02*
X133500000Y-82500000D01*
X138275000Y-69975000D02*
X143500000Y-64750000D01*
X129000000Y-55000000D02*
X123250000Y-55000000D01*
X131912500Y-102787500D02*
X131950000Y-102750000D01*
X105250000Y-104750000D02*
X99750000Y-104750000D01*
X98750000Y-71750000D02*
X99750000Y-71750000D01*
X106750000Y-88250000D02*
X99750000Y-81250000D01*
X135250000Y-80750000D02*
X135250000Y-77500000D01*
X133500000Y-71250000D02*
X132250000Y-70000000D01*
X132250000Y-70000000D02*
X132250000Y-68000000D01*
X133500000Y-82500000D02*
X135250000Y-80750000D01*
X99750000Y-81250000D02*
X99750000Y-78750000D01*
X133500000Y-75750000D02*
X131500000Y-77750000D01*
X109500000Y-90000000D02*
X107750000Y-88250000D01*
X108250000Y-98500000D02*
X108250000Y-91250000D01*
X124250000Y-81000000D02*
X120250000Y-81000000D01*
X99750000Y-104750000D02*
X99500000Y-104500000D01*
X133500000Y-75750000D02*
X138275000Y-70975000D01*
X127500000Y-77750000D02*
X124250000Y-81000000D01*
X113750000Y-102750000D02*
X112500000Y-102750000D01*
X147750000Y-64750000D02*
X147750000Y-58250000D01*
X101000000Y-112500000D02*
X101000000Y-106000000D01*
X131500000Y-77750000D02*
X127500000Y-77750000D01*
X101000000Y-106000000D02*
X99750000Y-104750000D01*
X113750000Y-103250000D02*
X113000000Y-104000000D01*
X129000000Y-55000000D02*
X134500000Y-55000000D01*
X97000000Y-73500000D02*
X98750000Y-71750000D01*
X108250000Y-91250000D02*
X109500000Y-90000000D01*
X143500000Y-64750000D02*
X147750000Y-64750000D01*
X138000000Y-100750000D02*
X141000000Y-97750000D01*
X107750000Y-88250000D02*
X106750000Y-88250000D01*
X113750000Y-102750000D02*
X113750000Y-103250000D01*
X136000000Y-102750000D02*
X138000000Y-100750000D01*
X147500000Y-97750000D02*
X147750000Y-97500000D01*
X131950000Y-102750000D02*
X113750000Y-102750000D01*
X141000000Y-97750000D02*
X147500000Y-97750000D01*
X112500000Y-102750000D02*
X108250000Y-98500000D01*
X128500000Y-64250000D02*
X128500000Y-55500000D01*
X147750000Y-97500000D02*
X133500000Y-83250000D01*
X99750000Y-78750000D02*
X97000000Y-76000000D01*
X131912500Y-105500000D02*
X131912500Y-102787500D01*
%TO.N,+12V*%
X147750000Y-103000000D02*
X149500000Y-101250000D01*
X149500000Y-101250000D02*
X149500000Y-96500000D01*
X105250000Y-100055000D02*
X106555000Y-100055000D01*
X143800000Y-71750000D02*
X141750000Y-69700000D01*
X98250000Y-65500000D02*
X100000000Y-65500000D01*
X115000000Y-108500000D02*
X133700000Y-108500000D01*
X103500000Y-89750000D02*
X101750000Y-89750000D01*
X105250000Y-91500000D02*
X103500000Y-89750000D01*
X100000000Y-65500000D02*
X101700000Y-65500000D01*
X142500000Y-78750000D02*
X141750000Y-78000000D01*
X149500000Y-96500000D02*
X141750000Y-88750000D01*
X144700000Y-99950000D02*
X147750000Y-103000000D01*
X106555000Y-100055000D02*
X114125000Y-107625000D01*
X147750000Y-71750000D02*
X143800000Y-71750000D01*
X147750000Y-78750000D02*
X142500000Y-78750000D01*
X115500000Y-109000000D02*
X115000000Y-108500000D01*
X133700000Y-108500000D02*
X142250000Y-99950000D01*
X99500000Y-97000000D02*
X99500000Y-92000000D01*
X115000000Y-108500000D02*
X114125000Y-107625000D01*
X142250000Y-99950000D02*
X144700000Y-99950000D01*
X147750000Y-103000000D02*
X147750000Y-109250000D01*
X141750000Y-88750000D02*
X141750000Y-78000000D01*
X95500000Y-88000000D02*
X95500000Y-68250000D01*
X101750000Y-89750000D02*
X99500000Y-92000000D01*
X105250000Y-100055000D02*
X105250000Y-91500000D01*
X99500000Y-92000000D02*
X95500000Y-88000000D01*
X141750000Y-78000000D02*
X141750000Y-69700000D01*
X95500000Y-68250000D02*
X98250000Y-65500000D01*
X100000000Y-65500000D02*
X100000000Y-58750000D01*
X101700000Y-65500000D02*
X105250000Y-69050000D01*
D18*
%TO.N,/I2CConnector/INT*%
X127000000Y-76000000D02*
X129250000Y-76000000D01*
X126000000Y-77000000D02*
X127000000Y-76000000D01*
%TO.N,/PCF8575/ServoValveConnection/DRV0*%
X113250000Y-70000000D02*
X113250000Y-67250000D01*
X114250000Y-71000000D02*
X113250000Y-70000000D01*
%TO.N,/PCF8575/ServoValveConnection/DRV1*%
X111500000Y-66250000D02*
X111500000Y-70000000D01*
X111500000Y-70000000D02*
X112250000Y-70750000D01*
%TO.N,/PCF8575/ServoValveConnection1/END1*%
X128000000Y-85500000D02*
X127750000Y-85250000D01*
X127750000Y-82000000D02*
X129500000Y-80250000D01*
X127750000Y-85250000D02*
X127750000Y-82000000D01*
%TO.N,/PCF8575/ServoValveConnection1/DRV1*%
X125500000Y-87500000D02*
X123869622Y-85869622D01*
X133125000Y-80625000D02*
X131500000Y-82250000D01*
X131500000Y-86000000D02*
X130000000Y-87500000D01*
X131500000Y-82250000D02*
X131500000Y-86000000D01*
X130000000Y-87500000D02*
X125500000Y-87500000D01*
%TO.N,/PCF8575/ServoValveConnection1/END0*%
X129500000Y-86500000D02*
X129500000Y-82500000D01*
X129500000Y-82500000D02*
X131250000Y-80750000D01*
%TO.N,/PCF8575/ServoValveConnection1/DRV0*%
X129000000Y-79000000D02*
X122500000Y-85500000D01*
X133500000Y-79000000D02*
X129000000Y-79000000D01*
X122500000Y-85500000D02*
X122500000Y-86000000D01*
X133750000Y-78750000D02*
X133500000Y-79000000D01*
%TO.N,/PCF8575/ServoValveConnection2/END1*%
X149500000Y-91750000D02*
X149500000Y-92500000D01*
X146250000Y-88500000D02*
X149500000Y-91750000D01*
%TO.N,/PCF8575/ServoValveConnection3/DRV0*%
X112000000Y-92500000D02*
X113500000Y-91000000D01*
X113500000Y-91000000D02*
X113500000Y-89750000D01*
%TO.N,Net-(U6-WP)*%
X127000000Y-74500000D02*
X129500000Y-74500000D01*
X129500000Y-74500000D02*
X131000000Y-73000000D01*
%TD*%
%TA.AperFunction,Conductor*%
%TO.N,GND*%
G36*
X165101132Y-44450542D02*
G01*
X165367225Y-44460498D01*
X165577583Y-44468764D01*
X165582032Y-44469102D01*
X165835974Y-44497715D01*
X166061099Y-44524360D01*
X166065303Y-44525006D01*
X166313451Y-44571958D01*
X166538986Y-44616819D01*
X166542853Y-44617721D01*
X166785652Y-44682779D01*
X167008288Y-44745569D01*
X167011911Y-44746713D01*
X167248532Y-44829511D01*
X167466363Y-44909873D01*
X167469661Y-44911200D01*
X167698568Y-45011071D01*
X167699704Y-45011581D01*
X167910484Y-45108752D01*
X167913428Y-45110207D01*
X168134014Y-45226790D01*
X168135262Y-45227469D01*
X168338027Y-45341023D01*
X168340662Y-45342587D01*
X168546667Y-45472028D01*
X168551743Y-45475218D01*
X168553185Y-45476152D01*
X168746495Y-45605318D01*
X168748867Y-45606984D01*
X168949333Y-45754935D01*
X168950874Y-45756110D01*
X169133553Y-45900123D01*
X169135549Y-45901767D01*
X169324378Y-46064267D01*
X169326007Y-46065721D01*
X169496852Y-46223648D01*
X169498594Y-46225324D01*
X169674674Y-46401404D01*
X169676362Y-46403159D01*
X169834277Y-46573991D01*
X169835738Y-46575628D01*
X169998223Y-46764440D01*
X169999883Y-46766456D01*
X170143868Y-46949099D01*
X170145063Y-46950665D01*
X170293014Y-47151131D01*
X170294680Y-47153503D01*
X170423834Y-47346795D01*
X170424780Y-47348255D01*
X170557390Y-47559301D01*
X170558988Y-47561993D01*
X170672508Y-47764698D01*
X170673228Y-47766022D01*
X170789777Y-47986542D01*
X170791259Y-47989541D01*
X170888414Y-48200288D01*
X170888936Y-48201451D01*
X170988796Y-48430333D01*
X170990138Y-48433668D01*
X171070486Y-48651463D01*
X171153284Y-48888086D01*
X171154436Y-48891735D01*
X171217221Y-49114353D01*
X171282270Y-49357118D01*
X171283192Y-49361071D01*
X171328039Y-49586534D01*
X171374989Y-49834677D01*
X171375640Y-49838917D01*
X171402279Y-50063983D01*
X171430894Y-50317950D01*
X171431237Y-50322459D01*
X171439521Y-50533300D01*
X171449457Y-50798868D01*
X171449500Y-50801152D01*
X171449500Y-120648847D01*
X171449457Y-120651132D01*
X171440985Y-120877555D01*
X171439521Y-120916699D01*
X171431237Y-121127539D01*
X171430894Y-121132048D01*
X171402279Y-121386015D01*
X171375640Y-121611081D01*
X171374989Y-121615321D01*
X171328039Y-121863464D01*
X171283192Y-122088927D01*
X171282270Y-122092880D01*
X171217221Y-122335645D01*
X171154436Y-122558263D01*
X171153284Y-122561912D01*
X171070486Y-122798535D01*
X170990138Y-123016330D01*
X170988796Y-123019665D01*
X170888936Y-123248547D01*
X170888414Y-123249710D01*
X170791259Y-123460457D01*
X170789769Y-123463472D01*
X170673228Y-123683976D01*
X170672508Y-123685300D01*
X170558988Y-123888005D01*
X170557390Y-123890697D01*
X170424780Y-124101743D01*
X170423834Y-124103203D01*
X170294680Y-124296495D01*
X170293014Y-124298867D01*
X170145063Y-124499333D01*
X170143868Y-124500899D01*
X169999906Y-124683515D01*
X169998210Y-124685574D01*
X169835743Y-124874364D01*
X169834277Y-124876007D01*
X169676362Y-125046839D01*
X169674674Y-125048594D01*
X169498594Y-125224674D01*
X169496839Y-125226362D01*
X169326007Y-125384277D01*
X169324364Y-125385743D01*
X169135574Y-125548210D01*
X169133515Y-125549906D01*
X168950899Y-125693868D01*
X168949333Y-125695063D01*
X168748867Y-125843014D01*
X168746495Y-125844680D01*
X168553203Y-125973834D01*
X168551743Y-125974780D01*
X168340697Y-126107390D01*
X168338005Y-126108988D01*
X168135300Y-126222508D01*
X168133976Y-126223228D01*
X167913472Y-126339769D01*
X167910457Y-126341259D01*
X167699710Y-126438414D01*
X167698547Y-126438936D01*
X167469665Y-126538796D01*
X167466330Y-126540138D01*
X167248535Y-126620486D01*
X167011912Y-126703284D01*
X167008263Y-126704436D01*
X166785645Y-126767221D01*
X166542880Y-126832270D01*
X166538927Y-126833192D01*
X166313464Y-126878039D01*
X166065321Y-126924989D01*
X166061081Y-126925640D01*
X165836015Y-126952279D01*
X165582048Y-126980894D01*
X165577538Y-126981237D01*
X165366889Y-126989513D01*
X165203648Y-126995621D01*
X165101132Y-126999457D01*
X165098848Y-126999500D01*
X82551152Y-126999500D01*
X82548867Y-126999457D01*
X82441409Y-126995436D01*
X82283109Y-126989513D01*
X82072460Y-126981237D01*
X82067950Y-126980894D01*
X81813983Y-126952279D01*
X81588917Y-126925640D01*
X81584677Y-126924989D01*
X81336534Y-126878039D01*
X81111057Y-126833188D01*
X81107118Y-126832270D01*
X80864353Y-126767221D01*
X80641735Y-126704436D01*
X80638086Y-126703284D01*
X80401463Y-126620486D01*
X80183668Y-126540138D01*
X80180333Y-126538796D01*
X79951451Y-126438936D01*
X79950288Y-126438414D01*
X79739541Y-126341259D01*
X79736542Y-126339777D01*
X79601687Y-126268504D01*
X79516022Y-126223228D01*
X79514698Y-126222508D01*
X79311993Y-126108988D01*
X79309313Y-126107397D01*
X79187545Y-126030885D01*
X79098255Y-125974780D01*
X79096795Y-125973834D01*
X78903503Y-125844680D01*
X78901131Y-125843014D01*
X78700665Y-125695063D01*
X78699099Y-125693868D01*
X78516456Y-125549883D01*
X78514440Y-125548223D01*
X78325628Y-125385738D01*
X78323991Y-125384277D01*
X78153159Y-125226362D01*
X78151404Y-125224674D01*
X77975324Y-125048594D01*
X77973648Y-125046852D01*
X77815721Y-124876007D01*
X77814255Y-124874364D01*
X77651767Y-124685549D01*
X77650123Y-124683553D01*
X77506110Y-124500874D01*
X77504935Y-124499333D01*
X77356984Y-124298867D01*
X77355318Y-124296495D01*
X77226164Y-124103203D01*
X77225218Y-124101743D01*
X77222028Y-124096667D01*
X77092587Y-123890662D01*
X77091023Y-123888027D01*
X76977469Y-123685262D01*
X76976790Y-123684014D01*
X76860207Y-123463428D01*
X76858752Y-123460484D01*
X76761581Y-123249704D01*
X76761062Y-123248547D01*
X76661202Y-123019665D01*
X76659873Y-123016363D01*
X76579507Y-122798521D01*
X76496714Y-122561912D01*
X76495569Y-122558288D01*
X76432779Y-122335652D01*
X76367721Y-122092853D01*
X76366819Y-122088986D01*
X76321958Y-121863451D01*
X76275006Y-121615303D01*
X76274360Y-121611099D01*
X76247715Y-121385974D01*
X76219102Y-121132032D01*
X76218764Y-121127581D01*
X76210489Y-120916983D01*
X76200542Y-120651131D01*
X76200521Y-120650004D01*
X115134732Y-120650004D01*
X115153777Y-120904154D01*
X115205792Y-121132048D01*
X115210492Y-121152637D01*
X115303607Y-121389888D01*
X115431041Y-121610612D01*
X115589950Y-121809877D01*
X115776783Y-121983232D01*
X115987366Y-122126805D01*
X115987371Y-122126807D01*
X115987372Y-122126808D01*
X115987373Y-122126809D01*
X116109328Y-122185538D01*
X116216992Y-122237387D01*
X116216993Y-122237387D01*
X116216996Y-122237389D01*
X116460542Y-122312513D01*
X116712565Y-122350500D01*
X116967435Y-122350500D01*
X117219458Y-122312513D01*
X117463004Y-122237389D01*
X117692634Y-122126805D01*
X117903217Y-121983232D01*
X118090050Y-121809877D01*
X118248959Y-121610612D01*
X118376393Y-121389888D01*
X118469508Y-121152637D01*
X118526222Y-120904157D01*
X118545268Y-120650004D01*
X125294732Y-120650004D01*
X125313777Y-120904154D01*
X125365792Y-121132048D01*
X125370492Y-121152637D01*
X125463607Y-121389888D01*
X125591041Y-121610612D01*
X125749950Y-121809877D01*
X125936783Y-121983232D01*
X126147366Y-122126805D01*
X126147371Y-122126807D01*
X126147372Y-122126808D01*
X126147373Y-122126809D01*
X126269328Y-122185538D01*
X126376992Y-122237387D01*
X126376993Y-122237387D01*
X126376996Y-122237389D01*
X126620542Y-122312513D01*
X126872565Y-122350500D01*
X127127435Y-122350500D01*
X127379458Y-122312513D01*
X127623004Y-122237389D01*
X127852634Y-122126805D01*
X128063217Y-121983232D01*
X128250050Y-121809877D01*
X128408959Y-121610612D01*
X128536393Y-121389888D01*
X128629508Y-121152637D01*
X128686222Y-120904157D01*
X128705268Y-120650000D01*
X128686222Y-120395843D01*
X128629508Y-120147363D01*
X128536393Y-119910112D01*
X128408959Y-119689388D01*
X128250050Y-119490123D01*
X128063217Y-119316768D01*
X127852634Y-119173195D01*
X127852630Y-119173193D01*
X127852627Y-119173191D01*
X127852626Y-119173190D01*
X127623006Y-119062612D01*
X127623008Y-119062612D01*
X127379466Y-118987489D01*
X127379462Y-118987488D01*
X127379458Y-118987487D01*
X127258231Y-118969214D01*
X127127440Y-118949500D01*
X127127435Y-118949500D01*
X126872565Y-118949500D01*
X126872559Y-118949500D01*
X126715609Y-118973157D01*
X126620542Y-118987487D01*
X126620538Y-118987488D01*
X126620539Y-118987488D01*
X126620533Y-118987489D01*
X126376992Y-119062612D01*
X126147373Y-119173190D01*
X126147372Y-119173191D01*
X125936782Y-119316768D01*
X125749952Y-119490121D01*
X125749950Y-119490123D01*
X125591041Y-119689388D01*
X125463608Y-119910109D01*
X125370492Y-120147362D01*
X125370490Y-120147369D01*
X125313777Y-120395845D01*
X125294732Y-120649995D01*
X125294732Y-120650004D01*
X118545268Y-120650004D01*
X118545268Y-120650000D01*
X118526222Y-120395843D01*
X118469508Y-120147363D01*
X118376393Y-119910112D01*
X118248959Y-119689388D01*
X118090050Y-119490123D01*
X117903217Y-119316768D01*
X117692634Y-119173195D01*
X117692630Y-119173193D01*
X117692627Y-119173191D01*
X117692626Y-119173190D01*
X117463006Y-119062612D01*
X117463008Y-119062612D01*
X117219466Y-118987489D01*
X117219462Y-118987488D01*
X117219458Y-118987487D01*
X117098231Y-118969214D01*
X116967440Y-118949500D01*
X116967435Y-118949500D01*
X116712565Y-118949500D01*
X116712559Y-118949500D01*
X116555609Y-118973157D01*
X116460542Y-118987487D01*
X116460538Y-118987488D01*
X116460539Y-118987488D01*
X116460533Y-118987489D01*
X116216992Y-119062612D01*
X115987373Y-119173190D01*
X115987372Y-119173191D01*
X115776782Y-119316768D01*
X115589952Y-119490121D01*
X115589950Y-119490123D01*
X115431041Y-119689388D01*
X115303608Y-119910109D01*
X115210492Y-120147362D01*
X115210490Y-120147369D01*
X115153777Y-120395845D01*
X115134732Y-120649995D01*
X115134732Y-120650004D01*
X76200521Y-120650004D01*
X76200500Y-120648848D01*
X76200500Y-106680004D01*
X80844732Y-106680004D01*
X80863777Y-106934154D01*
X80905544Y-107117148D01*
X80920492Y-107182637D01*
X81013607Y-107419888D01*
X81141041Y-107640612D01*
X81299950Y-107839877D01*
X81486783Y-108013232D01*
X81697366Y-108156805D01*
X81697371Y-108156807D01*
X81697372Y-108156808D01*
X81697373Y-108156809D01*
X81819328Y-108215538D01*
X81926992Y-108267387D01*
X81926993Y-108267387D01*
X81926996Y-108267389D01*
X82170542Y-108342513D01*
X82422565Y-108380500D01*
X82677435Y-108380500D01*
X82929458Y-108342513D01*
X83173004Y-108267389D01*
X83402634Y-108156805D01*
X83613217Y-108013232D01*
X83800050Y-107839877D01*
X83958959Y-107640612D01*
X84086393Y-107419888D01*
X84179508Y-107182637D01*
X84236222Y-106934157D01*
X84255268Y-106680000D01*
X84236222Y-106425843D01*
X84179508Y-106177363D01*
X84086393Y-105940112D01*
X83958959Y-105719388D01*
X83800050Y-105520123D01*
X83613217Y-105346768D01*
X83402634Y-105203195D01*
X83402630Y-105203193D01*
X83402627Y-105203191D01*
X83402626Y-105203190D01*
X83173006Y-105092612D01*
X83173008Y-105092612D01*
X82929466Y-105017489D01*
X82929462Y-105017488D01*
X82929458Y-105017487D01*
X82808231Y-104999214D01*
X82677440Y-104979500D01*
X82677435Y-104979500D01*
X82422565Y-104979500D01*
X82422559Y-104979500D01*
X82285059Y-105000226D01*
X82170542Y-105017487D01*
X82170538Y-105017488D01*
X82170539Y-105017488D01*
X82170533Y-105017489D01*
X81926992Y-105092612D01*
X81697373Y-105203190D01*
X81697372Y-105203191D01*
X81486782Y-105346768D01*
X81299952Y-105520121D01*
X81299950Y-105520123D01*
X81141041Y-105719388D01*
X81013608Y-105940109D01*
X80920492Y-106177362D01*
X80920490Y-106177369D01*
X80863777Y-106425845D01*
X80844732Y-106679995D01*
X80844732Y-106680004D01*
X76200500Y-106680004D01*
X76200500Y-104542605D01*
X98795642Y-104542605D01*
X98826304Y-104709931D01*
X98826306Y-104709935D01*
X98896122Y-104865057D01*
X98944693Y-104927053D01*
X98974712Y-104965370D01*
X99101954Y-105092611D01*
X99224710Y-105215367D01*
X99238399Y-105229056D01*
X99240935Y-105231750D01*
X99282071Y-105278183D01*
X99290412Y-105283940D01*
X99307650Y-105298307D01*
X100263180Y-106253838D01*
X100296665Y-106315161D01*
X100299499Y-106341519D01*
X100299500Y-112158480D01*
X100279815Y-112225519D01*
X100263181Y-112246161D01*
X100099712Y-112409629D01*
X100021121Y-112509944D01*
X99951306Y-112665064D01*
X99951304Y-112665068D01*
X99932084Y-112769955D01*
X99920642Y-112832394D01*
X99930914Y-113002196D01*
X99981522Y-113164606D01*
X100025170Y-113236809D01*
X100069530Y-113310188D01*
X100189811Y-113430469D01*
X100189813Y-113430470D01*
X100189815Y-113430472D01*
X100335394Y-113518478D01*
X100497804Y-113569086D01*
X100667606Y-113579358D01*
X100834932Y-113548695D01*
X100990057Y-113478878D01*
X101090367Y-113400290D01*
X101479056Y-113011599D01*
X101481748Y-113009065D01*
X101528183Y-112967929D01*
X101563421Y-112916876D01*
X101565613Y-112913896D01*
X101603878Y-112865057D01*
X101608034Y-112855821D01*
X101619062Y-112836266D01*
X101624818Y-112827930D01*
X101646809Y-112769942D01*
X101648229Y-112766512D01*
X101673695Y-112709932D01*
X101675522Y-112699962D01*
X101681549Y-112678338D01*
X101685140Y-112668872D01*
X101692615Y-112607303D01*
X101693177Y-112603612D01*
X101704357Y-112542606D01*
X101702381Y-112509944D01*
X101700613Y-112480707D01*
X101700500Y-112476963D01*
X101700500Y-111760004D01*
X163394732Y-111760004D01*
X163413777Y-112014154D01*
X163446718Y-112158480D01*
X163470492Y-112262637D01*
X163563607Y-112499888D01*
X163691041Y-112720612D01*
X163849950Y-112919877D01*
X164036783Y-113093232D01*
X164247366Y-113236805D01*
X164247371Y-113236807D01*
X164247372Y-113236808D01*
X164247373Y-113236809D01*
X164369328Y-113295538D01*
X164476992Y-113347387D01*
X164476993Y-113347387D01*
X164476996Y-113347389D01*
X164720542Y-113422513D01*
X164972565Y-113460500D01*
X165227435Y-113460500D01*
X165479458Y-113422513D01*
X165723004Y-113347389D01*
X165952634Y-113236805D01*
X166163217Y-113093232D01*
X166350050Y-112919877D01*
X166508959Y-112720612D01*
X166636393Y-112499888D01*
X166729508Y-112262637D01*
X166786222Y-112014157D01*
X166805268Y-111760000D01*
X166786222Y-111505843D01*
X166729508Y-111257363D01*
X166636393Y-111020112D01*
X166508959Y-110799388D01*
X166350050Y-110600123D01*
X166163217Y-110426768D01*
X165952634Y-110283195D01*
X165952630Y-110283193D01*
X165952627Y-110283191D01*
X165952626Y-110283190D01*
X165723006Y-110172612D01*
X165723008Y-110172612D01*
X165479466Y-110097489D01*
X165479462Y-110097488D01*
X165479458Y-110097487D01*
X165358231Y-110079214D01*
X165227440Y-110059500D01*
X165227435Y-110059500D01*
X164972565Y-110059500D01*
X164972559Y-110059500D01*
X164815609Y-110083157D01*
X164720542Y-110097487D01*
X164720538Y-110097488D01*
X164720539Y-110097488D01*
X164720533Y-110097489D01*
X164476992Y-110172612D01*
X164247373Y-110283190D01*
X164247372Y-110283191D01*
X164036782Y-110426768D01*
X163849952Y-110600121D01*
X163849950Y-110600123D01*
X163691041Y-110799388D01*
X163563608Y-111020109D01*
X163470492Y-111257362D01*
X163470490Y-111257369D01*
X163413777Y-111505845D01*
X163394732Y-111759995D01*
X163394732Y-111760004D01*
X101700500Y-111760004D01*
X101700500Y-106023047D01*
X101700613Y-106019302D01*
X101704358Y-105957394D01*
X101693175Y-105896371D01*
X101692613Y-105892674D01*
X101690618Y-105876251D01*
X101685140Y-105831128D01*
X101681548Y-105821656D01*
X101675521Y-105800034D01*
X101673695Y-105790071D01*
X101673695Y-105790069D01*
X101648223Y-105733474D01*
X101646812Y-105730065D01*
X101624818Y-105672070D01*
X101619063Y-105663733D01*
X101608036Y-105644182D01*
X101600800Y-105628104D01*
X101603066Y-105627083D01*
X101588281Y-105571106D01*
X101609793Y-105504631D01*
X101663830Y-105460338D01*
X101712235Y-105450500D01*
X105292374Y-105450500D01*
X105334538Y-105445380D01*
X105418872Y-105435140D01*
X105577930Y-105374818D01*
X105717929Y-105278183D01*
X105830734Y-105150852D01*
X105909790Y-105000225D01*
X105950500Y-104835056D01*
X105950500Y-104664944D01*
X105909790Y-104499775D01*
X105875892Y-104435188D01*
X105830736Y-104349150D01*
X105811560Y-104327505D01*
X105717929Y-104221817D01*
X105668177Y-104187475D01*
X105577931Y-104125182D01*
X105418874Y-104064860D01*
X105418868Y-104064859D01*
X105292374Y-104049500D01*
X105292372Y-104049500D01*
X100091519Y-104049500D01*
X100024480Y-104029815D01*
X100003837Y-104013180D01*
X99965370Y-103974712D01*
X99926843Y-103944528D01*
X99865057Y-103896122D01*
X99777071Y-103856522D01*
X99709935Y-103826306D01*
X99709931Y-103826304D01*
X99542607Y-103795642D01*
X99542603Y-103795642D01*
X99415254Y-103803346D01*
X99372804Y-103805914D01*
X99291598Y-103831217D01*
X99210393Y-103856522D01*
X99064811Y-103944530D01*
X98944530Y-104064811D01*
X98856522Y-104210393D01*
X98831839Y-104289606D01*
X98813286Y-104349148D01*
X98805914Y-104372805D01*
X98795642Y-104542603D01*
X98795642Y-104542605D01*
X76200500Y-104542605D01*
X76200500Y-101600004D01*
X80844732Y-101600004D01*
X80863777Y-101854154D01*
X80908363Y-102049500D01*
X80920492Y-102102637D01*
X81013607Y-102339888D01*
X81141041Y-102560612D01*
X81299950Y-102759877D01*
X81486783Y-102933232D01*
X81697366Y-103076805D01*
X81697371Y-103076807D01*
X81697372Y-103076808D01*
X81697373Y-103076809D01*
X81819328Y-103135538D01*
X81926992Y-103187387D01*
X81926993Y-103187387D01*
X81926996Y-103187389D01*
X82170542Y-103262513D01*
X82422565Y-103300500D01*
X82677435Y-103300500D01*
X82929458Y-103262513D01*
X83173004Y-103187389D01*
X83402634Y-103076805D01*
X83613217Y-102933232D01*
X83800050Y-102759877D01*
X83958959Y-102560612D01*
X84086393Y-102339888D01*
X84179508Y-102102637D01*
X84236222Y-101854157D01*
X84246431Y-101717929D01*
X84255268Y-101600004D01*
X84255268Y-101599995D01*
X84236222Y-101345845D01*
X84224070Y-101292604D01*
X84179508Y-101097363D01*
X84086393Y-100860112D01*
X83958959Y-100639388D01*
X83800050Y-100440123D01*
X83613217Y-100266768D01*
X83402634Y-100123195D01*
X83402630Y-100123193D01*
X83402627Y-100123191D01*
X83402626Y-100123190D01*
X83173006Y-100012612D01*
X83173008Y-100012612D01*
X82929466Y-99937489D01*
X82929462Y-99937488D01*
X82929458Y-99937487D01*
X82808231Y-99919214D01*
X82677440Y-99899500D01*
X82677435Y-99899500D01*
X82422565Y-99899500D01*
X82422559Y-99899500D01*
X82265609Y-99923157D01*
X82170542Y-99937487D01*
X82170538Y-99937488D01*
X82170539Y-99937488D01*
X82170533Y-99937489D01*
X81926992Y-100012612D01*
X81697373Y-100123190D01*
X81697372Y-100123191D01*
X81486782Y-100266768D01*
X81299952Y-100440121D01*
X81299950Y-100440123D01*
X81141041Y-100639388D01*
X81013608Y-100860109D01*
X80920492Y-101097362D01*
X80920490Y-101097369D01*
X80863777Y-101345845D01*
X80844732Y-101599995D01*
X80844732Y-101600004D01*
X76200500Y-101600004D01*
X76200500Y-96520004D01*
X80844732Y-96520004D01*
X80863777Y-96774154D01*
X80908211Y-96968834D01*
X80920492Y-97022637D01*
X81013607Y-97259888D01*
X81141041Y-97480612D01*
X81299950Y-97679877D01*
X81486783Y-97853232D01*
X81697366Y-97996805D01*
X81697371Y-97996807D01*
X81697372Y-97996808D01*
X81697373Y-97996809D01*
X81819328Y-98055538D01*
X81926992Y-98107387D01*
X81926993Y-98107387D01*
X81926996Y-98107389D01*
X82170542Y-98182513D01*
X82422565Y-98220500D01*
X82677435Y-98220500D01*
X82929458Y-98182513D01*
X83173004Y-98107389D01*
X83402634Y-97996805D01*
X83613217Y-97853232D01*
X83800050Y-97679877D01*
X83958959Y-97480612D01*
X84086393Y-97259888D01*
X84179508Y-97022637D01*
X84236222Y-96774157D01*
X84255041Y-96523035D01*
X84255268Y-96520004D01*
X84255268Y-96519995D01*
X84238784Y-96300029D01*
X84236222Y-96265843D01*
X84179508Y-96017363D01*
X84086393Y-95780112D01*
X83958959Y-95559388D01*
X83800050Y-95360123D01*
X83613217Y-95186768D01*
X83402634Y-95043195D01*
X83402630Y-95043193D01*
X83402627Y-95043191D01*
X83402626Y-95043190D01*
X83173006Y-94932612D01*
X83173008Y-94932612D01*
X82929466Y-94857489D01*
X82929462Y-94857488D01*
X82929458Y-94857487D01*
X82808231Y-94839214D01*
X82677440Y-94819500D01*
X82677435Y-94819500D01*
X82422565Y-94819500D01*
X82422559Y-94819500D01*
X82265609Y-94843157D01*
X82170542Y-94857487D01*
X82170538Y-94857488D01*
X82170539Y-94857488D01*
X82170533Y-94857489D01*
X81926992Y-94932612D01*
X81697373Y-95043190D01*
X81697372Y-95043191D01*
X81486782Y-95186768D01*
X81299952Y-95360121D01*
X81299950Y-95360123D01*
X81141041Y-95559388D01*
X81013608Y-95780109D01*
X80920492Y-96017362D01*
X80920490Y-96017369D01*
X80863777Y-96265845D01*
X80844732Y-96519995D01*
X80844732Y-96520004D01*
X76200500Y-96520004D01*
X76200500Y-91440004D01*
X80844732Y-91440004D01*
X80863777Y-91694154D01*
X80915367Y-91920186D01*
X80920492Y-91942637D01*
X81013607Y-92179888D01*
X81141041Y-92400612D01*
X81299950Y-92599877D01*
X81486783Y-92773232D01*
X81697366Y-92916805D01*
X81697371Y-92916807D01*
X81697372Y-92916808D01*
X81697373Y-92916809D01*
X81819328Y-92975538D01*
X81926992Y-93027387D01*
X81926993Y-93027387D01*
X81926996Y-93027389D01*
X82170542Y-93102513D01*
X82422565Y-93140500D01*
X82677435Y-93140500D01*
X82929458Y-93102513D01*
X83173004Y-93027389D01*
X83402634Y-92916805D01*
X83613217Y-92773232D01*
X83800050Y-92599877D01*
X83958959Y-92400612D01*
X84086393Y-92179888D01*
X84179508Y-91942637D01*
X84236222Y-91694157D01*
X84247511Y-91543516D01*
X84255268Y-91440004D01*
X84255268Y-91439995D01*
X84236222Y-91185845D01*
X84230803Y-91162104D01*
X84179508Y-90937363D01*
X84086393Y-90700112D01*
X83958959Y-90479388D01*
X83800050Y-90280123D01*
X83613217Y-90106768D01*
X83402634Y-89963195D01*
X83402630Y-89963193D01*
X83402627Y-89963191D01*
X83402626Y-89963190D01*
X83173006Y-89852612D01*
X83173008Y-89852612D01*
X82929466Y-89777489D01*
X82929462Y-89777488D01*
X82929458Y-89777487D01*
X82808231Y-89759214D01*
X82677440Y-89739500D01*
X82677435Y-89739500D01*
X82422565Y-89739500D01*
X82422559Y-89739500D01*
X82265609Y-89763157D01*
X82170542Y-89777487D01*
X82170538Y-89777488D01*
X82170539Y-89777488D01*
X82170533Y-89777489D01*
X81926992Y-89852612D01*
X81697373Y-89963190D01*
X81697372Y-89963191D01*
X81486782Y-90106768D01*
X81299952Y-90280121D01*
X81299950Y-90280123D01*
X81141041Y-90479388D01*
X81013608Y-90700109D01*
X80920492Y-90937362D01*
X80920490Y-90937369D01*
X80863777Y-91185845D01*
X80844732Y-91439995D01*
X80844732Y-91440004D01*
X76200500Y-91440004D01*
X76200500Y-88042605D01*
X94795642Y-88042605D01*
X94806821Y-88103612D01*
X94807384Y-88107313D01*
X94814859Y-88168870D01*
X94814860Y-88168874D01*
X94818451Y-88178343D01*
X94824474Y-88199946D01*
X94826304Y-88209930D01*
X94851759Y-88266490D01*
X94853189Y-88269941D01*
X94875182Y-88327930D01*
X94875183Y-88327931D01*
X94880936Y-88336266D01*
X94891961Y-88355813D01*
X94896120Y-88365055D01*
X94896122Y-88365057D01*
X94930142Y-88408481D01*
X94934371Y-88413878D01*
X94936591Y-88416896D01*
X94971812Y-88467924D01*
X94971816Y-88467928D01*
X94971817Y-88467929D01*
X95018250Y-88509064D01*
X95020941Y-88511598D01*
X96905042Y-90395699D01*
X98763181Y-92253838D01*
X98796666Y-92315161D01*
X98799500Y-92341519D01*
X98799500Y-97042374D01*
X98814859Y-97168868D01*
X98814860Y-97168874D01*
X98875182Y-97327931D01*
X98906156Y-97372804D01*
X98971817Y-97467929D01*
X99056108Y-97542604D01*
X99099150Y-97580736D01*
X99249773Y-97659789D01*
X99249775Y-97659790D01*
X99414944Y-97700500D01*
X99585056Y-97700500D01*
X99750225Y-97659790D01*
X99886366Y-97588337D01*
X99900849Y-97580736D01*
X99900850Y-97580734D01*
X99900852Y-97580734D01*
X100028183Y-97467929D01*
X100124818Y-97327930D01*
X100185140Y-97168872D01*
X100197769Y-97064861D01*
X100200500Y-97042374D01*
X100200500Y-92341518D01*
X100220185Y-92274479D01*
X100236819Y-92253837D01*
X102003837Y-90486819D01*
X102065160Y-90453334D01*
X102091518Y-90450500D01*
X103158481Y-90450500D01*
X103225520Y-90470185D01*
X103246162Y-90486819D01*
X104513181Y-91753838D01*
X104546666Y-91815161D01*
X104549500Y-91841519D01*
X104549500Y-100140058D01*
X104558816Y-100177855D01*
X104560166Y-100185223D01*
X104564859Y-100223869D01*
X104564861Y-100223876D01*
X104578665Y-100260276D01*
X104580894Y-100267429D01*
X104590209Y-100305221D01*
X104590210Y-100305226D01*
X104608299Y-100339693D01*
X104611374Y-100346524D01*
X104625182Y-100382931D01*
X104625183Y-100382933D01*
X104647300Y-100414974D01*
X104651177Y-100421387D01*
X104669263Y-100455848D01*
X104669265Y-100455851D01*
X104695075Y-100484986D01*
X104699695Y-100490882D01*
X104721814Y-100522925D01*
X104721821Y-100522933D01*
X104750955Y-100548743D01*
X104756255Y-100554042D01*
X104782073Y-100583185D01*
X104814111Y-100605299D01*
X104820005Y-100609916D01*
X104832685Y-100621150D01*
X104849145Y-100635732D01*
X104849151Y-100635736D01*
X104883614Y-100653823D01*
X104890018Y-100657694D01*
X104922070Y-100679818D01*
X104958484Y-100693627D01*
X104965283Y-100696687D01*
X104999775Y-100714790D01*
X104999777Y-100714790D01*
X104999778Y-100714791D01*
X105006914Y-100716549D01*
X105037590Y-100724110D01*
X105044712Y-100726329D01*
X105081128Y-100740140D01*
X105100572Y-100742500D01*
X105119773Y-100744832D01*
X105127140Y-100746181D01*
X105151369Y-100752153D01*
X105164943Y-100755500D01*
X105164944Y-100755500D01*
X105207628Y-100755500D01*
X106213481Y-100755500D01*
X106280520Y-100775185D01*
X106301162Y-100791819D01*
X113599710Y-108090367D01*
X114474710Y-108965367D01*
X114488399Y-108979056D01*
X114490935Y-108981750D01*
X114532071Y-109028183D01*
X114540412Y-109033940D01*
X114557650Y-109048307D01*
X115034619Y-109525277D01*
X115034625Y-109525282D01*
X115034633Y-109525290D01*
X115134944Y-109603878D01*
X115290069Y-109673695D01*
X115457394Y-109704358D01*
X115627196Y-109694086D01*
X115789606Y-109643478D01*
X115935185Y-109555472D01*
X116055472Y-109435185D01*
X116143478Y-109289606D01*
X116144098Y-109287613D01*
X116144949Y-109286336D01*
X116146557Y-109282765D01*
X116147150Y-109283032D01*
X116182833Y-109229465D01*
X116246857Y-109201489D01*
X116262485Y-109200500D01*
X133676952Y-109200500D01*
X133680697Y-109200613D01*
X133688042Y-109201057D01*
X133742606Y-109204358D01*
X133780314Y-109197447D01*
X133803621Y-109193177D01*
X133807325Y-109192613D01*
X133825170Y-109190446D01*
X133868872Y-109185140D01*
X133878335Y-109181550D01*
X133899961Y-109175522D01*
X133900893Y-109175351D01*
X133909932Y-109173695D01*
X133966512Y-109148229D01*
X133969942Y-109146809D01*
X134027930Y-109124818D01*
X134036266Y-109119062D01*
X134055821Y-109108034D01*
X134065057Y-109103878D01*
X134113896Y-109065613D01*
X134116876Y-109063421D01*
X134167929Y-109028183D01*
X134209065Y-108981748D01*
X134211599Y-108979056D01*
X142503837Y-100686819D01*
X142565161Y-100653334D01*
X142591519Y-100650500D01*
X144358481Y-100650500D01*
X144425520Y-100670185D01*
X144446162Y-100686819D01*
X147013181Y-103253838D01*
X147046666Y-103315161D01*
X147049500Y-103341519D01*
X147049500Y-109292374D01*
X147064859Y-109418868D01*
X147064860Y-109418874D01*
X147125182Y-109577931D01*
X147170426Y-109643477D01*
X147221817Y-109717929D01*
X147327505Y-109811560D01*
X147349150Y-109830736D01*
X147499773Y-109909789D01*
X147499775Y-109909790D01*
X147664944Y-109950500D01*
X147835056Y-109950500D01*
X148000225Y-109909790D01*
X148079692Y-109868081D01*
X148150849Y-109830736D01*
X148150850Y-109830734D01*
X148150852Y-109830734D01*
X148278183Y-109717929D01*
X148374818Y-109577930D01*
X148435140Y-109418872D01*
X148450500Y-109292372D01*
X148450500Y-106680004D01*
X163394732Y-106680004D01*
X163413777Y-106934154D01*
X163455544Y-107117148D01*
X163470492Y-107182637D01*
X163563607Y-107419888D01*
X163691041Y-107640612D01*
X163849950Y-107839877D01*
X164036783Y-108013232D01*
X164247366Y-108156805D01*
X164247371Y-108156807D01*
X164247372Y-108156808D01*
X164247373Y-108156809D01*
X164369328Y-108215538D01*
X164476992Y-108267387D01*
X164476993Y-108267387D01*
X164476996Y-108267389D01*
X164720542Y-108342513D01*
X164972565Y-108380500D01*
X165227435Y-108380500D01*
X165479458Y-108342513D01*
X165723004Y-108267389D01*
X165952634Y-108156805D01*
X166163217Y-108013232D01*
X166350050Y-107839877D01*
X166508959Y-107640612D01*
X166636393Y-107419888D01*
X166729508Y-107182637D01*
X166786222Y-106934157D01*
X166805268Y-106680000D01*
X166786222Y-106425843D01*
X166729508Y-106177363D01*
X166636393Y-105940112D01*
X166508959Y-105719388D01*
X166350050Y-105520123D01*
X166163217Y-105346768D01*
X165952634Y-105203195D01*
X165952630Y-105203193D01*
X165952627Y-105203191D01*
X165952626Y-105203190D01*
X165723006Y-105092612D01*
X165723008Y-105092612D01*
X165479466Y-105017489D01*
X165479462Y-105017488D01*
X165479458Y-105017487D01*
X165358231Y-104999214D01*
X165227440Y-104979500D01*
X165227435Y-104979500D01*
X164972565Y-104979500D01*
X164972559Y-104979500D01*
X164835059Y-105000226D01*
X164720542Y-105017487D01*
X164720538Y-105017488D01*
X164720539Y-105017488D01*
X164720533Y-105017489D01*
X164476992Y-105092612D01*
X164247373Y-105203190D01*
X164247372Y-105203191D01*
X164036782Y-105346768D01*
X163849952Y-105520121D01*
X163849950Y-105520123D01*
X163691041Y-105719388D01*
X163563608Y-105940109D01*
X163470492Y-106177362D01*
X163470490Y-106177369D01*
X163413777Y-106425845D01*
X163394732Y-106679995D01*
X163394732Y-106680004D01*
X148450500Y-106680004D01*
X148450500Y-103341516D01*
X148470185Y-103274478D01*
X148486814Y-103253841D01*
X149979056Y-101761599D01*
X149981748Y-101759065D01*
X150028183Y-101717929D01*
X150063417Y-101666883D01*
X150065620Y-101663887D01*
X150103878Y-101615056D01*
X150108037Y-101605813D01*
X150111313Y-101600004D01*
X163394732Y-101600004D01*
X163413777Y-101854154D01*
X163458363Y-102049500D01*
X163470492Y-102102637D01*
X163563607Y-102339888D01*
X163691041Y-102560612D01*
X163849950Y-102759877D01*
X164036783Y-102933232D01*
X164247366Y-103076805D01*
X164247371Y-103076807D01*
X164247372Y-103076808D01*
X164247373Y-103076809D01*
X164369328Y-103135538D01*
X164476992Y-103187387D01*
X164476993Y-103187387D01*
X164476996Y-103187389D01*
X164720542Y-103262513D01*
X164972565Y-103300500D01*
X165227435Y-103300500D01*
X165479458Y-103262513D01*
X165723004Y-103187389D01*
X165952634Y-103076805D01*
X166163217Y-102933232D01*
X166350050Y-102759877D01*
X166508959Y-102560612D01*
X166636393Y-102339888D01*
X166729508Y-102102637D01*
X166786222Y-101854157D01*
X166796431Y-101717929D01*
X166805268Y-101600004D01*
X166805268Y-101599995D01*
X166786222Y-101345845D01*
X166774070Y-101292604D01*
X166729508Y-101097363D01*
X166636393Y-100860112D01*
X166508959Y-100639388D01*
X166350050Y-100440123D01*
X166163217Y-100266768D01*
X165952634Y-100123195D01*
X165952630Y-100123193D01*
X165952627Y-100123191D01*
X165952626Y-100123190D01*
X165723006Y-100012612D01*
X165723008Y-100012612D01*
X165479466Y-99937489D01*
X165479462Y-99937488D01*
X165479458Y-99937487D01*
X165358231Y-99919214D01*
X165227440Y-99899500D01*
X165227435Y-99899500D01*
X164972565Y-99899500D01*
X164972559Y-99899500D01*
X164815609Y-99923157D01*
X164720542Y-99937487D01*
X164720538Y-99937488D01*
X164720539Y-99937488D01*
X164720533Y-99937489D01*
X164476992Y-100012612D01*
X164247373Y-100123190D01*
X164247372Y-100123191D01*
X164036782Y-100266768D01*
X163849952Y-100440121D01*
X163849950Y-100440123D01*
X163691041Y-100639388D01*
X163563608Y-100860109D01*
X163470492Y-101097362D01*
X163470490Y-101097369D01*
X163413777Y-101345845D01*
X163394732Y-101599995D01*
X163394732Y-101600004D01*
X150111313Y-101600004D01*
X150119061Y-101586268D01*
X150124818Y-101577930D01*
X150146810Y-101519939D01*
X150148232Y-101516503D01*
X150173695Y-101459931D01*
X150175522Y-101449959D01*
X150181546Y-101428347D01*
X150185140Y-101418872D01*
X150192613Y-101357324D01*
X150193177Y-101353619D01*
X150196535Y-101335289D01*
X150204358Y-101292606D01*
X150200613Y-101230696D01*
X150200500Y-101226951D01*
X150200500Y-96523035D01*
X150200591Y-96520004D01*
X163394732Y-96520004D01*
X163413777Y-96774154D01*
X163458211Y-96968834D01*
X163470492Y-97022637D01*
X163563607Y-97259888D01*
X163691041Y-97480612D01*
X163849950Y-97679877D01*
X164036783Y-97853232D01*
X164247366Y-97996805D01*
X164247371Y-97996807D01*
X164247372Y-97996808D01*
X164247373Y-97996809D01*
X164369328Y-98055538D01*
X164476992Y-98107387D01*
X164476993Y-98107387D01*
X164476996Y-98107389D01*
X164720542Y-98182513D01*
X164972565Y-98220500D01*
X165227435Y-98220500D01*
X165479458Y-98182513D01*
X165723004Y-98107389D01*
X165952634Y-97996805D01*
X166163217Y-97853232D01*
X166350050Y-97679877D01*
X166508959Y-97480612D01*
X166636393Y-97259888D01*
X166729508Y-97022637D01*
X166786222Y-96774157D01*
X166805041Y-96523035D01*
X166805268Y-96520004D01*
X166805268Y-96519995D01*
X166788784Y-96300029D01*
X166786222Y-96265843D01*
X166729508Y-96017363D01*
X166636393Y-95780112D01*
X166508959Y-95559388D01*
X166350050Y-95360123D01*
X166163217Y-95186768D01*
X165952634Y-95043195D01*
X165952630Y-95043193D01*
X165952627Y-95043191D01*
X165952626Y-95043190D01*
X165723006Y-94932612D01*
X165723008Y-94932612D01*
X165479466Y-94857489D01*
X165479462Y-94857488D01*
X165479458Y-94857487D01*
X165358231Y-94839214D01*
X165227440Y-94819500D01*
X165227435Y-94819500D01*
X164972565Y-94819500D01*
X164972559Y-94819500D01*
X164815609Y-94843157D01*
X164720542Y-94857487D01*
X164720538Y-94857488D01*
X164720539Y-94857488D01*
X164720533Y-94857489D01*
X164476992Y-94932612D01*
X164247373Y-95043190D01*
X164247372Y-95043191D01*
X164036782Y-95186768D01*
X163849952Y-95360121D01*
X163849950Y-95360123D01*
X163691041Y-95559388D01*
X163563608Y-95780109D01*
X163470492Y-96017362D01*
X163470490Y-96017369D01*
X163413777Y-96265845D01*
X163394732Y-96519995D01*
X163394732Y-96520004D01*
X150200591Y-96520004D01*
X150200613Y-96519290D01*
X150204357Y-96457394D01*
X150193177Y-96396386D01*
X150192615Y-96392689D01*
X150185140Y-96331129D01*
X150185139Y-96331125D01*
X150181546Y-96321651D01*
X150175519Y-96300029D01*
X150173694Y-96290070D01*
X150173694Y-96290068D01*
X150148241Y-96233514D01*
X150146807Y-96230052D01*
X150124818Y-96172071D01*
X150124818Y-96172070D01*
X150119058Y-96163726D01*
X150108035Y-96144180D01*
X150103878Y-96134943D01*
X150065617Y-96086107D01*
X150063417Y-96083117D01*
X150046786Y-96059021D01*
X150028185Y-96032073D01*
X150028183Y-96032071D01*
X149981750Y-95990935D01*
X149979056Y-95988399D01*
X142490657Y-88500000D01*
X145694750Y-88500000D01*
X145713670Y-88643708D01*
X145713671Y-88643712D01*
X145769137Y-88777622D01*
X145769138Y-88777624D01*
X145769139Y-88777625D01*
X145857379Y-88892621D01*
X145972375Y-88980861D01*
X146106291Y-89036330D01*
X146250000Y-89055250D01*
X146258129Y-89055250D01*
X146258129Y-89058828D01*
X146310970Y-89067031D01*
X146345878Y-89091560D01*
X149113181Y-91858863D01*
X149146666Y-91920186D01*
X149149500Y-91946544D01*
X149149500Y-92013908D01*
X149129815Y-92080947D01*
X149111913Y-92100412D01*
X149113129Y-92101628D01*
X149107384Y-92107372D01*
X149019137Y-92222377D01*
X148963671Y-92356287D01*
X148963670Y-92356291D01*
X148944750Y-92500000D01*
X148957899Y-92599878D01*
X148963670Y-92643708D01*
X148963671Y-92643712D01*
X149019137Y-92777622D01*
X149019138Y-92777624D01*
X149019139Y-92777625D01*
X149107379Y-92892621D01*
X149222375Y-92980861D01*
X149356291Y-93036330D01*
X149483280Y-93053048D01*
X149499999Y-93055250D01*
X149500000Y-93055250D01*
X149500001Y-93055250D01*
X149514977Y-93053278D01*
X149643709Y-93036330D01*
X149777625Y-92980861D01*
X149892621Y-92892621D01*
X149980861Y-92777625D01*
X150036330Y-92643709D01*
X150055250Y-92500000D01*
X150036330Y-92356291D01*
X149980861Y-92222375D01*
X149892621Y-92107379D01*
X149892619Y-92107377D01*
X149892615Y-92107372D01*
X149886871Y-92101628D01*
X149889387Y-92099111D01*
X149857797Y-92055817D01*
X149850500Y-92013908D01*
X149850500Y-91799211D01*
X149853139Y-91773764D01*
X149855043Y-91764685D01*
X149853270Y-91750463D01*
X149850977Y-91732061D01*
X149850500Y-91724385D01*
X149850500Y-91720962D01*
X149850500Y-91720960D01*
X149847118Y-91700699D01*
X149846754Y-91698190D01*
X149840573Y-91648607D01*
X149838477Y-91641568D01*
X149836091Y-91634616D01*
X149812317Y-91590688D01*
X149811157Y-91588437D01*
X149797949Y-91561418D01*
X149789200Y-91543519D01*
X149784919Y-91537524D01*
X149780420Y-91531744D01*
X149772529Y-91524480D01*
X149743642Y-91497887D01*
X149741820Y-91496138D01*
X146841560Y-88595878D01*
X146808075Y-88534555D01*
X146806983Y-88508129D01*
X146805250Y-88508129D01*
X146805250Y-88500000D01*
X146804745Y-88496162D01*
X146786330Y-88356291D01*
X146730861Y-88222375D01*
X146642621Y-88107379D01*
X146527625Y-88019139D01*
X146527624Y-88019138D01*
X146527622Y-88019137D01*
X146393712Y-87963671D01*
X146393710Y-87963670D01*
X146393709Y-87963670D01*
X146321854Y-87954210D01*
X146250001Y-87944750D01*
X146249999Y-87944750D01*
X146106291Y-87963670D01*
X146106287Y-87963671D01*
X145972377Y-88019137D01*
X145857379Y-88107379D01*
X145769137Y-88222377D01*
X145713671Y-88356287D01*
X145713670Y-88356291D01*
X145694750Y-88499999D01*
X145694750Y-88500000D01*
X142490657Y-88500000D01*
X142486819Y-88496162D01*
X142453334Y-88434839D01*
X142450500Y-88408481D01*
X142450500Y-80010004D01*
X163394732Y-80010004D01*
X163413777Y-80264154D01*
X163463336Y-80481287D01*
X163470492Y-80512637D01*
X163563607Y-80749888D01*
X163691041Y-80970612D01*
X163849950Y-81169877D01*
X164036783Y-81343232D01*
X164247366Y-81486805D01*
X164247371Y-81486807D01*
X164247372Y-81486808D01*
X164247373Y-81486809D01*
X164312558Y-81518200D01*
X164476992Y-81597387D01*
X164476993Y-81597387D01*
X164476996Y-81597389D01*
X164720542Y-81672513D01*
X164972565Y-81710500D01*
X165227435Y-81710500D01*
X165479458Y-81672513D01*
X165723004Y-81597389D01*
X165952634Y-81486805D01*
X166163217Y-81343232D01*
X166350050Y-81169877D01*
X166508959Y-80970612D01*
X166636393Y-80749888D01*
X166729508Y-80512637D01*
X166786222Y-80264157D01*
X166798052Y-80106291D01*
X166805268Y-80010004D01*
X166805268Y-80009995D01*
X166786222Y-79755845D01*
X166776596Y-79713671D01*
X166729508Y-79507363D01*
X166636393Y-79270112D01*
X166508959Y-79049388D01*
X166350050Y-78850123D01*
X166163217Y-78676768D01*
X165952634Y-78533195D01*
X165952630Y-78533193D01*
X165952627Y-78533191D01*
X165952626Y-78533190D01*
X165723006Y-78422612D01*
X165723008Y-78422612D01*
X165479466Y-78347489D01*
X165479462Y-78347488D01*
X165479458Y-78347487D01*
X165358231Y-78329214D01*
X165227440Y-78309500D01*
X165227435Y-78309500D01*
X164972565Y-78309500D01*
X164972559Y-78309500D01*
X164815926Y-78333110D01*
X164720542Y-78347487D01*
X164720538Y-78347488D01*
X164720539Y-78347488D01*
X164720533Y-78347489D01*
X164476992Y-78422612D01*
X164247373Y-78533190D01*
X164247372Y-78533191D01*
X164247366Y-78533194D01*
X164247366Y-78533195D01*
X164237285Y-78540068D01*
X164036782Y-78676768D01*
X163849952Y-78850121D01*
X163849950Y-78850123D01*
X163691041Y-79049388D01*
X163563608Y-79270109D01*
X163470492Y-79507362D01*
X163470490Y-79507369D01*
X163413777Y-79755845D01*
X163394732Y-80009995D01*
X163394732Y-80010004D01*
X142450500Y-80010004D01*
X142450500Y-79574500D01*
X142470185Y-79507461D01*
X142522989Y-79461706D01*
X142574500Y-79450500D01*
X147792374Y-79450500D01*
X147834538Y-79445380D01*
X147918872Y-79435140D01*
X148077930Y-79374818D01*
X148217929Y-79278183D01*
X148330734Y-79150852D01*
X148409790Y-79000225D01*
X148450500Y-78835056D01*
X148450500Y-78664944D01*
X148409790Y-78499775D01*
X148385416Y-78453334D01*
X148330736Y-78349150D01*
X148311560Y-78327505D01*
X148217929Y-78221817D01*
X148168177Y-78187475D01*
X148077931Y-78125182D01*
X147918874Y-78064860D01*
X147918868Y-78064859D01*
X147792374Y-78049500D01*
X147792372Y-78049500D01*
X142841519Y-78049500D01*
X142774480Y-78029815D01*
X142753838Y-78013181D01*
X142486819Y-77746162D01*
X142453334Y-77684839D01*
X142450500Y-77658481D01*
X142450500Y-74930004D01*
X163394732Y-74930004D01*
X163413777Y-75184154D01*
X163413778Y-75184157D01*
X163470492Y-75432637D01*
X163560780Y-75662686D01*
X163563608Y-75669890D01*
X163589696Y-75715075D01*
X163691041Y-75890612D01*
X163849950Y-76089877D01*
X164036783Y-76263232D01*
X164247366Y-76406805D01*
X164247371Y-76406807D01*
X164247372Y-76406808D01*
X164247373Y-76406809D01*
X164340550Y-76451680D01*
X164476992Y-76517387D01*
X164476993Y-76517387D01*
X164476996Y-76517389D01*
X164720542Y-76592513D01*
X164972565Y-76630500D01*
X165227435Y-76630500D01*
X165479458Y-76592513D01*
X165723004Y-76517389D01*
X165949239Y-76408440D01*
X165952626Y-76406809D01*
X165952626Y-76406808D01*
X165952634Y-76406805D01*
X166163217Y-76263232D01*
X166350050Y-76089877D01*
X166508959Y-75890612D01*
X166636393Y-75669888D01*
X166729508Y-75432637D01*
X166786222Y-75184157D01*
X166805268Y-74930000D01*
X166802466Y-74892615D01*
X166786222Y-74675845D01*
X166778887Y-74643709D01*
X166729508Y-74427363D01*
X166636393Y-74190112D01*
X166508959Y-73969388D01*
X166350050Y-73770123D01*
X166163217Y-73596768D01*
X165952634Y-73453195D01*
X165952630Y-73453193D01*
X165952627Y-73453191D01*
X165952626Y-73453190D01*
X165723006Y-73342612D01*
X165723008Y-73342612D01*
X165479466Y-73267489D01*
X165479462Y-73267488D01*
X165479458Y-73267487D01*
X165358231Y-73249214D01*
X165227440Y-73229500D01*
X165227435Y-73229500D01*
X164972565Y-73229500D01*
X164972559Y-73229500D01*
X164815609Y-73253157D01*
X164720542Y-73267487D01*
X164720538Y-73267488D01*
X164720539Y-73267488D01*
X164720533Y-73267489D01*
X164476992Y-73342612D01*
X164247373Y-73453190D01*
X164247372Y-73453191D01*
X164036782Y-73596768D01*
X163849952Y-73770121D01*
X163849950Y-73770123D01*
X163691041Y-73969388D01*
X163563608Y-74190109D01*
X163470492Y-74427362D01*
X163470490Y-74427369D01*
X163413777Y-74675845D01*
X163394732Y-74929995D01*
X163394732Y-74930004D01*
X142450500Y-74930004D01*
X142450500Y-71690518D01*
X142470185Y-71623479D01*
X142522989Y-71577724D01*
X142592147Y-71567780D01*
X142655703Y-71596805D01*
X142662177Y-71602833D01*
X143288399Y-72229056D01*
X143290935Y-72231750D01*
X143332071Y-72278183D01*
X143383130Y-72313427D01*
X143386112Y-72315621D01*
X143434944Y-72353878D01*
X143434947Y-72353880D01*
X143434946Y-72353880D01*
X143444177Y-72358034D01*
X143463731Y-72369062D01*
X143472066Y-72374816D01*
X143472068Y-72374816D01*
X143472070Y-72374818D01*
X143530079Y-72396817D01*
X143533476Y-72398224D01*
X143580770Y-72419509D01*
X143590064Y-72423693D01*
X143590065Y-72423693D01*
X143590069Y-72423695D01*
X143600034Y-72425521D01*
X143621656Y-72431548D01*
X143624777Y-72432731D01*
X143631128Y-72435140D01*
X143676251Y-72440618D01*
X143692674Y-72442613D01*
X143696371Y-72443175D01*
X143757394Y-72454358D01*
X143812752Y-72451009D01*
X143819303Y-72450613D01*
X143823048Y-72450500D01*
X147792374Y-72450500D01*
X147839727Y-72444750D01*
X147918872Y-72435140D01*
X148077930Y-72374818D01*
X148217929Y-72278183D01*
X148330734Y-72150852D01*
X148409790Y-72000225D01*
X148450500Y-71835056D01*
X148450500Y-71664944D01*
X148409790Y-71499775D01*
X148399863Y-71480861D01*
X148330736Y-71349150D01*
X148291844Y-71305250D01*
X148217929Y-71221817D01*
X148118715Y-71153334D01*
X148077931Y-71125182D01*
X147918874Y-71064860D01*
X147918868Y-71064859D01*
X147792374Y-71049500D01*
X147792372Y-71049500D01*
X144141519Y-71049500D01*
X144074480Y-71029815D01*
X144053838Y-71013181D01*
X142890661Y-69850004D01*
X163394732Y-69850004D01*
X163413777Y-70104154D01*
X163468872Y-70345542D01*
X163470492Y-70352637D01*
X163563607Y-70589888D01*
X163691041Y-70810612D01*
X163849950Y-71009877D01*
X164036783Y-71183232D01*
X164247366Y-71326805D01*
X164247371Y-71326807D01*
X164247372Y-71326808D01*
X164247373Y-71326809D01*
X164369328Y-71385538D01*
X164476992Y-71437387D01*
X164476993Y-71437387D01*
X164476996Y-71437389D01*
X164720542Y-71512513D01*
X164972565Y-71550500D01*
X165227435Y-71550500D01*
X165479458Y-71512513D01*
X165723004Y-71437389D01*
X165952634Y-71326805D01*
X166163217Y-71183232D01*
X166350050Y-71009877D01*
X166508959Y-70810612D01*
X166636393Y-70589888D01*
X166729508Y-70352637D01*
X166786222Y-70104157D01*
X166797715Y-69950788D01*
X166805268Y-69850004D01*
X166805268Y-69849995D01*
X166789274Y-69636576D01*
X166786222Y-69595843D01*
X166729508Y-69347363D01*
X166636393Y-69110112D01*
X166508959Y-68889388D01*
X166350050Y-68690123D01*
X166163217Y-68516768D01*
X165952634Y-68373195D01*
X165952630Y-68373193D01*
X165952627Y-68373191D01*
X165952626Y-68373190D01*
X165723006Y-68262612D01*
X165723008Y-68262612D01*
X165479466Y-68187489D01*
X165479462Y-68187488D01*
X165479458Y-68187487D01*
X165358231Y-68169214D01*
X165227440Y-68149500D01*
X165227435Y-68149500D01*
X164972565Y-68149500D01*
X164972559Y-68149500D01*
X164815609Y-68173157D01*
X164720542Y-68187487D01*
X164720538Y-68187488D01*
X164720539Y-68187488D01*
X164720533Y-68187489D01*
X164476992Y-68262612D01*
X164247373Y-68373190D01*
X164247372Y-68373191D01*
X164036782Y-68516768D01*
X163849952Y-68690121D01*
X163849950Y-68690123D01*
X163691041Y-68889388D01*
X163563608Y-69110109D01*
X163470492Y-69347362D01*
X163470490Y-69347369D01*
X163413777Y-69595845D01*
X163394732Y-69849995D01*
X163394732Y-69850004D01*
X142890661Y-69850004D01*
X142298307Y-69257650D01*
X142283940Y-69240412D01*
X142278183Y-69232071D01*
X142278180Y-69232068D01*
X142231769Y-69190951D01*
X142229041Y-69188384D01*
X142215368Y-69174710D01*
X142200147Y-69162785D01*
X142197270Y-69160388D01*
X142150851Y-69119265D01*
X142141886Y-69114560D01*
X142123038Y-69102375D01*
X142115057Y-69096122D01*
X142115055Y-69096121D01*
X142115054Y-69096120D01*
X142058494Y-69070665D01*
X142055133Y-69069028D01*
X142042985Y-69062652D01*
X142000227Y-69040210D01*
X142000223Y-69040209D01*
X141990388Y-69037785D01*
X141969183Y-69030468D01*
X141959932Y-69026305D01*
X141959930Y-69026304D01*
X141959929Y-69026304D01*
X141898914Y-69015122D01*
X141895254Y-69014336D01*
X141835058Y-68999500D01*
X141835056Y-68999500D01*
X141824927Y-68999500D01*
X141802576Y-68997469D01*
X141792607Y-68995642D01*
X141792603Y-68995642D01*
X141730697Y-68999387D01*
X141726952Y-68999500D01*
X141664940Y-68999500D01*
X141655093Y-69001927D01*
X141632923Y-69005301D01*
X141622801Y-69005914D01*
X141563603Y-69024360D01*
X141559997Y-69025365D01*
X141499775Y-69040209D01*
X141499772Y-69040210D01*
X141490796Y-69044921D01*
X141470071Y-69053506D01*
X141460392Y-69056522D01*
X141407309Y-69088611D01*
X141404049Y-69090450D01*
X141349148Y-69119266D01*
X141341551Y-69125995D01*
X141323494Y-69139280D01*
X141314821Y-69144523D01*
X141314810Y-69144532D01*
X141270965Y-69188377D01*
X141268239Y-69190942D01*
X141221820Y-69232067D01*
X141221818Y-69232069D01*
X141216056Y-69240416D01*
X141201697Y-69257645D01*
X141194530Y-69264812D01*
X141194525Y-69264818D01*
X141162441Y-69317888D01*
X141160410Y-69321030D01*
X141125183Y-69372066D01*
X141125180Y-69372073D01*
X141121584Y-69381554D01*
X141111767Y-69401716D01*
X141106521Y-69410393D01*
X141088073Y-69469597D01*
X141086852Y-69473136D01*
X141064860Y-69531127D01*
X141064858Y-69531134D01*
X141063636Y-69541197D01*
X141058929Y-69563129D01*
X141055914Y-69572805D01*
X141052168Y-69634709D01*
X141051829Y-69638436D01*
X141049500Y-69657626D01*
X141049500Y-69676951D01*
X141049387Y-69680696D01*
X141045642Y-69742604D01*
X141045642Y-69742606D01*
X141047469Y-69752575D01*
X141049500Y-69774927D01*
X141049500Y-77976951D01*
X141049387Y-77980696D01*
X141045642Y-78042604D01*
X141045642Y-78042606D01*
X141047469Y-78052575D01*
X141049500Y-78074927D01*
X141049500Y-88726951D01*
X141049387Y-88730696D01*
X141045642Y-88792603D01*
X141045642Y-88792605D01*
X141056821Y-88853612D01*
X141057384Y-88857313D01*
X141064859Y-88918870D01*
X141064860Y-88918874D01*
X141068451Y-88928343D01*
X141074474Y-88949946D01*
X141076304Y-88959930D01*
X141101759Y-89016490D01*
X141103189Y-89019941D01*
X141125182Y-89077930D01*
X141125183Y-89077931D01*
X141130936Y-89086266D01*
X141141961Y-89105813D01*
X141146120Y-89115055D01*
X141146124Y-89115060D01*
X141154054Y-89125182D01*
X141163579Y-89137340D01*
X141184371Y-89163878D01*
X141186591Y-89166896D01*
X141221812Y-89217924D01*
X141221816Y-89217928D01*
X141221817Y-89217929D01*
X141268250Y-89259064D01*
X141270941Y-89261598D01*
X145036730Y-93027387D01*
X148763181Y-96753838D01*
X148796666Y-96815161D01*
X148799500Y-96841519D01*
X148799500Y-100908480D01*
X148779815Y-100975519D01*
X148763181Y-100996161D01*
X147837680Y-101921661D01*
X147776357Y-101955146D01*
X147706665Y-101950162D01*
X147662318Y-101921661D01*
X146437354Y-100696697D01*
X145211598Y-99470941D01*
X145209064Y-99468250D01*
X145167929Y-99421817D01*
X145167928Y-99421816D01*
X145167924Y-99421812D01*
X145116896Y-99386591D01*
X145113887Y-99384377D01*
X145075607Y-99354387D01*
X145065060Y-99346124D01*
X145065055Y-99346120D01*
X145055813Y-99341961D01*
X145036266Y-99330936D01*
X145034657Y-99329826D01*
X145027930Y-99325182D01*
X144969941Y-99303189D01*
X144966490Y-99301759D01*
X144909930Y-99276304D01*
X144899946Y-99274474D01*
X144878343Y-99268451D01*
X144868874Y-99264860D01*
X144868870Y-99264859D01*
X144807313Y-99257384D01*
X144803612Y-99256821D01*
X144742608Y-99245642D01*
X144742603Y-99245642D01*
X144680697Y-99249387D01*
X144676952Y-99249500D01*
X142273048Y-99249500D01*
X142269303Y-99249387D01*
X142207396Y-99245642D01*
X142207389Y-99245642D01*
X142146386Y-99256821D01*
X142142685Y-99257384D01*
X142081128Y-99264859D01*
X142081121Y-99264861D01*
X142071647Y-99268454D01*
X142050049Y-99274475D01*
X142040068Y-99276305D01*
X142040063Y-99276306D01*
X141983505Y-99301761D01*
X141980046Y-99303193D01*
X141922070Y-99325181D01*
X141922066Y-99325184D01*
X141913723Y-99330942D01*
X141894188Y-99341960D01*
X141884948Y-99346119D01*
X141884939Y-99346124D01*
X141836124Y-99384368D01*
X141833109Y-99386586D01*
X141782068Y-99421818D01*
X141740942Y-99468240D01*
X141738375Y-99470966D01*
X133446162Y-107763181D01*
X133384839Y-107796666D01*
X133358481Y-107799500D01*
X115341519Y-107799500D01*
X115274480Y-107779815D01*
X115253838Y-107763181D01*
X114607808Y-107117151D01*
X114607806Y-107117148D01*
X112768840Y-105278182D01*
X107066598Y-99575941D01*
X107064064Y-99573250D01*
X107022929Y-99526817D01*
X107022928Y-99526816D01*
X107022924Y-99526812D01*
X106971896Y-99491591D01*
X106968887Y-99489377D01*
X106920060Y-99451124D01*
X106920055Y-99451120D01*
X106910813Y-99446961D01*
X106891266Y-99435936D01*
X106882931Y-99430183D01*
X106882932Y-99430183D01*
X106882930Y-99430182D01*
X106824941Y-99408189D01*
X106821490Y-99406759D01*
X106764930Y-99381304D01*
X106754946Y-99379474D01*
X106733343Y-99373451D01*
X106723874Y-99369860D01*
X106723870Y-99369859D01*
X106662313Y-99362384D01*
X106658612Y-99361821D01*
X106597608Y-99350642D01*
X106597603Y-99350642D01*
X106535697Y-99354387D01*
X106531952Y-99354500D01*
X106074500Y-99354500D01*
X106007461Y-99334815D01*
X105961706Y-99282011D01*
X105950500Y-99230500D01*
X105950500Y-91523047D01*
X105950613Y-91519302D01*
X105954358Y-91457394D01*
X105943175Y-91396371D01*
X105942613Y-91392674D01*
X105940618Y-91376251D01*
X105935140Y-91331128D01*
X105931548Y-91321656D01*
X105925521Y-91300034D01*
X105923695Y-91290071D01*
X105923695Y-91290069D01*
X105898224Y-91233476D01*
X105896817Y-91230079D01*
X105874818Y-91172070D01*
X105874816Y-91172068D01*
X105874816Y-91172066D01*
X105869062Y-91163731D01*
X105858034Y-91144177D01*
X105853880Y-91134947D01*
X105832927Y-91108202D01*
X105815621Y-91086112D01*
X105813427Y-91083130D01*
X105778183Y-91032071D01*
X105731750Y-90990935D01*
X105729056Y-90988399D01*
X104011598Y-89270941D01*
X104009063Y-89268248D01*
X103967929Y-89221817D01*
X103967928Y-89221816D01*
X103967924Y-89221812D01*
X103916896Y-89186591D01*
X103913887Y-89184377D01*
X103865060Y-89146124D01*
X103865055Y-89146120D01*
X103855813Y-89141961D01*
X103836266Y-89130936D01*
X103827931Y-89125183D01*
X103827932Y-89125183D01*
X103827930Y-89125182D01*
X103769938Y-89103188D01*
X103766490Y-89101759D01*
X103709930Y-89076304D01*
X103699946Y-89074474D01*
X103678343Y-89068451D01*
X103668874Y-89064860D01*
X103668870Y-89064859D01*
X103607313Y-89057384D01*
X103603612Y-89056821D01*
X103542608Y-89045642D01*
X103542603Y-89045642D01*
X103480697Y-89049387D01*
X103476952Y-89049500D01*
X101773048Y-89049500D01*
X101769303Y-89049387D01*
X101707396Y-89045642D01*
X101707389Y-89045642D01*
X101646386Y-89056821D01*
X101642685Y-89057384D01*
X101581128Y-89064859D01*
X101581121Y-89064861D01*
X101571647Y-89068454D01*
X101550049Y-89074475D01*
X101540069Y-89076304D01*
X101483519Y-89101755D01*
X101480060Y-89103188D01*
X101422071Y-89125181D01*
X101422063Y-89125185D01*
X101413721Y-89130943D01*
X101394189Y-89141960D01*
X101384946Y-89146120D01*
X101336135Y-89184360D01*
X101333120Y-89186579D01*
X101282072Y-89221816D01*
X101282065Y-89221822D01*
X101240935Y-89268248D01*
X101238368Y-89270974D01*
X99587681Y-90921662D01*
X99526358Y-90955147D01*
X99456666Y-90950163D01*
X99412319Y-90921662D01*
X96236819Y-87746162D01*
X96203334Y-87684839D01*
X96200500Y-87658481D01*
X96200500Y-76474702D01*
X96220185Y-76407663D01*
X96272989Y-76361908D01*
X96342147Y-76351964D01*
X96405703Y-76380989D01*
X96422112Y-76398231D01*
X96434372Y-76413880D01*
X96436573Y-76416870D01*
X96453653Y-76441614D01*
X96471813Y-76467925D01*
X96471816Y-76467928D01*
X96471817Y-76467929D01*
X96518250Y-76509064D01*
X96520941Y-76511598D01*
X97799500Y-77790157D01*
X99013181Y-79003838D01*
X99046666Y-79065161D01*
X99049500Y-79091519D01*
X99049500Y-81226951D01*
X99049387Y-81230696D01*
X99046022Y-81286330D01*
X99045642Y-81292606D01*
X99054612Y-81341559D01*
X99056821Y-81353612D01*
X99057384Y-81357313D01*
X99064859Y-81418870D01*
X99064860Y-81418874D01*
X99068451Y-81428343D01*
X99074474Y-81449946D01*
X99076304Y-81459930D01*
X99101759Y-81516490D01*
X99103189Y-81519941D01*
X99125182Y-81577930D01*
X99125183Y-81577931D01*
X99130936Y-81586266D01*
X99141961Y-81605813D01*
X99146120Y-81615055D01*
X99146124Y-81615060D01*
X99153769Y-81624818D01*
X99172117Y-81648238D01*
X99184371Y-81663878D01*
X99186591Y-81666896D01*
X99221812Y-81717924D01*
X99221816Y-81717928D01*
X99221817Y-81717929D01*
X99268250Y-81759064D01*
X99270941Y-81761598D01*
X106238399Y-88729056D01*
X106240935Y-88731750D01*
X106282071Y-88778183D01*
X106333106Y-88813410D01*
X106336122Y-88815630D01*
X106362490Y-88836287D01*
X106384943Y-88853878D01*
X106388463Y-88855462D01*
X106394182Y-88858036D01*
X106413733Y-88869063D01*
X106422070Y-88874818D01*
X106480065Y-88896812D01*
X106483474Y-88898223D01*
X106530787Y-88919517D01*
X106540064Y-88923693D01*
X106540065Y-88923693D01*
X106540069Y-88923695D01*
X106550034Y-88925521D01*
X106571656Y-88931548D01*
X106574777Y-88932731D01*
X106581128Y-88935140D01*
X106626251Y-88940618D01*
X106642674Y-88942613D01*
X106646371Y-88943175D01*
X106707394Y-88954358D01*
X106762752Y-88951009D01*
X106769303Y-88950613D01*
X106773048Y-88950500D01*
X107408481Y-88950500D01*
X107475520Y-88970185D01*
X107496162Y-88986819D01*
X108421661Y-89912318D01*
X108455146Y-89973641D01*
X108450162Y-90043333D01*
X108421661Y-90087680D01*
X107770966Y-90738375D01*
X107768240Y-90740942D01*
X107721818Y-90782068D01*
X107686586Y-90833109D01*
X107684368Y-90836124D01*
X107646124Y-90884939D01*
X107646119Y-90884948D01*
X107641960Y-90894188D01*
X107630942Y-90913723D01*
X107625187Y-90922061D01*
X107625183Y-90922067D01*
X107625182Y-90922070D01*
X107625180Y-90922074D01*
X107625179Y-90922077D01*
X107603189Y-90980055D01*
X107601757Y-90983513D01*
X107576305Y-91040068D01*
X107574477Y-91050042D01*
X107568453Y-91071653D01*
X107564860Y-91081127D01*
X107564859Y-91081128D01*
X107557384Y-91142685D01*
X107556821Y-91146386D01*
X107545642Y-91207390D01*
X107545642Y-91207395D01*
X107549386Y-91269303D01*
X107549499Y-91273047D01*
X107549499Y-98476951D01*
X107549386Y-98480694D01*
X107545641Y-98542601D01*
X107545642Y-98542605D01*
X107556821Y-98603612D01*
X107557384Y-98607313D01*
X107564859Y-98668870D01*
X107564860Y-98668874D01*
X107568451Y-98678343D01*
X107574474Y-98699946D01*
X107576304Y-98709930D01*
X107601759Y-98766490D01*
X107603189Y-98769941D01*
X107625182Y-98827930D01*
X107625183Y-98827931D01*
X107630936Y-98836266D01*
X107641961Y-98855813D01*
X107646120Y-98865055D01*
X107646124Y-98865060D01*
X107684371Y-98913878D01*
X107686591Y-98916896D01*
X107721812Y-98967924D01*
X107721816Y-98967928D01*
X107721817Y-98967929D01*
X107768250Y-99009064D01*
X107770941Y-99011598D01*
X111988399Y-103229056D01*
X111990935Y-103231750D01*
X112032071Y-103278183D01*
X112083130Y-103313427D01*
X112086112Y-103315621D01*
X112119169Y-103341519D01*
X112134947Y-103353880D01*
X112134946Y-103353880D01*
X112144177Y-103358034D01*
X112163731Y-103369062D01*
X112172066Y-103374816D01*
X112172068Y-103374816D01*
X112172070Y-103374818D01*
X112230079Y-103396817D01*
X112233476Y-103398224D01*
X112280770Y-103419509D01*
X112290064Y-103423693D01*
X112290065Y-103423693D01*
X112290069Y-103423695D01*
X112300034Y-103425521D01*
X112321656Y-103431548D01*
X112338141Y-103437800D01*
X112337642Y-103439114D01*
X112390969Y-103470163D01*
X112422757Y-103532383D01*
X112415861Y-103601911D01*
X112398527Y-103631873D01*
X112396122Y-103634942D01*
X112396121Y-103634943D01*
X112326306Y-103790064D01*
X112326304Y-103790068D01*
X112295642Y-103957392D01*
X112295642Y-103957395D01*
X112296690Y-103974712D01*
X112305914Y-104127196D01*
X112331839Y-104210393D01*
X112356522Y-104289606D01*
X112444530Y-104435188D01*
X112564811Y-104555469D01*
X112564813Y-104555470D01*
X112564815Y-104555472D01*
X112710394Y-104643478D01*
X112872804Y-104694086D01*
X113042606Y-104704358D01*
X113209932Y-104673695D01*
X113365057Y-104603878D01*
X113465367Y-104525290D01*
X114229056Y-103761599D01*
X114231748Y-103759065D01*
X114278183Y-103717929D01*
X114313436Y-103666855D01*
X114315613Y-103663896D01*
X114353878Y-103615057D01*
X114358037Y-103605815D01*
X114369062Y-103586268D01*
X114374818Y-103577930D01*
X114392792Y-103530532D01*
X114434969Y-103474828D01*
X114500566Y-103450769D01*
X114508736Y-103450500D01*
X131088000Y-103450500D01*
X131155039Y-103470185D01*
X131200794Y-103522989D01*
X131212000Y-103574500D01*
X131212000Y-105542374D01*
X131227359Y-105668868D01*
X131227360Y-105668874D01*
X131287682Y-105827931D01*
X131349975Y-105918177D01*
X131384317Y-105967929D01*
X131444412Y-106021168D01*
X131511650Y-106080736D01*
X131662273Y-106159789D01*
X131662275Y-106159790D01*
X131827444Y-106200500D01*
X131997556Y-106200500D01*
X132162725Y-106159790D01*
X132242192Y-106118081D01*
X132313349Y-106080736D01*
X132313350Y-106080734D01*
X132313352Y-106080734D01*
X132440683Y-105967929D01*
X132537318Y-105827930D01*
X132597640Y-105668872D01*
X132613000Y-105542372D01*
X132613000Y-103574500D01*
X132632685Y-103507461D01*
X132685489Y-103461706D01*
X132737000Y-103450500D01*
X135976952Y-103450500D01*
X135980697Y-103450613D01*
X135988042Y-103451057D01*
X136042606Y-103454358D01*
X136080314Y-103447447D01*
X136103621Y-103443177D01*
X136107325Y-103442613D01*
X136125170Y-103440446D01*
X136168872Y-103435140D01*
X136178335Y-103431550D01*
X136199961Y-103425522D01*
X136200893Y-103425351D01*
X136209932Y-103423695D01*
X136266512Y-103398229D01*
X136269942Y-103396809D01*
X136327930Y-103374818D01*
X136336266Y-103369062D01*
X136355821Y-103358034D01*
X136365057Y-103353878D01*
X136413896Y-103315613D01*
X136416876Y-103313421D01*
X136467929Y-103278183D01*
X136509065Y-103231748D01*
X136511599Y-103229056D01*
X138525290Y-101215367D01*
X138525289Y-101215366D01*
X138561596Y-101179061D01*
X138561609Y-101179046D01*
X139217723Y-100522933D01*
X141253837Y-98486819D01*
X141315161Y-98453334D01*
X141341519Y-98450500D01*
X147476952Y-98450500D01*
X147480697Y-98450613D01*
X147488042Y-98451057D01*
X147542606Y-98454358D01*
X147580314Y-98447447D01*
X147603621Y-98443177D01*
X147607325Y-98442613D01*
X147625170Y-98440446D01*
X147668872Y-98435140D01*
X147678335Y-98431550D01*
X147699961Y-98425522D01*
X147700893Y-98425351D01*
X147709932Y-98423695D01*
X147766512Y-98398229D01*
X147769942Y-98396809D01*
X147827930Y-98374818D01*
X147836266Y-98369062D01*
X147855821Y-98358034D01*
X147865057Y-98353878D01*
X147913896Y-98315613D01*
X147916876Y-98313421D01*
X147967929Y-98278183D01*
X148009080Y-98231731D01*
X148011583Y-98229072D01*
X148275290Y-97965367D01*
X148275291Y-97965364D01*
X148280659Y-97959997D01*
X148280665Y-97959989D01*
X148305472Y-97935184D01*
X148325615Y-97901862D01*
X148329864Y-97895706D01*
X148353877Y-97865057D01*
X148369857Y-97829546D01*
X148373322Y-97822945D01*
X148393478Y-97789606D01*
X148405062Y-97752425D01*
X148407719Y-97745423D01*
X148423694Y-97709932D01*
X148430714Y-97671621D01*
X148432497Y-97664385D01*
X148444086Y-97627196D01*
X148446436Y-97588330D01*
X148447340Y-97580898D01*
X148454357Y-97542604D01*
X148452006Y-97503747D01*
X148452006Y-97496251D01*
X148452952Y-97480611D01*
X148454357Y-97457394D01*
X148447340Y-97419102D01*
X148446436Y-97411663D01*
X148444086Y-97372804D01*
X148432504Y-97335634D01*
X148430712Y-97328365D01*
X148423694Y-97290068D01*
X148407710Y-97254555D01*
X148405062Y-97247574D01*
X148393478Y-97210394D01*
X148373328Y-97177063D01*
X148369853Y-97170442D01*
X148353877Y-97134943D01*
X148329868Y-97104298D01*
X148325612Y-97098132D01*
X148312417Y-97076305D01*
X148305472Y-97064816D01*
X148276732Y-97036076D01*
X148276706Y-97036048D01*
X134236818Y-82996161D01*
X134203333Y-82934838D01*
X134200499Y-82908480D01*
X134200499Y-82841518D01*
X134220184Y-82774479D01*
X134236813Y-82753842D01*
X135729056Y-81261599D01*
X135731748Y-81259065D01*
X135778183Y-81217929D01*
X135813417Y-81166883D01*
X135815620Y-81163887D01*
X135853878Y-81115056D01*
X135858037Y-81105813D01*
X135869061Y-81086268D01*
X135874818Y-81077930D01*
X135896810Y-81019939D01*
X135898232Y-81016503D01*
X135923695Y-80959931D01*
X135925522Y-80949959D01*
X135931546Y-80928347D01*
X135935140Y-80918872D01*
X135942613Y-80857324D01*
X135943177Y-80853619D01*
X135951523Y-80808074D01*
X135954358Y-80792606D01*
X135950613Y-80730696D01*
X135950500Y-80726951D01*
X135950500Y-77523047D01*
X135950613Y-77519302D01*
X135954358Y-77457394D01*
X135943175Y-77396371D01*
X135942613Y-77392674D01*
X135940618Y-77376251D01*
X135935140Y-77331128D01*
X135931548Y-77321656D01*
X135925521Y-77300034D01*
X135924160Y-77292606D01*
X135923695Y-77290069D01*
X135898224Y-77233476D01*
X135896817Y-77230079D01*
X135874818Y-77172070D01*
X135874816Y-77172068D01*
X135874816Y-77172066D01*
X135869062Y-77163731D01*
X135858034Y-77144177D01*
X135853880Y-77134947D01*
X135853878Y-77134944D01*
X135815621Y-77086112D01*
X135813427Y-77083130D01*
X135778183Y-77032071D01*
X135731750Y-76990935D01*
X135729056Y-76988399D01*
X134578335Y-75837677D01*
X134544852Y-75776357D01*
X134549836Y-75706665D01*
X134578335Y-75662320D01*
X138754056Y-71486599D01*
X138756748Y-71484065D01*
X138803183Y-71442929D01*
X138838417Y-71391883D01*
X138840620Y-71388887D01*
X138878878Y-71340056D01*
X138883037Y-71330813D01*
X138894061Y-71311268D01*
X138899818Y-71302930D01*
X138921810Y-71244939D01*
X138923232Y-71241503D01*
X138948695Y-71184931D01*
X138950522Y-71174959D01*
X138956546Y-71153347D01*
X138960140Y-71143872D01*
X138967613Y-71082324D01*
X138968177Y-71078619D01*
X138973513Y-71049500D01*
X138979358Y-71017606D01*
X138975613Y-70955696D01*
X138975500Y-70951951D01*
X138975500Y-70316519D01*
X138995185Y-70249480D01*
X139011819Y-70228838D01*
X143753838Y-65486819D01*
X143815161Y-65453334D01*
X143841519Y-65450500D01*
X147835058Y-65450500D01*
X147844590Y-65448149D01*
X147872875Y-65441177D01*
X147880206Y-65439834D01*
X147918872Y-65435140D01*
X147955277Y-65421333D01*
X147962427Y-65419106D01*
X147973744Y-65416316D01*
X148000225Y-65409790D01*
X148034707Y-65391691D01*
X148041507Y-65388630D01*
X148077930Y-65374818D01*
X148109981Y-65352693D01*
X148116379Y-65348825D01*
X148150852Y-65330734D01*
X148180002Y-65304908D01*
X148185871Y-65300310D01*
X148217929Y-65278183D01*
X148243748Y-65249037D01*
X148249037Y-65243748D01*
X148278183Y-65217929D01*
X148300310Y-65185871D01*
X148304908Y-65180002D01*
X148330734Y-65150852D01*
X148348825Y-65116379D01*
X148352693Y-65109981D01*
X148374818Y-65077930D01*
X148388630Y-65041507D01*
X148391691Y-65034707D01*
X148409790Y-65000225D01*
X148419106Y-64962427D01*
X148421335Y-64955271D01*
X148422366Y-64952553D01*
X148435140Y-64918872D01*
X148439834Y-64880206D01*
X148441177Y-64872875D01*
X148449155Y-64840511D01*
X148450500Y-64835057D01*
X148450500Y-64770004D01*
X163394732Y-64770004D01*
X163413777Y-65024154D01*
X163450692Y-65185890D01*
X163470492Y-65272637D01*
X163563607Y-65509888D01*
X163691041Y-65730612D01*
X163849950Y-65929877D01*
X164036783Y-66103232D01*
X164247366Y-66246805D01*
X164247371Y-66246807D01*
X164247372Y-66246808D01*
X164247373Y-66246809D01*
X164369328Y-66305538D01*
X164476992Y-66357387D01*
X164476993Y-66357387D01*
X164476996Y-66357389D01*
X164720542Y-66432513D01*
X164972565Y-66470500D01*
X165227435Y-66470500D01*
X165479458Y-66432513D01*
X165723004Y-66357389D01*
X165952634Y-66246805D01*
X166163217Y-66103232D01*
X166350050Y-65929877D01*
X166508959Y-65730612D01*
X166636393Y-65509888D01*
X166729508Y-65272637D01*
X166786222Y-65024157D01*
X166796128Y-64891964D01*
X166805268Y-64770004D01*
X166805268Y-64769995D01*
X166786530Y-64519950D01*
X166786222Y-64515843D01*
X166729508Y-64267363D01*
X166636393Y-64030112D01*
X166508959Y-63809388D01*
X166350050Y-63610123D01*
X166163217Y-63436768D01*
X165952634Y-63293195D01*
X165952630Y-63293193D01*
X165952627Y-63293191D01*
X165952626Y-63293190D01*
X165723006Y-63182612D01*
X165723008Y-63182612D01*
X165479466Y-63107489D01*
X165479462Y-63107488D01*
X165479458Y-63107487D01*
X165358231Y-63089214D01*
X165227440Y-63069500D01*
X165227435Y-63069500D01*
X164972565Y-63069500D01*
X164972559Y-63069500D01*
X164815609Y-63093157D01*
X164720542Y-63107487D01*
X164720538Y-63107488D01*
X164720539Y-63107488D01*
X164720533Y-63107489D01*
X164476992Y-63182612D01*
X164247373Y-63293190D01*
X164247372Y-63293191D01*
X164036782Y-63436768D01*
X163849952Y-63610121D01*
X163849950Y-63610123D01*
X163691041Y-63809388D01*
X163563608Y-64030109D01*
X163470492Y-64267362D01*
X163470490Y-64267369D01*
X163413777Y-64515845D01*
X163394732Y-64769995D01*
X163394732Y-64770004D01*
X148450500Y-64770004D01*
X148450500Y-58207625D01*
X148442820Y-58144378D01*
X148435140Y-58081128D01*
X148374818Y-57922070D01*
X148371568Y-57917362D01*
X148340476Y-57872318D01*
X148278183Y-57782071D01*
X148163095Y-57680112D01*
X148150849Y-57669263D01*
X148000226Y-57590210D01*
X147835056Y-57549500D01*
X147664944Y-57549500D01*
X147499773Y-57590210D01*
X147349150Y-57669263D01*
X147221816Y-57782072D01*
X147125182Y-57922068D01*
X147064860Y-58081125D01*
X147064859Y-58081131D01*
X147049500Y-58207625D01*
X147049500Y-63925500D01*
X147029815Y-63992539D01*
X146977011Y-64038294D01*
X146925500Y-64049500D01*
X143523048Y-64049500D01*
X143519303Y-64049387D01*
X143457396Y-64045642D01*
X143457389Y-64045642D01*
X143396386Y-64056821D01*
X143392685Y-64057384D01*
X143331128Y-64064859D01*
X143331121Y-64064861D01*
X143321647Y-64068454D01*
X143300049Y-64074475D01*
X143290068Y-64076305D01*
X143290063Y-64076306D01*
X143233505Y-64101761D01*
X143230046Y-64103193D01*
X143172070Y-64125181D01*
X143172066Y-64125184D01*
X143163723Y-64130942D01*
X143144188Y-64141960D01*
X143134948Y-64146119D01*
X143134939Y-64146124D01*
X143086124Y-64184368D01*
X143083109Y-64186586D01*
X143032068Y-64221818D01*
X142990942Y-64268240D01*
X142988375Y-64270966D01*
X137795966Y-69463375D01*
X137793240Y-69465942D01*
X137746818Y-69507068D01*
X137711586Y-69558109D01*
X137709368Y-69561124D01*
X137671124Y-69609939D01*
X137671119Y-69609948D01*
X137666960Y-69619188D01*
X137655942Y-69638723D01*
X137650187Y-69647061D01*
X137650183Y-69647067D01*
X137650182Y-69647070D01*
X137650180Y-69647074D01*
X137650179Y-69647077D01*
X137628189Y-69705055D01*
X137626757Y-69708513D01*
X137601305Y-69765068D01*
X137599477Y-69775042D01*
X137593453Y-69796653D01*
X137589860Y-69806127D01*
X137589859Y-69806128D01*
X137582384Y-69867685D01*
X137581821Y-69871386D01*
X137570642Y-69932390D01*
X137570642Y-69932395D01*
X137574387Y-69994302D01*
X137574500Y-69998047D01*
X137574500Y-70633479D01*
X137554815Y-70700518D01*
X137538181Y-70721160D01*
X134412181Y-73847161D01*
X134350858Y-73880646D01*
X134281166Y-73875662D01*
X134225233Y-73833790D01*
X134200816Y-73768326D01*
X134200500Y-73759480D01*
X134200500Y-71273047D01*
X134200613Y-71269302D01*
X134204358Y-71207394D01*
X134193175Y-71146371D01*
X134192613Y-71142674D01*
X134187644Y-71101755D01*
X134185140Y-71081128D01*
X134182617Y-71074475D01*
X134181548Y-71071656D01*
X134175521Y-71050034D01*
X134173695Y-71040071D01*
X134173695Y-71040069D01*
X134148223Y-70983474D01*
X134146812Y-70980065D01*
X134124818Y-70922070D01*
X134119063Y-70913733D01*
X134108036Y-70894182D01*
X134103879Y-70884946D01*
X134103878Y-70884943D01*
X134081431Y-70856291D01*
X134065630Y-70836122D01*
X134063410Y-70833106D01*
X134028183Y-70782071D01*
X133981750Y-70740935D01*
X133979056Y-70738399D01*
X132986819Y-69746162D01*
X132953334Y-69684839D01*
X132950500Y-69658481D01*
X132950500Y-68023047D01*
X132950613Y-68019302D01*
X132954358Y-67957394D01*
X132943175Y-67896371D01*
X132942613Y-67892674D01*
X132940618Y-67876251D01*
X132935140Y-67831128D01*
X132931548Y-67821656D01*
X132925521Y-67800034D01*
X132923695Y-67790071D01*
X132923695Y-67790069D01*
X132898223Y-67733474D01*
X132896812Y-67730065D01*
X132874818Y-67672070D01*
X132869063Y-67663733D01*
X132858036Y-67644182D01*
X132853879Y-67634946D01*
X132853878Y-67634943D01*
X132836287Y-67612490D01*
X132815630Y-67586122D01*
X132813410Y-67583106D01*
X132778182Y-67532070D01*
X132773148Y-67527610D01*
X132731750Y-67490935D01*
X132729056Y-67488399D01*
X129236818Y-63996162D01*
X129203334Y-63934839D01*
X129200500Y-63908481D01*
X129200500Y-55841519D01*
X129220185Y-55774480D01*
X129236821Y-55753835D01*
X129253841Y-55736816D01*
X129315165Y-55703333D01*
X129341520Y-55700500D01*
X134542374Y-55700500D01*
X134584538Y-55695380D01*
X134668872Y-55685140D01*
X134827930Y-55624818D01*
X134967929Y-55528183D01*
X135080734Y-55400852D01*
X135159790Y-55250225D01*
X135200500Y-55085056D01*
X135200500Y-54914944D01*
X135159790Y-54749775D01*
X135159789Y-54749773D01*
X135080736Y-54599150D01*
X135061560Y-54577505D01*
X134967929Y-54471817D01*
X134918177Y-54437475D01*
X134827931Y-54375182D01*
X134668874Y-54314860D01*
X134668868Y-54314859D01*
X134542374Y-54299500D01*
X134542372Y-54299500D01*
X129042372Y-54299500D01*
X129023048Y-54299500D01*
X129019303Y-54299387D01*
X128957396Y-54295642D01*
X128957392Y-54295642D01*
X128947424Y-54297469D01*
X128925073Y-54299500D01*
X123207626Y-54299500D01*
X123081131Y-54314859D01*
X123081125Y-54314860D01*
X122922068Y-54375182D01*
X122782072Y-54471816D01*
X122669263Y-54599150D01*
X122590210Y-54749773D01*
X122549500Y-54914944D01*
X122549500Y-55085055D01*
X122590210Y-55250226D01*
X122669263Y-55400849D01*
X122669266Y-55400852D01*
X122782071Y-55528183D01*
X122872318Y-55590476D01*
X122922068Y-55624817D01*
X122922069Y-55624817D01*
X122922070Y-55624818D01*
X123081128Y-55685140D01*
X123157028Y-55694356D01*
X123207626Y-55700500D01*
X123207628Y-55700500D01*
X127675500Y-55700500D01*
X127742539Y-55720185D01*
X127788294Y-55772989D01*
X127799499Y-55824499D01*
X127799499Y-60082510D01*
X127799499Y-64226954D01*
X127799386Y-64230698D01*
X127795641Y-64292602D01*
X127795642Y-64292607D01*
X127806821Y-64353612D01*
X127807384Y-64357313D01*
X127814859Y-64418870D01*
X127814860Y-64418874D01*
X127818451Y-64428343D01*
X127824474Y-64449946D01*
X127826304Y-64459930D01*
X127851759Y-64516490D01*
X127853189Y-64519941D01*
X127875182Y-64577930D01*
X127875183Y-64577931D01*
X127880936Y-64586266D01*
X127891961Y-64605813D01*
X127896120Y-64615055D01*
X127896122Y-64615057D01*
X127931235Y-64659876D01*
X127934371Y-64663878D01*
X127936591Y-64666896D01*
X127971812Y-64717924D01*
X127971816Y-64717928D01*
X127971817Y-64717929D01*
X128018250Y-64759064D01*
X128020941Y-64761598D01*
X129786966Y-66527623D01*
X131513180Y-68253837D01*
X131546665Y-68315160D01*
X131549499Y-68341518D01*
X131549499Y-69976951D01*
X131549386Y-69980694D01*
X131545641Y-70042601D01*
X131545642Y-70042605D01*
X131545642Y-70042606D01*
X131548245Y-70056809D01*
X131556821Y-70103612D01*
X131557384Y-70107313D01*
X131564859Y-70168870D01*
X131564860Y-70168874D01*
X131568451Y-70178343D01*
X131574474Y-70199946D01*
X131576304Y-70209930D01*
X131601759Y-70266490D01*
X131603189Y-70269941D01*
X131625182Y-70327930D01*
X131625183Y-70327931D01*
X131630936Y-70336266D01*
X131641961Y-70355813D01*
X131646120Y-70365055D01*
X131646122Y-70365057D01*
X131680110Y-70408440D01*
X131684371Y-70413878D01*
X131686591Y-70416896D01*
X131721812Y-70467924D01*
X131721816Y-70467928D01*
X131721817Y-70467929D01*
X131768250Y-70509064D01*
X131770941Y-70511598D01*
X132269219Y-71009876D01*
X132763181Y-71503838D01*
X132796666Y-71565161D01*
X132799500Y-71591519D01*
X132799500Y-75408480D01*
X132779815Y-75475519D01*
X132763181Y-75496161D01*
X131246162Y-77013181D01*
X131184839Y-77046666D01*
X131158481Y-77049500D01*
X127523037Y-77049500D01*
X127519293Y-77049387D01*
X127457397Y-77045643D01*
X127457390Y-77045643D01*
X127416413Y-77053152D01*
X127396387Y-77056821D01*
X127392698Y-77057383D01*
X127331128Y-77064859D01*
X127331127Y-77064860D01*
X127321653Y-77068453D01*
X127300042Y-77074477D01*
X127290068Y-77076305D01*
X127233513Y-77101757D01*
X127230055Y-77103189D01*
X127172077Y-77125179D01*
X127172074Y-77125180D01*
X127172070Y-77125182D01*
X127172067Y-77125183D01*
X127172061Y-77125187D01*
X127163723Y-77130942D01*
X127144188Y-77141960D01*
X127134948Y-77146119D01*
X127134939Y-77146124D01*
X127086124Y-77184368D01*
X127083109Y-77186586D01*
X127032068Y-77221818D01*
X126990942Y-77268240D01*
X126988375Y-77270966D01*
X123996162Y-80263181D01*
X123934839Y-80296666D01*
X123908481Y-80299500D01*
X120591519Y-80299500D01*
X120524480Y-80279815D01*
X120503838Y-80263181D01*
X117240658Y-77000000D01*
X125444750Y-77000000D01*
X125462516Y-77134947D01*
X125463670Y-77143708D01*
X125463671Y-77143712D01*
X125519137Y-77277622D01*
X125519138Y-77277624D01*
X125519139Y-77277625D01*
X125607379Y-77392621D01*
X125722375Y-77480861D01*
X125856291Y-77536330D01*
X125983280Y-77553048D01*
X125999999Y-77555250D01*
X126000000Y-77555250D01*
X126000001Y-77555250D01*
X126014977Y-77553278D01*
X126143709Y-77536330D01*
X126277625Y-77480861D01*
X126392621Y-77392621D01*
X126480861Y-77277625D01*
X126536330Y-77143709D01*
X126555250Y-77000000D01*
X126555250Y-76999999D01*
X126555250Y-76991871D01*
X126559049Y-76991871D01*
X126566388Y-76940418D01*
X126591556Y-76904124D01*
X127108862Y-76386819D01*
X127170186Y-76353334D01*
X127196544Y-76350500D01*
X128763908Y-76350500D01*
X128830947Y-76370185D01*
X128850412Y-76388086D01*
X128851628Y-76386871D01*
X128857372Y-76392615D01*
X128857377Y-76392619D01*
X128857379Y-76392621D01*
X128972375Y-76480861D01*
X129106291Y-76536330D01*
X129233280Y-76553048D01*
X129249999Y-76555250D01*
X129250000Y-76555250D01*
X129250001Y-76555250D01*
X129264977Y-76553278D01*
X129393709Y-76536330D01*
X129527625Y-76480861D01*
X129642621Y-76392621D01*
X129730861Y-76277625D01*
X129786330Y-76143709D01*
X129805250Y-76000000D01*
X129786330Y-75856291D01*
X129730861Y-75722375D01*
X129642621Y-75607379D01*
X129527625Y-75519139D01*
X129527624Y-75519138D01*
X129527622Y-75519137D01*
X129393712Y-75463671D01*
X129393710Y-75463670D01*
X129393709Y-75463670D01*
X129321854Y-75454210D01*
X129250001Y-75444750D01*
X129249999Y-75444750D01*
X129106291Y-75463670D01*
X129106287Y-75463671D01*
X128972377Y-75519137D01*
X128857372Y-75607384D01*
X128851628Y-75613129D01*
X128849111Y-75610612D01*
X128805817Y-75642203D01*
X128763908Y-75649500D01*
X127049212Y-75649500D01*
X127023766Y-75646861D01*
X127014686Y-75644957D01*
X127014685Y-75644957D01*
X127014683Y-75644957D01*
X126982062Y-75649023D01*
X126974386Y-75649500D01*
X126970960Y-75649500D01*
X126950733Y-75652875D01*
X126948200Y-75653244D01*
X126898611Y-75659425D01*
X126891560Y-75661524D01*
X126884617Y-75663908D01*
X126840678Y-75687686D01*
X126838402Y-75688858D01*
X126793515Y-75710802D01*
X126787529Y-75715075D01*
X126781743Y-75719579D01*
X126747902Y-75756341D01*
X126746128Y-75758189D01*
X126095877Y-76408440D01*
X126034554Y-76441925D01*
X126008127Y-76443042D01*
X126008127Y-76444750D01*
X125999999Y-76444750D01*
X125856291Y-76463670D01*
X125856287Y-76463671D01*
X125722377Y-76519137D01*
X125607379Y-76607379D01*
X125519137Y-76722377D01*
X125463671Y-76856287D01*
X125463670Y-76856291D01*
X125444750Y-77000000D01*
X117240658Y-77000000D01*
X116965370Y-76724712D01*
X116926843Y-76694528D01*
X116865057Y-76646122D01*
X116777071Y-76606522D01*
X116709935Y-76576306D01*
X116709931Y-76576304D01*
X116542607Y-76545642D01*
X116542603Y-76545642D01*
X116415254Y-76553346D01*
X116372804Y-76555914D01*
X116291598Y-76581217D01*
X116210393Y-76606522D01*
X116064811Y-76694530D01*
X115944530Y-76814811D01*
X115856522Y-76960393D01*
X115840073Y-77013181D01*
X115812473Y-77101757D01*
X115805914Y-77122805D01*
X115795642Y-77292603D01*
X115795642Y-77292605D01*
X115826304Y-77459931D01*
X115826306Y-77459935D01*
X115853865Y-77521168D01*
X115896122Y-77615057D01*
X115930143Y-77658481D01*
X115974712Y-77715370D01*
X116918770Y-78659427D01*
X119738399Y-81479056D01*
X119740935Y-81481750D01*
X119771712Y-81516490D01*
X119782070Y-81528182D01*
X119833106Y-81563410D01*
X119836122Y-81565630D01*
X119851824Y-81577931D01*
X119884943Y-81603878D01*
X119889243Y-81605813D01*
X119894182Y-81608036D01*
X119913733Y-81619063D01*
X119922070Y-81624818D01*
X119980065Y-81646812D01*
X119983474Y-81648223D01*
X120024963Y-81666896D01*
X120040064Y-81673693D01*
X120040065Y-81673693D01*
X120040069Y-81673695D01*
X120050034Y-81675521D01*
X120071656Y-81681548D01*
X120071667Y-81681552D01*
X120081128Y-81685140D01*
X120126251Y-81690618D01*
X120142674Y-81692613D01*
X120146371Y-81693175D01*
X120207394Y-81704358D01*
X120262752Y-81701009D01*
X120269303Y-81700613D01*
X120273048Y-81700500D01*
X124226952Y-81700500D01*
X124230697Y-81700613D01*
X124238042Y-81701057D01*
X124292606Y-81704358D01*
X124330314Y-81697447D01*
X124353621Y-81693177D01*
X124357325Y-81692613D01*
X124375170Y-81690446D01*
X124418872Y-81685140D01*
X124428335Y-81681550D01*
X124449961Y-81675522D01*
X124450893Y-81675351D01*
X124459932Y-81673695D01*
X124516512Y-81648229D01*
X124519942Y-81646809D01*
X124577930Y-81624818D01*
X124586266Y-81619062D01*
X124605821Y-81608034D01*
X124615057Y-81603878D01*
X124663896Y-81565613D01*
X124666876Y-81563421D01*
X124717929Y-81528183D01*
X124759065Y-81481748D01*
X124761599Y-81479056D01*
X127753837Y-78486819D01*
X127815161Y-78453334D01*
X127841519Y-78450500D01*
X128789297Y-78450500D01*
X128856336Y-78470185D01*
X128902091Y-78522989D01*
X128912035Y-78592147D01*
X128883010Y-78655703D01*
X128848300Y-78683562D01*
X128840678Y-78687686D01*
X128838408Y-78688854D01*
X128793513Y-78710802D01*
X128787566Y-78715048D01*
X128781739Y-78719584D01*
X128747913Y-78756329D01*
X128746139Y-78758177D01*
X122286955Y-85217361D01*
X122267106Y-85233482D01*
X122259331Y-85238562D01*
X122239143Y-85264498D01*
X122234067Y-85270248D01*
X122231634Y-85272681D01*
X122231624Y-85272694D01*
X122219695Y-85289401D01*
X122218164Y-85291453D01*
X122187483Y-85330872D01*
X122183975Y-85337353D01*
X122180761Y-85343931D01*
X122166506Y-85391809D01*
X122165725Y-85394246D01*
X122149499Y-85441512D01*
X122148294Y-85448733D01*
X122147382Y-85456046D01*
X122149447Y-85505948D01*
X122149500Y-85508510D01*
X122149500Y-85513908D01*
X122129815Y-85580947D01*
X122111913Y-85600412D01*
X122113129Y-85601628D01*
X122107384Y-85607372D01*
X122019137Y-85722377D01*
X121963671Y-85856287D01*
X121963670Y-85856291D01*
X121947270Y-85980862D01*
X121944750Y-86000000D01*
X121952229Y-86056811D01*
X121963670Y-86143708D01*
X121963671Y-86143712D01*
X122019137Y-86277622D01*
X122019138Y-86277624D01*
X122019139Y-86277625D01*
X122107379Y-86392621D01*
X122222375Y-86480861D01*
X122356291Y-86536330D01*
X122483280Y-86553048D01*
X122499999Y-86555250D01*
X122500000Y-86555250D01*
X122500001Y-86555250D01*
X122514977Y-86553278D01*
X122643709Y-86536330D01*
X122777625Y-86480861D01*
X122892621Y-86392621D01*
X122980861Y-86277625D01*
X123036330Y-86143709D01*
X123055250Y-86000000D01*
X123038085Y-85869622D01*
X123314372Y-85869622D01*
X123330753Y-85994049D01*
X123333292Y-86013330D01*
X123333293Y-86013334D01*
X123388759Y-86147244D01*
X123388760Y-86147246D01*
X123388761Y-86147247D01*
X123477001Y-86262243D01*
X123591997Y-86350483D01*
X123725913Y-86405952D01*
X123869622Y-86424872D01*
X123877751Y-86424872D01*
X123877751Y-86428450D01*
X123930592Y-86436653D01*
X123965500Y-86461182D01*
X125217362Y-87713044D01*
X125233489Y-87732902D01*
X125238563Y-87740669D01*
X125238565Y-87740671D01*
X125264505Y-87760860D01*
X125270268Y-87765950D01*
X125272694Y-87768376D01*
X125289399Y-87780303D01*
X125291432Y-87781818D01*
X125330874Y-87812517D01*
X125330875Y-87812517D01*
X125330876Y-87812518D01*
X125337318Y-87816004D01*
X125343936Y-87819241D01*
X125391822Y-87833497D01*
X125394242Y-87834272D01*
X125441512Y-87850500D01*
X125441517Y-87850500D01*
X125448768Y-87851710D01*
X125456046Y-87852617D01*
X125505962Y-87850552D01*
X125508521Y-87850500D01*
X129950789Y-87850500D01*
X129976234Y-87853138D01*
X129985315Y-87855043D01*
X130001005Y-87853087D01*
X130017939Y-87850977D01*
X130025615Y-87850500D01*
X130029035Y-87850500D01*
X130029040Y-87850500D01*
X130038303Y-87848954D01*
X130049278Y-87847123D01*
X130051811Y-87846753D01*
X130101393Y-87840573D01*
X130101399Y-87840569D01*
X130108451Y-87838470D01*
X130115377Y-87836092D01*
X130115381Y-87836092D01*
X130144266Y-87820459D01*
X130159329Y-87812308D01*
X130161590Y-87811143D01*
X130206484Y-87789198D01*
X130206487Y-87789194D01*
X130212453Y-87784935D01*
X130218254Y-87780419D01*
X130218258Y-87780418D01*
X130252101Y-87743653D01*
X130253826Y-87741854D01*
X131713046Y-86282634D01*
X131732902Y-86266511D01*
X131740669Y-86261437D01*
X131760873Y-86235477D01*
X131765941Y-86229739D01*
X131768375Y-86227307D01*
X131780333Y-86210555D01*
X131781800Y-86208589D01*
X131812517Y-86169126D01*
X131812519Y-86169118D01*
X131816006Y-86162675D01*
X131819234Y-86156072D01*
X131819239Y-86156066D01*
X131833501Y-86108155D01*
X131834259Y-86105790D01*
X131850500Y-86058488D01*
X131850500Y-86058483D01*
X131851707Y-86051246D01*
X131852617Y-86043952D01*
X131850552Y-85994049D01*
X131850499Y-85991485D01*
X131850499Y-84862918D01*
X131850499Y-82446539D01*
X131870184Y-82379504D01*
X131886809Y-82358872D01*
X133029123Y-81216557D01*
X133090444Y-81183074D01*
X133116871Y-81182144D01*
X133116871Y-81180250D01*
X133125000Y-81180250D01*
X133268709Y-81161330D01*
X133402625Y-81105861D01*
X133517621Y-81017621D01*
X133605861Y-80902625D01*
X133661330Y-80768709D01*
X133680250Y-80625000D01*
X133661330Y-80481291D01*
X133605861Y-80347375D01*
X133517621Y-80232379D01*
X133402625Y-80144139D01*
X133402624Y-80144138D01*
X133402622Y-80144137D01*
X133268712Y-80088671D01*
X133268710Y-80088670D01*
X133268709Y-80088670D01*
X133196854Y-80079210D01*
X133125001Y-80069750D01*
X133124999Y-80069750D01*
X132981291Y-80088670D01*
X132981287Y-80088671D01*
X132847377Y-80144137D01*
X132732379Y-80232379D01*
X132644137Y-80347377D01*
X132588671Y-80481287D01*
X132588670Y-80481291D01*
X132569749Y-80625000D01*
X132569750Y-80633128D01*
X132566456Y-80633128D01*
X132557192Y-80687588D01*
X132533439Y-80720877D01*
X131286955Y-81967361D01*
X131267106Y-81983482D01*
X131259331Y-81988562D01*
X131239143Y-82014498D01*
X131234067Y-82020248D01*
X131231634Y-82022681D01*
X131231624Y-82022694D01*
X131219695Y-82039401D01*
X131218164Y-82041453D01*
X131187483Y-82080872D01*
X131183975Y-82087353D01*
X131180761Y-82093931D01*
X131166506Y-82141809D01*
X131165725Y-82144246D01*
X131149499Y-82191512D01*
X131148294Y-82198733D01*
X131147382Y-82206046D01*
X131149447Y-82255948D01*
X131149500Y-82258510D01*
X131149500Y-85803455D01*
X131129815Y-85870494D01*
X131113181Y-85891136D01*
X130244865Y-86759451D01*
X130183542Y-86792936D01*
X130113850Y-86787952D01*
X130057917Y-86746080D01*
X130033500Y-86680616D01*
X130036246Y-86651894D01*
X130035269Y-86651766D01*
X130055250Y-86500000D01*
X130055250Y-86499999D01*
X130045359Y-86424872D01*
X130036330Y-86356291D01*
X129980861Y-86222375D01*
X129892621Y-86107379D01*
X129892619Y-86107377D01*
X129892615Y-86107372D01*
X129886871Y-86101628D01*
X129889497Y-86099001D01*
X129858158Y-86056811D01*
X129850500Y-86013913D01*
X129850500Y-82696538D01*
X129870184Y-82629503D01*
X129886809Y-82608871D01*
X131154122Y-81341557D01*
X131215443Y-81308074D01*
X131241871Y-81307117D01*
X131241871Y-81305250D01*
X131250000Y-81305250D01*
X131393709Y-81286330D01*
X131527625Y-81230861D01*
X131642621Y-81142621D01*
X131730861Y-81027625D01*
X131786330Y-80893709D01*
X131805250Y-80750000D01*
X131786330Y-80606291D01*
X131734554Y-80481291D01*
X131730862Y-80472377D01*
X131730861Y-80472376D01*
X131730861Y-80472375D01*
X131642621Y-80357379D01*
X131527625Y-80269139D01*
X131527624Y-80269138D01*
X131527622Y-80269137D01*
X131393712Y-80213671D01*
X131393710Y-80213670D01*
X131393709Y-80213670D01*
X131321854Y-80204210D01*
X131250001Y-80194750D01*
X131249999Y-80194750D01*
X131106291Y-80213670D01*
X131106287Y-80213671D01*
X130972377Y-80269137D01*
X130857379Y-80357379D01*
X130769137Y-80472377D01*
X130713671Y-80606287D01*
X130713670Y-80606291D01*
X130694749Y-80749999D01*
X130694750Y-80758127D01*
X130691207Y-80758127D01*
X130682869Y-80811180D01*
X130658440Y-80845877D01*
X129286955Y-82217361D01*
X129267106Y-82233482D01*
X129259331Y-82238562D01*
X129239143Y-82264498D01*
X129234067Y-82270248D01*
X129231634Y-82272681D01*
X129231624Y-82272694D01*
X129219695Y-82289401D01*
X129218164Y-82291453D01*
X129187483Y-82330872D01*
X129183975Y-82337353D01*
X129180761Y-82343931D01*
X129180760Y-82343933D01*
X129180760Y-82343934D01*
X129170170Y-82379504D01*
X129166506Y-82391809D01*
X129165725Y-82394246D01*
X129149499Y-82441511D01*
X129148292Y-82448748D01*
X129147382Y-82456043D01*
X129149446Y-82505946D01*
X129149499Y-82508508D01*
X129149499Y-86013908D01*
X129129814Y-86080947D01*
X129111994Y-86100493D01*
X129113129Y-86101628D01*
X129107384Y-86107372D01*
X129019137Y-86222377D01*
X128963671Y-86356287D01*
X128963670Y-86356291D01*
X128944750Y-86499999D01*
X128944750Y-86500000D01*
X128963670Y-86643708D01*
X128963671Y-86643712D01*
X129019137Y-86777622D01*
X129019138Y-86777624D01*
X129019139Y-86777625D01*
X129107379Y-86892621D01*
X129140438Y-86917988D01*
X129152345Y-86927125D01*
X129193547Y-86983553D01*
X129197702Y-87053299D01*
X129163489Y-87114219D01*
X129101772Y-87146971D01*
X129076858Y-87149500D01*
X125696543Y-87149500D01*
X125629504Y-87129815D01*
X125608862Y-87113181D01*
X124461181Y-85965500D01*
X124427696Y-85904177D01*
X124426794Y-85877751D01*
X124424872Y-85877751D01*
X124424872Y-85869622D01*
X124422923Y-85854817D01*
X124405952Y-85725913D01*
X124356854Y-85607379D01*
X124350484Y-85591999D01*
X124350483Y-85591998D01*
X124350483Y-85591997D01*
X124262243Y-85477001D01*
X124147247Y-85388761D01*
X124147246Y-85388760D01*
X124147244Y-85388759D01*
X124013334Y-85333293D01*
X124013332Y-85333292D01*
X124013331Y-85333292D01*
X123941476Y-85323832D01*
X123869623Y-85314372D01*
X123869621Y-85314372D01*
X123725913Y-85333292D01*
X123725909Y-85333293D01*
X123591999Y-85388759D01*
X123477001Y-85477001D01*
X123388759Y-85591999D01*
X123333293Y-85725909D01*
X123333292Y-85725913D01*
X123316128Y-85856287D01*
X123314372Y-85869622D01*
X123038085Y-85869622D01*
X123036330Y-85856291D01*
X122980861Y-85722375D01*
X122956945Y-85691207D01*
X122931751Y-85626038D01*
X122945789Y-85557593D01*
X122967637Y-85528043D01*
X123260365Y-85235315D01*
X127394956Y-85235315D01*
X127399023Y-85267937D01*
X127399500Y-85275614D01*
X127399500Y-85279040D01*
X127401229Y-85289401D01*
X127402876Y-85299276D01*
X127403245Y-85301808D01*
X127409427Y-85351393D01*
X127411520Y-85358426D01*
X127413907Y-85365379D01*
X127413908Y-85365381D01*
X127426560Y-85388759D01*
X127433840Y-85402212D01*
X127448434Y-85470541D01*
X127447723Y-85477411D01*
X127444750Y-85499995D01*
X127444749Y-85500000D01*
X127463670Y-85643708D01*
X127463671Y-85643712D01*
X127519137Y-85777622D01*
X127519138Y-85777624D01*
X127519139Y-85777625D01*
X127607379Y-85892621D01*
X127722375Y-85980861D01*
X127856291Y-86036330D01*
X127983280Y-86053048D01*
X127999999Y-86055250D01*
X128000000Y-86055250D01*
X128000001Y-86055250D01*
X128014977Y-86053278D01*
X128143709Y-86036330D01*
X128277625Y-85980861D01*
X128392621Y-85892621D01*
X128480861Y-85777625D01*
X128536330Y-85643709D01*
X128555250Y-85500000D01*
X128536330Y-85356291D01*
X128485462Y-85233482D01*
X128480862Y-85222377D01*
X128480861Y-85222376D01*
X128480861Y-85222375D01*
X128392621Y-85107379D01*
X128277625Y-85019139D01*
X128277624Y-85019138D01*
X128277622Y-85019137D01*
X128177047Y-84977479D01*
X128122643Y-84933639D01*
X128100578Y-84867345D01*
X128100500Y-84862974D01*
X128100500Y-82196542D01*
X128120185Y-82129502D01*
X128136814Y-82108866D01*
X129404122Y-80841557D01*
X129465443Y-80808074D01*
X129491871Y-80807117D01*
X129491871Y-80805250D01*
X129500000Y-80805250D01*
X129643709Y-80786330D01*
X129777625Y-80730861D01*
X129892621Y-80642621D01*
X129980861Y-80527625D01*
X130036330Y-80393709D01*
X130055250Y-80250000D01*
X130036330Y-80106291D01*
X129996446Y-80010000D01*
X129980862Y-79972377D01*
X129980861Y-79972376D01*
X129980861Y-79972375D01*
X129892621Y-79857379D01*
X129777625Y-79769139D01*
X129777624Y-79769138D01*
X129777622Y-79769137D01*
X129643712Y-79713671D01*
X129643710Y-79713670D01*
X129643709Y-79713670D01*
X129571854Y-79704210D01*
X129500001Y-79694750D01*
X129499999Y-79694750D01*
X129356291Y-79713670D01*
X129356287Y-79713671D01*
X129222377Y-79769137D01*
X129107379Y-79857379D01*
X129019137Y-79972377D01*
X128963671Y-80106287D01*
X128963670Y-80106291D01*
X128944749Y-80249999D01*
X128944750Y-80258127D01*
X128941207Y-80258127D01*
X128932869Y-80311180D01*
X128908440Y-80345877D01*
X127536955Y-81717361D01*
X127517106Y-81733482D01*
X127509331Y-81738562D01*
X127489143Y-81764498D01*
X127484067Y-81770248D01*
X127481634Y-81772681D01*
X127481624Y-81772694D01*
X127469695Y-81789401D01*
X127468164Y-81791453D01*
X127437483Y-81830872D01*
X127433975Y-81837353D01*
X127430761Y-81843931D01*
X127416506Y-81891809D01*
X127415725Y-81894246D01*
X127399499Y-81941512D01*
X127398294Y-81948733D01*
X127397382Y-81956048D01*
X127399446Y-82005949D01*
X127399499Y-82008511D01*
X127399499Y-85200790D01*
X127396861Y-85226232D01*
X127394956Y-85235315D01*
X123260365Y-85235315D01*
X129108862Y-79386819D01*
X129170186Y-79353334D01*
X129196544Y-79350500D01*
X133450789Y-79350500D01*
X133476234Y-79353138D01*
X133485315Y-79355043D01*
X133501005Y-79353087D01*
X133517939Y-79350977D01*
X133525615Y-79350500D01*
X133529035Y-79350500D01*
X133529040Y-79350500D01*
X133538303Y-79348954D01*
X133549278Y-79347123D01*
X133551811Y-79346753D01*
X133601393Y-79340573D01*
X133601399Y-79340569D01*
X133608451Y-79338470D01*
X133615379Y-79336092D01*
X133615381Y-79336092D01*
X133652206Y-79316162D01*
X133720535Y-79301565D01*
X133727403Y-79302274D01*
X133750000Y-79305250D01*
X133893709Y-79286330D01*
X134027625Y-79230861D01*
X134142621Y-79142621D01*
X134230861Y-79027625D01*
X134286330Y-78893709D01*
X134302560Y-78770425D01*
X134309967Y-78753682D01*
X134306523Y-78748323D01*
X134302561Y-78729574D01*
X134296503Y-78683562D01*
X134286330Y-78606291D01*
X134242210Y-78499775D01*
X134230862Y-78472377D01*
X134230861Y-78472376D01*
X134230861Y-78472375D01*
X134142621Y-78357379D01*
X134027625Y-78269139D01*
X134027624Y-78269138D01*
X134027622Y-78269137D01*
X133893712Y-78213671D01*
X133893710Y-78213670D01*
X133893709Y-78213670D01*
X133821854Y-78204210D01*
X133750001Y-78194750D01*
X133749999Y-78194750D01*
X133606291Y-78213670D01*
X133606287Y-78213671D01*
X133472377Y-78269137D01*
X133357379Y-78357379D01*
X133269137Y-78472377D01*
X133227479Y-78572952D01*
X133183639Y-78627356D01*
X133117345Y-78649421D01*
X133112918Y-78649500D01*
X131785864Y-78649500D01*
X131718825Y-78629815D01*
X131673070Y-78577011D01*
X131663126Y-78507853D01*
X131692151Y-78444297D01*
X131734969Y-78412426D01*
X131766512Y-78398229D01*
X131769942Y-78396809D01*
X131827930Y-78374818D01*
X131836266Y-78369062D01*
X131855821Y-78358034D01*
X131865057Y-78353878D01*
X131913896Y-78315613D01*
X131916876Y-78313421D01*
X131967929Y-78278183D01*
X132009065Y-78231748D01*
X132011599Y-78229056D01*
X133412322Y-76828334D01*
X133473641Y-76794852D01*
X133543333Y-76799836D01*
X133587680Y-76828337D01*
X134513181Y-77753838D01*
X134546666Y-77815161D01*
X134549500Y-77841519D01*
X134549500Y-78713388D01*
X134539141Y-78748663D01*
X134548019Y-78767505D01*
X134549500Y-78786611D01*
X134549500Y-80408480D01*
X134529815Y-80475519D01*
X134513181Y-80496161D01*
X133020966Y-81988375D01*
X133018240Y-81990942D01*
X132971818Y-82032068D01*
X132936586Y-82083109D01*
X132934368Y-82086124D01*
X132896124Y-82134939D01*
X132896119Y-82134948D01*
X132891960Y-82144188D01*
X132880942Y-82163723D01*
X132875187Y-82172061D01*
X132875183Y-82172067D01*
X132875182Y-82172070D01*
X132875180Y-82172074D01*
X132875179Y-82172077D01*
X132853189Y-82230055D01*
X132851757Y-82233513D01*
X132826305Y-82290068D01*
X132824477Y-82300042D01*
X132818453Y-82321653D01*
X132814860Y-82331127D01*
X132814859Y-82331128D01*
X132807384Y-82392685D01*
X132806821Y-82396386D01*
X132795642Y-82457390D01*
X132795642Y-82457395D01*
X132799387Y-82519302D01*
X132799500Y-82523047D01*
X132799500Y-83226951D01*
X132799387Y-83230696D01*
X132795642Y-83292603D01*
X132795642Y-83292605D01*
X132806821Y-83353612D01*
X132807384Y-83357313D01*
X132814859Y-83418870D01*
X132814860Y-83418874D01*
X132818451Y-83428343D01*
X132824474Y-83449946D01*
X132826304Y-83459930D01*
X132851759Y-83516490D01*
X132853189Y-83519941D01*
X132875182Y-83577930D01*
X132875183Y-83577931D01*
X132880936Y-83586266D01*
X132891961Y-83605813D01*
X132896120Y-83615055D01*
X132896124Y-83615060D01*
X132934371Y-83663878D01*
X132936591Y-83666896D01*
X132971812Y-83717924D01*
X132971816Y-83717928D01*
X132971817Y-83717929D01*
X133018250Y-83759064D01*
X133020941Y-83761598D01*
X139582268Y-90322925D01*
X146097162Y-96837819D01*
X146130647Y-96899142D01*
X146125663Y-96968834D01*
X146083791Y-97024767D01*
X146018327Y-97049184D01*
X146009481Y-97049500D01*
X141023048Y-97049500D01*
X141019303Y-97049387D01*
X140957396Y-97045642D01*
X140957389Y-97045642D01*
X140896386Y-97056821D01*
X140892685Y-97057384D01*
X140831128Y-97064859D01*
X140831121Y-97064861D01*
X140821647Y-97068454D01*
X140800049Y-97074475D01*
X140790069Y-97076304D01*
X140733519Y-97101755D01*
X140730060Y-97103188D01*
X140672071Y-97125181D01*
X140672066Y-97125184D01*
X140663722Y-97130943D01*
X140644187Y-97141961D01*
X140634947Y-97146120D01*
X140634945Y-97146121D01*
X140586136Y-97184359D01*
X140583122Y-97186576D01*
X140532070Y-97221817D01*
X140532068Y-97221818D01*
X140490942Y-97268240D01*
X140488375Y-97270966D01*
X137517192Y-100242150D01*
X137517191Y-100242151D01*
X135746162Y-102013181D01*
X135684839Y-102046666D01*
X135658481Y-102049500D01*
X131973048Y-102049500D01*
X131969303Y-102049387D01*
X131907396Y-102045642D01*
X131907392Y-102045642D01*
X131897424Y-102047469D01*
X131875073Y-102049500D01*
X112841519Y-102049500D01*
X112774480Y-102029815D01*
X112753838Y-102013181D01*
X108986819Y-98246162D01*
X108953334Y-98184839D01*
X108950500Y-98158481D01*
X108950500Y-92500000D01*
X111444750Y-92500000D01*
X111457899Y-92599878D01*
X111463670Y-92643708D01*
X111463671Y-92643712D01*
X111519137Y-92777622D01*
X111519138Y-92777624D01*
X111519139Y-92777625D01*
X111607379Y-92892621D01*
X111722375Y-92980861D01*
X111856291Y-93036330D01*
X111983280Y-93053048D01*
X111999999Y-93055250D01*
X112000000Y-93055250D01*
X112000001Y-93055250D01*
X112014977Y-93053278D01*
X112143709Y-93036330D01*
X112277625Y-92980861D01*
X112392621Y-92892621D01*
X112480861Y-92777625D01*
X112536330Y-92643709D01*
X112555250Y-92500000D01*
X112555250Y-92499999D01*
X112555250Y-92491871D01*
X112559049Y-92491871D01*
X112566388Y-92440418D01*
X112591556Y-92404124D01*
X113713046Y-91282634D01*
X113732902Y-91266511D01*
X113740669Y-91261437D01*
X113760873Y-91235477D01*
X113765941Y-91229739D01*
X113768375Y-91227307D01*
X113780333Y-91210555D01*
X113781800Y-91208589D01*
X113812517Y-91169126D01*
X113812519Y-91169118D01*
X113816006Y-91162675D01*
X113819234Y-91156072D01*
X113819239Y-91156066D01*
X113833501Y-91108155D01*
X113834254Y-91105804D01*
X113850500Y-91058488D01*
X113850499Y-91058477D01*
X113851704Y-91051259D01*
X113852613Y-91043964D01*
X113852617Y-91043954D01*
X113850552Y-90994049D01*
X113850500Y-90991489D01*
X113850500Y-90236092D01*
X113870185Y-90169053D01*
X113888114Y-90149609D01*
X113886874Y-90148369D01*
X113892619Y-90142623D01*
X113904457Y-90127196D01*
X113980861Y-90027625D01*
X114036330Y-89893709D01*
X114055250Y-89750000D01*
X114036330Y-89606291D01*
X113980861Y-89472375D01*
X113892621Y-89357379D01*
X113777625Y-89269139D01*
X113777624Y-89269138D01*
X113777622Y-89269137D01*
X113643712Y-89213671D01*
X113643710Y-89213670D01*
X113643709Y-89213670D01*
X113571854Y-89204210D01*
X113500001Y-89194750D01*
X113499999Y-89194750D01*
X113356291Y-89213670D01*
X113356287Y-89213671D01*
X113222377Y-89269137D01*
X113107379Y-89357379D01*
X113019137Y-89472377D01*
X112963671Y-89606287D01*
X112963670Y-89606291D01*
X112944750Y-89749999D01*
X112944750Y-89750000D01*
X112963670Y-89893708D01*
X112963671Y-89893712D01*
X113019138Y-90027623D01*
X113019139Y-90027625D01*
X113107380Y-90142623D01*
X113113126Y-90148369D01*
X113110574Y-90150920D01*
X113142091Y-90193873D01*
X113149500Y-90236092D01*
X113149500Y-90803454D01*
X113129815Y-90870493D01*
X113113181Y-90891135D01*
X112095877Y-91908439D01*
X112034554Y-91941924D01*
X112008128Y-91943208D01*
X112008128Y-91944750D01*
X112000000Y-91944750D01*
X111856291Y-91963670D01*
X111856287Y-91963671D01*
X111722377Y-92019137D01*
X111607379Y-92107379D01*
X111519137Y-92222377D01*
X111463671Y-92356287D01*
X111463670Y-92356291D01*
X111444750Y-92500000D01*
X108950500Y-92500000D01*
X108950500Y-91591519D01*
X108970185Y-91524480D01*
X108986819Y-91503838D01*
X110059759Y-90430898D01*
X110062585Y-90423418D01*
X110075612Y-90401868D01*
X110079864Y-90395706D01*
X110103878Y-90365057D01*
X110119856Y-90329552D01*
X110123327Y-90322937D01*
X110143478Y-90289606D01*
X110155058Y-90252439D01*
X110157715Y-90245435D01*
X110161920Y-90236092D01*
X110173695Y-90209931D01*
X110180716Y-90171612D01*
X110182500Y-90164374D01*
X110194086Y-90127196D01*
X110196435Y-90088334D01*
X110197337Y-90080908D01*
X110204358Y-90042606D01*
X110203452Y-90027625D01*
X110202007Y-90003748D01*
X110202007Y-89996252D01*
X110202424Y-89989340D01*
X110204358Y-89957394D01*
X110197337Y-89919088D01*
X110196436Y-89911666D01*
X110194086Y-89872804D01*
X110182505Y-89835639D01*
X110180715Y-89828378D01*
X110173695Y-89790069D01*
X110157713Y-89754562D01*
X110155059Y-89747564D01*
X110143478Y-89710394D01*
X110123333Y-89677071D01*
X110119853Y-89670440D01*
X110103878Y-89634944D01*
X110079863Y-89604291D01*
X110075612Y-89598132D01*
X110055474Y-89564818D01*
X110055471Y-89564814D01*
X109917745Y-89427088D01*
X109917742Y-89427086D01*
X109134364Y-88643708D01*
X108261598Y-87770941D01*
X108259064Y-87768250D01*
X108217929Y-87721817D01*
X108217928Y-87721816D01*
X108217924Y-87721812D01*
X108166896Y-87686591D01*
X108163887Y-87684377D01*
X108115060Y-87646124D01*
X108115055Y-87646120D01*
X108105813Y-87641961D01*
X108086266Y-87630936D01*
X108077931Y-87625183D01*
X108077932Y-87625183D01*
X108077930Y-87625182D01*
X108019941Y-87603189D01*
X108016490Y-87601759D01*
X107959930Y-87576304D01*
X107949946Y-87574474D01*
X107928343Y-87568451D01*
X107918874Y-87564860D01*
X107918870Y-87564859D01*
X107857313Y-87557384D01*
X107853612Y-87556821D01*
X107792608Y-87545642D01*
X107792603Y-87545642D01*
X107730697Y-87549387D01*
X107726952Y-87549500D01*
X107091519Y-87549500D01*
X107024480Y-87529815D01*
X107003838Y-87513181D01*
X100486819Y-80996162D01*
X100453334Y-80934839D01*
X100450500Y-80908481D01*
X100450500Y-78773035D01*
X100450613Y-78769290D01*
X100454357Y-78707394D01*
X100443177Y-78646386D01*
X100442615Y-78642689D01*
X100435140Y-78581129D01*
X100435139Y-78581125D01*
X100431546Y-78571651D01*
X100425519Y-78550029D01*
X100423694Y-78540070D01*
X100423694Y-78540068D01*
X100420598Y-78533190D01*
X100398243Y-78483520D01*
X100396809Y-78480057D01*
X100393065Y-78470185D01*
X100374818Y-78422070D01*
X100369059Y-78413727D01*
X100358030Y-78394172D01*
X100353877Y-78384943D01*
X100353874Y-78384938D01*
X100315633Y-78336127D01*
X100313413Y-78333110D01*
X100297116Y-78309500D01*
X100278183Y-78282071D01*
X100231750Y-78240935D01*
X100229056Y-78238399D01*
X98360842Y-76370185D01*
X97736819Y-75746161D01*
X97703334Y-75684838D01*
X97700500Y-75658480D01*
X97700500Y-74500000D01*
X126444750Y-74500000D01*
X126463670Y-74643708D01*
X126463671Y-74643712D01*
X126519137Y-74777622D01*
X126519138Y-74777624D01*
X126519139Y-74777625D01*
X126607379Y-74892621D01*
X126722375Y-74980861D01*
X126856291Y-75036330D01*
X126983280Y-75053048D01*
X126999999Y-75055250D01*
X127000000Y-75055250D01*
X127000001Y-75055250D01*
X127014977Y-75053278D01*
X127143709Y-75036330D01*
X127277625Y-74980861D01*
X127392621Y-74892621D01*
X127392623Y-74892617D01*
X127392627Y-74892615D01*
X127398372Y-74886871D01*
X127400888Y-74889387D01*
X127444183Y-74857797D01*
X127486092Y-74850500D01*
X129450789Y-74850500D01*
X129476234Y-74853138D01*
X129485315Y-74855043D01*
X129501005Y-74853087D01*
X129517939Y-74850977D01*
X129525615Y-74850500D01*
X129529035Y-74850500D01*
X129529040Y-74850500D01*
X129538303Y-74848954D01*
X129549278Y-74847123D01*
X129551811Y-74846753D01*
X129601393Y-74840573D01*
X129601399Y-74840569D01*
X129608451Y-74838470D01*
X129615377Y-74836092D01*
X129615381Y-74836092D01*
X129644266Y-74820459D01*
X129659329Y-74812308D01*
X129661590Y-74811143D01*
X129706484Y-74789198D01*
X129706487Y-74789194D01*
X129712453Y-74784935D01*
X129718254Y-74780419D01*
X129718258Y-74780418D01*
X129752101Y-74743653D01*
X129753826Y-74741854D01*
X130904123Y-73591557D01*
X130965444Y-73558074D01*
X130991871Y-73557144D01*
X130991871Y-73555250D01*
X131000000Y-73555250D01*
X131143709Y-73536330D01*
X131277625Y-73480861D01*
X131392621Y-73392621D01*
X131480861Y-73277625D01*
X131536330Y-73143709D01*
X131555250Y-73000000D01*
X131554057Y-72990942D01*
X131544732Y-72920112D01*
X131536330Y-72856291D01*
X131480861Y-72722375D01*
X131392621Y-72607379D01*
X131277625Y-72519139D01*
X131277624Y-72519138D01*
X131277622Y-72519137D01*
X131143712Y-72463671D01*
X131143710Y-72463670D01*
X131143709Y-72463670D01*
X131043675Y-72450500D01*
X131000001Y-72444750D01*
X130999999Y-72444750D01*
X130856291Y-72463670D01*
X130856287Y-72463671D01*
X130722377Y-72519137D01*
X130607379Y-72607379D01*
X130519137Y-72722377D01*
X130463671Y-72856287D01*
X130463670Y-72856291D01*
X130444749Y-73000000D01*
X130444750Y-73008128D01*
X130441456Y-73008128D01*
X130432192Y-73062588D01*
X130408439Y-73095877D01*
X129391137Y-74113181D01*
X129329814Y-74146666D01*
X129303456Y-74149500D01*
X127486092Y-74149500D01*
X127419053Y-74129815D01*
X127399587Y-74111913D01*
X127398372Y-74113129D01*
X127392627Y-74107384D01*
X127392621Y-74107379D01*
X127277625Y-74019139D01*
X127277624Y-74019138D01*
X127277622Y-74019137D01*
X127143712Y-73963671D01*
X127143710Y-73963670D01*
X127143709Y-73963670D01*
X127071854Y-73954210D01*
X127000001Y-73944750D01*
X126999999Y-73944750D01*
X126856291Y-73963670D01*
X126856287Y-73963671D01*
X126722377Y-74019137D01*
X126607379Y-74107379D01*
X126519137Y-74222377D01*
X126463671Y-74356287D01*
X126463670Y-74356291D01*
X126444750Y-74499999D01*
X126444750Y-74500000D01*
X97700500Y-74500000D01*
X97700500Y-73841518D01*
X97720185Y-73774479D01*
X97736819Y-73753837D01*
X99003838Y-72486819D01*
X99065161Y-72453334D01*
X99091519Y-72450500D01*
X99792374Y-72450500D01*
X99839727Y-72444750D01*
X99918872Y-72435140D01*
X100077930Y-72374818D01*
X100217929Y-72278183D01*
X100330734Y-72150852D01*
X100409790Y-72000225D01*
X100450500Y-71835056D01*
X100450500Y-71664944D01*
X100409790Y-71499775D01*
X100399863Y-71480861D01*
X100330736Y-71349150D01*
X100291844Y-71305250D01*
X100217929Y-71221817D01*
X100118715Y-71153334D01*
X100077931Y-71125182D01*
X99918874Y-71064860D01*
X99918868Y-71064859D01*
X99792374Y-71049500D01*
X99792372Y-71049500D01*
X98773048Y-71049500D01*
X98769303Y-71049387D01*
X98707396Y-71045642D01*
X98707389Y-71045642D01*
X98646386Y-71056821D01*
X98642685Y-71057384D01*
X98581128Y-71064859D01*
X98581121Y-71064861D01*
X98571647Y-71068454D01*
X98550049Y-71074475D01*
X98540069Y-71076304D01*
X98483519Y-71101755D01*
X98480060Y-71103188D01*
X98422071Y-71125181D01*
X98422066Y-71125184D01*
X98413722Y-71130943D01*
X98394187Y-71141961D01*
X98384947Y-71146120D01*
X98384945Y-71146121D01*
X98336136Y-71184359D01*
X98333122Y-71186576D01*
X98282070Y-71221817D01*
X98282068Y-71221818D01*
X98240942Y-71268240D01*
X98238375Y-71270966D01*
X96520966Y-72988375D01*
X96518240Y-72990942D01*
X96471818Y-73032068D01*
X96436586Y-73083109D01*
X96434367Y-73086124D01*
X96422112Y-73101767D01*
X96365273Y-73142401D01*
X96295489Y-73145855D01*
X96234916Y-73111032D01*
X96202785Y-73048989D01*
X96200500Y-73025296D01*
X96200500Y-68591519D01*
X96220185Y-68524480D01*
X96236819Y-68503838D01*
X98503838Y-66236819D01*
X98565161Y-66203334D01*
X98591519Y-66200500D01*
X99914944Y-66200500D01*
X99957628Y-66200500D01*
X101358481Y-66200500D01*
X101425520Y-66220185D01*
X101446162Y-66236819D01*
X104784629Y-69575287D01*
X104784633Y-69575290D01*
X104884943Y-69653878D01*
X105040068Y-69723694D01*
X105207394Y-69754357D01*
X105377196Y-69744086D01*
X105539606Y-69693478D01*
X105685185Y-69605472D01*
X105805472Y-69485185D01*
X105893478Y-69339606D01*
X105944086Y-69177196D01*
X105954357Y-69007394D01*
X105923694Y-68840068D01*
X105853878Y-68684943D01*
X105775290Y-68584633D01*
X105775287Y-68584629D01*
X103440657Y-66250000D01*
X110944750Y-66250000D01*
X110963670Y-66393708D01*
X110963671Y-66393712D01*
X111019138Y-66527623D01*
X111019139Y-66527625D01*
X111107380Y-66642623D01*
X111113126Y-66648369D01*
X111110694Y-66650800D01*
X111142460Y-66694909D01*
X111149499Y-66736092D01*
X111149499Y-69950790D01*
X111146861Y-69976232D01*
X111144956Y-69985315D01*
X111149023Y-70017937D01*
X111149500Y-70025614D01*
X111149500Y-70029040D01*
X111151763Y-70042605D01*
X111152876Y-70049276D01*
X111153245Y-70051808D01*
X111159427Y-70101393D01*
X111161520Y-70108426D01*
X111163907Y-70115379D01*
X111163908Y-70115381D01*
X111171608Y-70129609D01*
X111187691Y-70159330D01*
X111188864Y-70161608D01*
X111210802Y-70206484D01*
X111210804Y-70206486D01*
X111215071Y-70212464D01*
X111219582Y-70218259D01*
X111256341Y-70252098D01*
X111258190Y-70253872D01*
X111658440Y-70654122D01*
X111691925Y-70715445D01*
X111693067Y-70741873D01*
X111694750Y-70741873D01*
X111694749Y-70750000D01*
X111713670Y-70893708D01*
X111713671Y-70893712D01*
X111769137Y-71027622D01*
X111769138Y-71027624D01*
X111769139Y-71027625D01*
X111857379Y-71142621D01*
X111972375Y-71230861D01*
X111972376Y-71230861D01*
X111972377Y-71230862D01*
X112002150Y-71243194D01*
X112106291Y-71286330D01*
X112232355Y-71302927D01*
X112249999Y-71305250D01*
X112250000Y-71305250D01*
X112250001Y-71305250D01*
X112267622Y-71302930D01*
X112393709Y-71286330D01*
X112527625Y-71230861D01*
X112642621Y-71142621D01*
X112730861Y-71027625D01*
X112786330Y-70893709D01*
X112805250Y-70750000D01*
X112786330Y-70606291D01*
X112749350Y-70517013D01*
X112730862Y-70472377D01*
X112730861Y-70472376D01*
X112730861Y-70472375D01*
X112642621Y-70357379D01*
X112527625Y-70269139D01*
X112527624Y-70269138D01*
X112527622Y-70269137D01*
X112393712Y-70213671D01*
X112393710Y-70213670D01*
X112393709Y-70213670D01*
X112289467Y-70199946D01*
X112250001Y-70194750D01*
X112241873Y-70194750D01*
X112241873Y-70191243D01*
X112188613Y-70182772D01*
X112154122Y-70158440D01*
X111886819Y-69891137D01*
X111853334Y-69829814D01*
X111850500Y-69803456D01*
X111850500Y-67250000D01*
X112694750Y-67250000D01*
X112713670Y-67393708D01*
X112713671Y-67393712D01*
X112769138Y-67527623D01*
X112769139Y-67527625D01*
X112857380Y-67642623D01*
X112863126Y-67648369D01*
X112860574Y-67650920D01*
X112892091Y-67693873D01*
X112899500Y-67736092D01*
X112899500Y-69950788D01*
X112896861Y-69976232D01*
X112894957Y-69985311D01*
X112894957Y-69985317D01*
X112899023Y-70017937D01*
X112899500Y-70025614D01*
X112899500Y-70029040D01*
X112901763Y-70042605D01*
X112902876Y-70049276D01*
X112903245Y-70051808D01*
X112909427Y-70101393D01*
X112911520Y-70108426D01*
X112913907Y-70115379D01*
X112913908Y-70115381D01*
X112921608Y-70129609D01*
X112937691Y-70159330D01*
X112938864Y-70161608D01*
X112960802Y-70206484D01*
X112960804Y-70206486D01*
X112965071Y-70212464D01*
X112969582Y-70218259D01*
X113006341Y-70252098D01*
X113008190Y-70253872D01*
X113658440Y-70904122D01*
X113691925Y-70965445D01*
X113693067Y-70991873D01*
X113694750Y-70991873D01*
X113694749Y-71000000D01*
X113708248Y-71102527D01*
X113712831Y-71137340D01*
X113713670Y-71143708D01*
X113713671Y-71143712D01*
X113769137Y-71277622D01*
X113769138Y-71277624D01*
X113769139Y-71277625D01*
X113857379Y-71392621D01*
X113972375Y-71480861D01*
X113972376Y-71480861D01*
X113972377Y-71480862D01*
X113983070Y-71485291D01*
X114106291Y-71536330D01*
X114233280Y-71553048D01*
X114249999Y-71555250D01*
X114250000Y-71555250D01*
X114250001Y-71555250D01*
X114264977Y-71553278D01*
X114393709Y-71536330D01*
X114527625Y-71480861D01*
X114642621Y-71392621D01*
X114730861Y-71277625D01*
X114786330Y-71143709D01*
X114805250Y-71000000D01*
X114786330Y-70856291D01*
X114749350Y-70767013D01*
X114730862Y-70722377D01*
X114730861Y-70722376D01*
X114730861Y-70722375D01*
X114642621Y-70607379D01*
X114527625Y-70519139D01*
X114527624Y-70519138D01*
X114527622Y-70519137D01*
X114393712Y-70463671D01*
X114393710Y-70463670D01*
X114393709Y-70463670D01*
X114302638Y-70451680D01*
X114250001Y-70444750D01*
X114241873Y-70444750D01*
X114241873Y-70441277D01*
X114188413Y-70432677D01*
X114154121Y-70408440D01*
X113636819Y-69891137D01*
X113603334Y-69829814D01*
X113600500Y-69803456D01*
X113600500Y-67736092D01*
X113620185Y-67669053D01*
X113638114Y-67649609D01*
X113636874Y-67648369D01*
X113642619Y-67642623D01*
X113648510Y-67634946D01*
X113730861Y-67527625D01*
X113786330Y-67393709D01*
X113805250Y-67250000D01*
X113804824Y-67246768D01*
X113803048Y-67233280D01*
X113786330Y-67106291D01*
X113730861Y-66972375D01*
X113642621Y-66857379D01*
X113527625Y-66769139D01*
X113527624Y-66769138D01*
X113527622Y-66769137D01*
X113393712Y-66713671D01*
X113393710Y-66713670D01*
X113393709Y-66713670D01*
X113321854Y-66704210D01*
X113250001Y-66694750D01*
X113249999Y-66694750D01*
X113106291Y-66713670D01*
X113106287Y-66713671D01*
X112972377Y-66769137D01*
X112857379Y-66857379D01*
X112769137Y-66972377D01*
X112713671Y-67106287D01*
X112713670Y-67106291D01*
X112694750Y-67249999D01*
X112694750Y-67250000D01*
X111850500Y-67250000D01*
X111850500Y-66736092D01*
X111870185Y-66669053D01*
X111888114Y-66649609D01*
X111886874Y-66648369D01*
X111892619Y-66642623D01*
X111892621Y-66642621D01*
X111980861Y-66527625D01*
X112036330Y-66393709D01*
X112055250Y-66250000D01*
X112036330Y-66106291D01*
X111980861Y-65972375D01*
X111892621Y-65857379D01*
X111777625Y-65769139D01*
X111777624Y-65769138D01*
X111777622Y-65769137D01*
X111643712Y-65713671D01*
X111643710Y-65713670D01*
X111643709Y-65713670D01*
X111571854Y-65704210D01*
X111500001Y-65694750D01*
X111499999Y-65694750D01*
X111356291Y-65713670D01*
X111356287Y-65713671D01*
X111222377Y-65769137D01*
X111107379Y-65857379D01*
X111019137Y-65972377D01*
X110963671Y-66106287D01*
X110963670Y-66106291D01*
X110944750Y-66249999D01*
X110944750Y-66250000D01*
X103440657Y-66250000D01*
X103120533Y-65929876D01*
X102211598Y-65020941D01*
X102209064Y-65018250D01*
X102167929Y-64971817D01*
X102167928Y-64971816D01*
X102167924Y-64971812D01*
X102116896Y-64936591D01*
X102113887Y-64934377D01*
X102069775Y-64899818D01*
X102065060Y-64896124D01*
X102065055Y-64896120D01*
X102055813Y-64891961D01*
X102036266Y-64880936D01*
X102027931Y-64875183D01*
X102027932Y-64875183D01*
X102027930Y-64875182D01*
X101969941Y-64853189D01*
X101966490Y-64851759D01*
X101909930Y-64826304D01*
X101899946Y-64824474D01*
X101878343Y-64818451D01*
X101868874Y-64814860D01*
X101868870Y-64814859D01*
X101807313Y-64807384D01*
X101803612Y-64806821D01*
X101742608Y-64795642D01*
X101742603Y-64795642D01*
X101680697Y-64799387D01*
X101676952Y-64799500D01*
X100824500Y-64799500D01*
X100757461Y-64779815D01*
X100711706Y-64727011D01*
X100700500Y-64675500D01*
X100700500Y-64360055D01*
X117799500Y-64360055D01*
X117840210Y-64525226D01*
X117919263Y-64675849D01*
X117919266Y-64675852D01*
X118032071Y-64803183D01*
X118122318Y-64865476D01*
X118172068Y-64899817D01*
X118172069Y-64899817D01*
X118172070Y-64899818D01*
X118222312Y-64918872D01*
X118300949Y-64948695D01*
X118331128Y-64960140D01*
X118407028Y-64969356D01*
X118457626Y-64975500D01*
X118457628Y-64975500D01*
X121451952Y-64975500D01*
X121455697Y-64975613D01*
X121463042Y-64976057D01*
X121517606Y-64979358D01*
X121558728Y-64971822D01*
X121578621Y-64968177D01*
X121582325Y-64967613D01*
X121600170Y-64965446D01*
X121643872Y-64960140D01*
X121653335Y-64956550D01*
X121674961Y-64950522D01*
X121675893Y-64950351D01*
X121684932Y-64948695D01*
X121741512Y-64923229D01*
X121744942Y-64921809D01*
X121802930Y-64899818D01*
X121811266Y-64894062D01*
X121830821Y-64883034D01*
X121840057Y-64878878D01*
X121888896Y-64840613D01*
X121891876Y-64838421D01*
X121942929Y-64803183D01*
X121984065Y-64756748D01*
X121986599Y-64754056D01*
X123253837Y-63486819D01*
X123315161Y-63453334D01*
X123341519Y-63450500D01*
X126042374Y-63450500D01*
X126084538Y-63445380D01*
X126168872Y-63435140D01*
X126327930Y-63374818D01*
X126467929Y-63278183D01*
X126580734Y-63150852D01*
X126603494Y-63107488D01*
X126659789Y-63000226D01*
X126659790Y-63000225D01*
X126700500Y-62835056D01*
X126700500Y-62664944D01*
X126659790Y-62499775D01*
X126659789Y-62499773D01*
X126580736Y-62349150D01*
X126561560Y-62327505D01*
X126467929Y-62221817D01*
X126413662Y-62184359D01*
X126327931Y-62125182D01*
X126168874Y-62064860D01*
X126168868Y-62064859D01*
X126042374Y-62049500D01*
X126042372Y-62049500D01*
X123023048Y-62049500D01*
X123019303Y-62049387D01*
X122957396Y-62045642D01*
X122957389Y-62045642D01*
X122896386Y-62056821D01*
X122892685Y-62057384D01*
X122831128Y-62064859D01*
X122831121Y-62064861D01*
X122821647Y-62068454D01*
X122800049Y-62074475D01*
X122790069Y-62076304D01*
X122733519Y-62101755D01*
X122730060Y-62103188D01*
X122672071Y-62125181D01*
X122672066Y-62125184D01*
X122663722Y-62130943D01*
X122644187Y-62141961D01*
X122634947Y-62146120D01*
X122634945Y-62146121D01*
X122586136Y-62184359D01*
X122583122Y-62186576D01*
X122532070Y-62221817D01*
X122532068Y-62221818D01*
X122490942Y-62268240D01*
X122488375Y-62270966D01*
X121221162Y-63538181D01*
X121159839Y-63571666D01*
X121133481Y-63574500D01*
X118457626Y-63574500D01*
X118331131Y-63589859D01*
X118331125Y-63589860D01*
X118172068Y-63650182D01*
X118032072Y-63746816D01*
X117919263Y-63874150D01*
X117840210Y-64024773D01*
X117799500Y-64189944D01*
X117799500Y-64360055D01*
X100700500Y-64360055D01*
X100700500Y-58707625D01*
X100685140Y-58581131D01*
X100685139Y-58581125D01*
X100624817Y-58422068D01*
X100590476Y-58372318D01*
X100528183Y-58282071D01*
X100400852Y-58169266D01*
X100400849Y-58169263D01*
X100250226Y-58090210D01*
X100085056Y-58049500D01*
X99914944Y-58049500D01*
X99749773Y-58090210D01*
X99599150Y-58169263D01*
X99471816Y-58282072D01*
X99375182Y-58422068D01*
X99314860Y-58581125D01*
X99314859Y-58581131D01*
X99299500Y-58707625D01*
X99299500Y-64675500D01*
X99279815Y-64742539D01*
X99227011Y-64788294D01*
X99175500Y-64799500D01*
X98273037Y-64799500D01*
X98269293Y-64799387D01*
X98207397Y-64795643D01*
X98207390Y-64795643D01*
X98146402Y-64806819D01*
X98142701Y-64807382D01*
X98081125Y-64814860D01*
X98071642Y-64818456D01*
X98050038Y-64824478D01*
X98048535Y-64824754D01*
X98040065Y-64826306D01*
X98040063Y-64826307D01*
X97983527Y-64851752D01*
X97980069Y-64853184D01*
X97922069Y-64875182D01*
X97913724Y-64880942D01*
X97894183Y-64891964D01*
X97884944Y-64896122D01*
X97884939Y-64896125D01*
X97836121Y-64934370D01*
X97833106Y-64936589D01*
X97782072Y-64971816D01*
X97782065Y-64971822D01*
X97740942Y-65018240D01*
X97738375Y-65020966D01*
X95020966Y-67738375D01*
X95018240Y-67740942D01*
X94971818Y-67782068D01*
X94936586Y-67833109D01*
X94934368Y-67836124D01*
X94896124Y-67884939D01*
X94896119Y-67884948D01*
X94891960Y-67894188D01*
X94880942Y-67913723D01*
X94875187Y-67922061D01*
X94875183Y-67922067D01*
X94875182Y-67922070D01*
X94875180Y-67922074D01*
X94875179Y-67922077D01*
X94853189Y-67980055D01*
X94851757Y-67983513D01*
X94826305Y-68040068D01*
X94824477Y-68050042D01*
X94818453Y-68071653D01*
X94814860Y-68081127D01*
X94814859Y-68081128D01*
X94807384Y-68142685D01*
X94806821Y-68146386D01*
X94795642Y-68207390D01*
X94795642Y-68207395D01*
X94799387Y-68269302D01*
X94799500Y-68273047D01*
X94799500Y-87976951D01*
X94799387Y-87980696D01*
X94795642Y-88042603D01*
X94795642Y-88042605D01*
X76200500Y-88042605D01*
X76200500Y-73660004D01*
X80844732Y-73660004D01*
X80863777Y-73914154D01*
X80917493Y-74149500D01*
X80920492Y-74162637D01*
X81013607Y-74399888D01*
X81141041Y-74620612D01*
X81299950Y-74819877D01*
X81486783Y-74993232D01*
X81697366Y-75136805D01*
X81697371Y-75136807D01*
X81697372Y-75136808D01*
X81697373Y-75136809D01*
X81795687Y-75184154D01*
X81926992Y-75247387D01*
X81926993Y-75247387D01*
X81926996Y-75247389D01*
X82170542Y-75322513D01*
X82422565Y-75360500D01*
X82677435Y-75360500D01*
X82929458Y-75322513D01*
X83173004Y-75247389D01*
X83402634Y-75136805D01*
X83613217Y-74993232D01*
X83800050Y-74819877D01*
X83958959Y-74620612D01*
X84086393Y-74399888D01*
X84179508Y-74162637D01*
X84236222Y-73914157D01*
X84255268Y-73660000D01*
X84246000Y-73536330D01*
X84236222Y-73405845D01*
X84233203Y-73392620D01*
X84179508Y-73157363D01*
X84086393Y-72920112D01*
X83958959Y-72699388D01*
X83800050Y-72500123D01*
X83613217Y-72326768D01*
X83402634Y-72183195D01*
X83402630Y-72183193D01*
X83402627Y-72183191D01*
X83402626Y-72183190D01*
X83173006Y-72072612D01*
X83173008Y-72072612D01*
X82929466Y-71997489D01*
X82929462Y-71997488D01*
X82929458Y-71997487D01*
X82808231Y-71979214D01*
X82677440Y-71959500D01*
X82677435Y-71959500D01*
X82422565Y-71959500D01*
X82422559Y-71959500D01*
X82265609Y-71983157D01*
X82170542Y-71997487D01*
X82170538Y-71997488D01*
X82170539Y-71997488D01*
X82170533Y-71997489D01*
X81926992Y-72072612D01*
X81697373Y-72183190D01*
X81697372Y-72183191D01*
X81486782Y-72326768D01*
X81299952Y-72500121D01*
X81299950Y-72500123D01*
X81141041Y-72699388D01*
X81013608Y-72920109D01*
X80920492Y-73157362D01*
X80920490Y-73157369D01*
X80863777Y-73405845D01*
X80844732Y-73659995D01*
X80844732Y-73660004D01*
X76200500Y-73660004D01*
X76200500Y-68580004D01*
X80844732Y-68580004D01*
X80863777Y-68834154D01*
X80911883Y-69044921D01*
X80920492Y-69082637D01*
X81013607Y-69319888D01*
X81141041Y-69540612D01*
X81299950Y-69739877D01*
X81486783Y-69913232D01*
X81697366Y-70056805D01*
X81697371Y-70056807D01*
X81697372Y-70056808D01*
X81697373Y-70056809D01*
X81795687Y-70104154D01*
X81926992Y-70167387D01*
X81926993Y-70167387D01*
X81926996Y-70167389D01*
X82170542Y-70242513D01*
X82422565Y-70280500D01*
X82677435Y-70280500D01*
X82929458Y-70242513D01*
X83173004Y-70167389D01*
X83402634Y-70056805D01*
X83613217Y-69913232D01*
X83800050Y-69739877D01*
X83958959Y-69540612D01*
X84086393Y-69319888D01*
X84179508Y-69082637D01*
X84236222Y-68834157D01*
X84255268Y-68580000D01*
X84252282Y-68540157D01*
X84236222Y-68325845D01*
X84233783Y-68315160D01*
X84179508Y-68077363D01*
X84086393Y-67840112D01*
X83958959Y-67619388D01*
X83800050Y-67420123D01*
X83613217Y-67246768D01*
X83402634Y-67103195D01*
X83402630Y-67103193D01*
X83402627Y-67103191D01*
X83402626Y-67103190D01*
X83173006Y-66992612D01*
X83173008Y-66992612D01*
X82929466Y-66917489D01*
X82929462Y-66917488D01*
X82929458Y-66917487D01*
X82808231Y-66899214D01*
X82677440Y-66879500D01*
X82677435Y-66879500D01*
X82422565Y-66879500D01*
X82422559Y-66879500D01*
X82265609Y-66903157D01*
X82170542Y-66917487D01*
X82170538Y-66917488D01*
X82170539Y-66917488D01*
X82170533Y-66917489D01*
X81926992Y-66992612D01*
X81697373Y-67103190D01*
X81697372Y-67103191D01*
X81486782Y-67246768D01*
X81299952Y-67420121D01*
X81299950Y-67420123D01*
X81141041Y-67619388D01*
X81013608Y-67840109D01*
X80920492Y-68077362D01*
X80920490Y-68077369D01*
X80863777Y-68325845D01*
X80844732Y-68579995D01*
X80844732Y-68580004D01*
X76200500Y-68580004D01*
X76200500Y-63500004D01*
X80844732Y-63500004D01*
X80863777Y-63754154D01*
X80910724Y-63959843D01*
X80920492Y-64002637D01*
X81013607Y-64239888D01*
X81141041Y-64460612D01*
X81299950Y-64659877D01*
X81486783Y-64833232D01*
X81697366Y-64976805D01*
X81697371Y-64976807D01*
X81697372Y-64976808D01*
X81697373Y-64976809D01*
X81789067Y-65020966D01*
X81926992Y-65087387D01*
X81926993Y-65087387D01*
X81926996Y-65087389D01*
X82170542Y-65162513D01*
X82422565Y-65200500D01*
X82677435Y-65200500D01*
X82929458Y-65162513D01*
X83173004Y-65087389D01*
X83402634Y-64976805D01*
X83613217Y-64833232D01*
X83800050Y-64659877D01*
X83958959Y-64460612D01*
X84086393Y-64239888D01*
X84179508Y-64002637D01*
X84236222Y-63754157D01*
X84249685Y-63574500D01*
X84255268Y-63500004D01*
X84255268Y-63499995D01*
X84236222Y-63245845D01*
X84221789Y-63182612D01*
X84179508Y-62997363D01*
X84086393Y-62760112D01*
X83958959Y-62539388D01*
X83800050Y-62340123D01*
X83613217Y-62166768D01*
X83402634Y-62023195D01*
X83402630Y-62023193D01*
X83402627Y-62023191D01*
X83402626Y-62023190D01*
X83173006Y-61912612D01*
X83173008Y-61912612D01*
X82929466Y-61837489D01*
X82929462Y-61837488D01*
X82929458Y-61837487D01*
X82808231Y-61819214D01*
X82677440Y-61799500D01*
X82677435Y-61799500D01*
X82422565Y-61799500D01*
X82422559Y-61799500D01*
X82265609Y-61823157D01*
X82170542Y-61837487D01*
X82170538Y-61837488D01*
X82170539Y-61837488D01*
X82170533Y-61837489D01*
X81926992Y-61912612D01*
X81697373Y-62023190D01*
X81697372Y-62023191D01*
X81486782Y-62166768D01*
X81299952Y-62340121D01*
X81299950Y-62340123D01*
X81141041Y-62539388D01*
X81013608Y-62760109D01*
X80920492Y-62997362D01*
X80920490Y-62997369D01*
X80863777Y-63245845D01*
X80844732Y-63499995D01*
X80844732Y-63500004D01*
X76200500Y-63500004D01*
X76200500Y-58420004D01*
X80844732Y-58420004D01*
X80863777Y-58674154D01*
X80871417Y-58707628D01*
X80920492Y-58922637D01*
X81013607Y-59159888D01*
X81141041Y-59380612D01*
X81299950Y-59579877D01*
X81486783Y-59753232D01*
X81697366Y-59896805D01*
X81697371Y-59896807D01*
X81697372Y-59896808D01*
X81697373Y-59896809D01*
X81819328Y-59955538D01*
X81926992Y-60007387D01*
X81926993Y-60007387D01*
X81926996Y-60007389D01*
X82170542Y-60082513D01*
X82422565Y-60120500D01*
X82677435Y-60120500D01*
X82929458Y-60082513D01*
X83173004Y-60007389D01*
X83402634Y-59896805D01*
X83613217Y-59753232D01*
X83800050Y-59579877D01*
X83958959Y-59380612D01*
X84086393Y-59159888D01*
X84179508Y-58922637D01*
X84236222Y-58674157D01*
X84255268Y-58420000D01*
X84236222Y-58165843D01*
X84179508Y-57917363D01*
X84086393Y-57680112D01*
X83958959Y-57459388D01*
X83800050Y-57260123D01*
X83613217Y-57086768D01*
X83402634Y-56943195D01*
X83402630Y-56943193D01*
X83402627Y-56943191D01*
X83402626Y-56943190D01*
X83173006Y-56832612D01*
X83173008Y-56832612D01*
X82929466Y-56757489D01*
X82929462Y-56757488D01*
X82929458Y-56757487D01*
X82808231Y-56739214D01*
X82677440Y-56719500D01*
X82677435Y-56719500D01*
X82422565Y-56719500D01*
X82422559Y-56719500D01*
X82265609Y-56743157D01*
X82170542Y-56757487D01*
X82170538Y-56757488D01*
X82170539Y-56757488D01*
X82170533Y-56757489D01*
X81926992Y-56832612D01*
X81697373Y-56943190D01*
X81697372Y-56943191D01*
X81486782Y-57086768D01*
X81299952Y-57260121D01*
X81299950Y-57260123D01*
X81141041Y-57459388D01*
X81013608Y-57680109D01*
X80920492Y-57917362D01*
X80920490Y-57917369D01*
X80863777Y-58165845D01*
X80844732Y-58419995D01*
X80844732Y-58420004D01*
X76200500Y-58420004D01*
X76200500Y-50801150D01*
X76200521Y-50800000D01*
X119594417Y-50800000D01*
X119596632Y-50822497D01*
X119614699Y-51005932D01*
X119614700Y-51005934D01*
X119674768Y-51203954D01*
X119772315Y-51386450D01*
X119772317Y-51386452D01*
X119903589Y-51546410D01*
X120000209Y-51625702D01*
X120063550Y-51677685D01*
X120246046Y-51775232D01*
X120444066Y-51835300D01*
X120444065Y-51835300D01*
X120464347Y-51837297D01*
X120650000Y-51855583D01*
X120855934Y-51835300D01*
X121053954Y-51775232D01*
X121236450Y-51677685D01*
X121396410Y-51546410D01*
X121527685Y-51386450D01*
X121625232Y-51203954D01*
X121685300Y-51005934D01*
X121705583Y-50800000D01*
X122134417Y-50800000D01*
X122136632Y-50822497D01*
X122154699Y-51005932D01*
X122154700Y-51005934D01*
X122214768Y-51203954D01*
X122312315Y-51386450D01*
X122312317Y-51386452D01*
X122443589Y-51546410D01*
X122540209Y-51625702D01*
X122603550Y-51677685D01*
X122786046Y-51775232D01*
X122984066Y-51835300D01*
X122984065Y-51835300D01*
X123002529Y-51837118D01*
X123190000Y-51855583D01*
X123395934Y-51835300D01*
X123593954Y-51775232D01*
X123776450Y-51677685D01*
X123936410Y-51546410D01*
X124067685Y-51386450D01*
X124165232Y-51203954D01*
X124225300Y-51005934D01*
X124245583Y-50800000D01*
X124674417Y-50800000D01*
X124694699Y-51005932D01*
X124694700Y-51005934D01*
X124754768Y-51203954D01*
X124852315Y-51386450D01*
X124852317Y-51386452D01*
X124983589Y-51546410D01*
X125080209Y-51625702D01*
X125143550Y-51677685D01*
X125326046Y-51775232D01*
X125524066Y-51835300D01*
X125524065Y-51835300D01*
X125544347Y-51837297D01*
X125730000Y-51855583D01*
X125935934Y-51835300D01*
X126133954Y-51775232D01*
X126316450Y-51677685D01*
X126476410Y-51546410D01*
X126607685Y-51386450D01*
X126705232Y-51203954D01*
X126765300Y-51005934D01*
X126785583Y-50800000D01*
X127214417Y-50800000D01*
X127216632Y-50822497D01*
X127234699Y-51005932D01*
X127234700Y-51005934D01*
X127294768Y-51203954D01*
X127392315Y-51386450D01*
X127392317Y-51386452D01*
X127523589Y-51546410D01*
X127620209Y-51625702D01*
X127683550Y-51677685D01*
X127866046Y-51775232D01*
X128064066Y-51835300D01*
X128064065Y-51835300D01*
X128082529Y-51837118D01*
X128270000Y-51855583D01*
X128475934Y-51835300D01*
X128673954Y-51775232D01*
X128856450Y-51677685D01*
X129016410Y-51546410D01*
X129147685Y-51386450D01*
X129245232Y-51203954D01*
X129305300Y-51005934D01*
X129325583Y-50800000D01*
X129305300Y-50594066D01*
X129245232Y-50396046D01*
X129147685Y-50213550D01*
X129045037Y-50088472D01*
X129016410Y-50053589D01*
X128856452Y-49922317D01*
X128856453Y-49922317D01*
X128856450Y-49922315D01*
X128673954Y-49824768D01*
X128475934Y-49764700D01*
X128475932Y-49764699D01*
X128475934Y-49764699D01*
X128288463Y-49746235D01*
X128270000Y-49744417D01*
X128269999Y-49744417D01*
X128064067Y-49764699D01*
X127866043Y-49824769D01*
X127755898Y-49883643D01*
X127683550Y-49922315D01*
X127683548Y-49922316D01*
X127683547Y-49922317D01*
X127523589Y-50053589D01*
X127392317Y-50213547D01*
X127294769Y-50396043D01*
X127234699Y-50594067D01*
X127214532Y-50798832D01*
X127214417Y-50800000D01*
X126785583Y-50800000D01*
X126765300Y-50594066D01*
X126705232Y-50396046D01*
X126607685Y-50213550D01*
X126505037Y-50088472D01*
X126476410Y-50053589D01*
X126316452Y-49922317D01*
X126316453Y-49922317D01*
X126316450Y-49922315D01*
X126133954Y-49824768D01*
X125935934Y-49764700D01*
X125935932Y-49764699D01*
X125935934Y-49764699D01*
X125730000Y-49744417D01*
X125524067Y-49764699D01*
X125326043Y-49824769D01*
X125215898Y-49883643D01*
X125143550Y-49922315D01*
X125143548Y-49922316D01*
X125143547Y-49922317D01*
X124983589Y-50053589D01*
X124852317Y-50213547D01*
X124754769Y-50396043D01*
X124694699Y-50594067D01*
X124674417Y-50800000D01*
X124245583Y-50800000D01*
X124225300Y-50594066D01*
X124165232Y-50396046D01*
X124067685Y-50213550D01*
X123965037Y-50088472D01*
X123936410Y-50053589D01*
X123776452Y-49922317D01*
X123776453Y-49922317D01*
X123776450Y-49922315D01*
X123593954Y-49824768D01*
X123395934Y-49764700D01*
X123395932Y-49764699D01*
X123395934Y-49764699D01*
X123190000Y-49744417D01*
X122984067Y-49764699D01*
X122786043Y-49824769D01*
X122675898Y-49883643D01*
X122603550Y-49922315D01*
X122603548Y-49922316D01*
X122603547Y-49922317D01*
X122443589Y-50053589D01*
X122312317Y-50213547D01*
X122214769Y-50396043D01*
X122154699Y-50594067D01*
X122134532Y-50798832D01*
X122134417Y-50800000D01*
X121705583Y-50800000D01*
X121685300Y-50594066D01*
X121625232Y-50396046D01*
X121527685Y-50213550D01*
X121425037Y-50088472D01*
X121396410Y-50053589D01*
X121236452Y-49922317D01*
X121236453Y-49922317D01*
X121236450Y-49922315D01*
X121053954Y-49824768D01*
X120855934Y-49764700D01*
X120855932Y-49764699D01*
X120855934Y-49764699D01*
X120650000Y-49744417D01*
X120444067Y-49764699D01*
X120246043Y-49824769D01*
X120135898Y-49883643D01*
X120063550Y-49922315D01*
X120063548Y-49922316D01*
X120063547Y-49922317D01*
X119903589Y-50053589D01*
X119772317Y-50213547D01*
X119674769Y-50396043D01*
X119614699Y-50594067D01*
X119594532Y-50798832D01*
X119594417Y-50800000D01*
X76200521Y-50800000D01*
X76200542Y-50798867D01*
X76210498Y-50532776D01*
X76218764Y-50322412D01*
X76219102Y-50317972D01*
X76247725Y-50063937D01*
X76274361Y-49838891D01*
X76275004Y-49834705D01*
X76321966Y-49586503D01*
X76366822Y-49360999D01*
X76367718Y-49357159D01*
X76432778Y-49114353D01*
X76495575Y-48891692D01*
X76496707Y-48888106D01*
X76579524Y-48651429D01*
X76659882Y-48433612D01*
X76661190Y-48430361D01*
X76761104Y-48201355D01*
X76761547Y-48200369D01*
X76858766Y-47989485D01*
X76860191Y-47986601D01*
X76976829Y-47765913D01*
X76977432Y-47764804D01*
X77091042Y-47561937D01*
X77092565Y-47559372D01*
X77225260Y-47348189D01*
X77226109Y-47346878D01*
X77355345Y-47153463D01*
X77356950Y-47151179D01*
X77504984Y-46950600D01*
X77506063Y-46949186D01*
X77650160Y-46766399D01*
X77651728Y-46764496D01*
X77814317Y-46575564D01*
X77815670Y-46574047D01*
X77973696Y-46403096D01*
X77975273Y-46401456D01*
X78151456Y-46225273D01*
X78153096Y-46223696D01*
X78324047Y-46065670D01*
X78325564Y-46064317D01*
X78514496Y-45901728D01*
X78516399Y-45900160D01*
X78699186Y-45756063D01*
X78700600Y-45754984D01*
X78901179Y-45606950D01*
X78903463Y-45605345D01*
X79096878Y-45476109D01*
X79098189Y-45475260D01*
X79309372Y-45342565D01*
X79311937Y-45341042D01*
X79514804Y-45227432D01*
X79515913Y-45226829D01*
X79736601Y-45110191D01*
X79739485Y-45108766D01*
X79950369Y-45011547D01*
X79951355Y-45011104D01*
X80180361Y-44911190D01*
X80183612Y-44909882D01*
X80401429Y-44829524D01*
X80638106Y-44746707D01*
X80641692Y-44745575D01*
X80864378Y-44682771D01*
X81107159Y-44617718D01*
X81110999Y-44616822D01*
X81336503Y-44571966D01*
X81584705Y-44525004D01*
X81588891Y-44524361D01*
X81813937Y-44497725D01*
X82067972Y-44469102D01*
X82072412Y-44468764D01*
X82283056Y-44460488D01*
X82548867Y-44450542D01*
X82551152Y-44450500D01*
X165098848Y-44450500D01*
X165101132Y-44450542D01*
G37*
%TD.AperFunction*%
%TD*%
M02*
