M48
; DRILL file {KiCad 7.0.5} date Sat Sep 16 15:25:39 2023
; FORMAT={-:-/ absolute / inch / decimal}
; #@! TF.CreationDate,2023-09-16T15:25:39-07:00
; #@! TF.GenerationSoftware,Kicad,Pcbnew,7.0.5
; #@! TF.FileFunction,Plated,1,2,PTH
FMAT,2
INCH
; #@! TA.AperFunction,Plated,PTH,ViaDrill
T1C0.0118
; #@! TA.AperFunction,Plated,PTH,ViaDrill
T2C0.0157
; #@! TA.AperFunction,Plated,PTH,ComponentDrill
T3C0.0394
; #@! TA.AperFunction,Plated,PTH,ComponentDrill
T4C0.0598
; #@! TA.AperFunction,Plated,PTH,ComponentDrill
T5C0.1260
%
G90
G05
T1
X3.6811Y-3.3071
X3.7894Y-2.5295
X3.7894Y-3.6024
X3.7992Y-2.2539
X3.8091Y-3.7992
X3.8091Y-4.0551
X3.8189Y-3.1102
X3.8189Y-4.3209
X3.8287Y-2.7362
X3.9173Y-3.3661
X3.9173Y-3.622
X3.9173Y-3.8189
X3.9173Y-4.1142
X3.9272Y-2.8248
X3.9272Y-3.1004
X3.937Y-2.313
X3.937Y-2.5787
X3.9616Y-4.4439
X4.0354Y-3.6024
X4.0551Y-3.6614
X4.0846Y-2.4606
X4.1437Y-2.7185
X4.1437Y-3.9392
X4.1437Y-4.014
X4.1437Y-4.124
X4.1535Y-2.7933
X4.1732Y-3.2677
X4.1929Y-3.1299
X4.2028Y-2.1358
X4.2618Y-3.878
X4.311Y-3.5433
X4.3307Y-3.622
X4.3406Y-2.5098
X4.3504Y-3.7598
X4.3898Y-2.6083
X4.4094Y-3.6417
X4.4193Y-2.7854
X4.4488Y-4.0945
X4.4587Y-2.6476
X4.4685Y-3.5335
X4.4685Y-3.8386
X4.4931Y-4.2372
X4.498Y-2.7953
X4.5079Y-2.9134
X4.5079Y-3.4843
X4.5276Y-2.1358
X4.5472Y-4.2913
X4.5866Y-3.0413
X4.5866Y-3.9961
X4.5866Y-4.1142
X4.6654Y-2.2638
X4.685Y-2.9134
X4.7343Y-3.0413
X4.7441Y-2.4409
X4.7638Y-2.6969
X4.8228Y-3.3071
X4.8228Y-3.3858
X4.8228Y-3.6614
X4.8327Y-2.2933
X4.8524Y-2.1654
X4.872Y-3.1102
X4.8768Y-3.3807
X4.8917Y-3.189
X4.9016Y-3.0118
X4.9016Y-4.2126
X4.9213Y-3.9961
X4.9213Y-4.1339
X4.9409Y-4.3307
X4.9606Y-3.0315
X4.9902Y-2.2933
X5.0Y-2.9331
X5.0394Y-3.3661
X5.0591Y-2.5295
X5.0787Y-2.1654
X5.0787Y-3.5433
X5.0886Y-2.9921
X5.0984Y-3.1594
X5.0984Y-3.4055
X5.1575Y-2.874
X5.1575Y-3.8287
X5.1673Y-3.1791
X5.1934Y-4.1535
X5.1949Y-4.0453
X5.2067Y-2.7559
X5.2411Y-3.1742
X5.2461Y-2.2736
X5.2461Y-2.6378
X5.2559Y-3.248
X5.2657Y-1.8504
X5.2657Y-3.1004
X5.2953Y-2.1654
X5.4134Y-2.9921
X5.4331Y-3.9665
X5.4439Y-2.7943
X5.4528Y-2.6693
X5.4724Y-2.3622
X5.4724Y-2.5197
X5.4823Y-4.1831
X5.4921Y-3.4055
X5.4921Y-4.3307
X5.5118Y-3.3366
X5.5807Y-2.7441
X5.6004Y-3.935
X5.6496Y-3.2874
X5.6496Y-3.7795
X5.6693Y-3.4055
X5.6791Y-3.0118
X5.689Y-4.1437
X5.6988Y-3.5335
X5.7283Y-2.8937
X5.748Y-2.7362
X5.748Y-4.2717
X5.7579Y-3.4843
X5.7677Y-2.6181
X5.8169Y-2.2933
X5.8169Y-2.5492
X5.8169Y-2.8248
X5.8169Y-3.1004
X5.8169Y-3.8386
X5.8169Y-4.0551
X5.8169Y-4.3012
X5.8858Y-3.6417
X5.9449Y-2.6476
X5.9449Y-2.9134
X5.9449Y-3.3563
X5.9449Y-3.5335
X5.9449Y-4.1437
X5.9449Y-4.3602
X5.9547Y-2.3819
X5.9547Y-3.1594
X5.9547Y-3.9173
T2
X4.6654Y-2.5305
X4.9606Y-2.4705
T3
X4.65Y-2.0
X4.75Y-2.0
X4.85Y-2.0
X4.95Y-2.0
X5.05Y-2.0
T4
X3.25Y-2.3
X3.25Y-2.5
X3.25Y-2.7
X3.25Y-2.9
X3.25Y-3.1
X3.25Y-3.6
X3.25Y-3.8
X3.25Y-4.0
X3.25Y-4.2
X3.25Y-4.4
X4.6Y-4.75
X4.8Y-4.75
X5.0Y-4.75
X5.2Y-4.75
X6.5Y-2.35
X6.5Y-2.55
X6.5Y-2.75
X6.5Y-2.95
X6.5Y-3.15
X6.5Y-3.6
X6.5Y-3.8
X6.5Y-4.0
X6.5Y-4.2
X6.5Y-4.4
T5
X3.25Y-2.0
X3.25Y-4.75
X6.5Y-2.0
X6.5Y-4.75
T0
M30
