%TF.GenerationSoftware,KiCad,Pcbnew,7.0.5*%
%TF.CreationDate,2023-09-16T15:25:37-07:00*%
%TF.ProjectId,ValveServoI2C,56616c76-6553-4657-9276-6f4932432e6b,rev?*%
%TF.SameCoordinates,Original*%
%TF.FileFunction,Soldermask,Top*%
%TF.FilePolarity,Negative*%
%FSLAX46Y46*%
G04 Gerber Fmt 4.6, Leading zero omitted, Abs format (unit mm)*
G04 Created by KiCad (PCBNEW 7.0.5) date 2023-09-16 15:25:37*
%MOMM*%
%LPD*%
G01*
G04 APERTURE LIST*
G04 Aperture macros list*
%AMRoundRect*
0 Rectangle with rounded corners*
0 $1 Rounding radius*
0 $2 $3 $4 $5 $6 $7 $8 $9 X,Y pos of 4 corners*
0 Add a 4 corners polygon primitive as box body*
4,1,4,$2,$3,$4,$5,$6,$7,$8,$9,$2,$3,0*
0 Add four circle primitives for the rounded corners*
1,1,$1+$1,$2,$3*
1,1,$1+$1,$4,$5*
1,1,$1+$1,$6,$7*
1,1,$1+$1,$8,$9*
0 Add four rect primitives between the rounded corners*
20,1,$1+$1,$2,$3,$4,$5,0*
20,1,$1+$1,$4,$5,$6,$7,0*
20,1,$1+$1,$6,$7,$8,$9,0*
20,1,$1+$1,$8,$9,$2,$3,0*%
G04 Aperture macros list end*
%ADD10RoundRect,0.250000X-0.262500X-0.450000X0.262500X-0.450000X0.262500X0.450000X-0.262500X0.450000X0*%
%ADD11RoundRect,0.250000X0.450000X-0.262500X0.450000X0.262500X-0.450000X0.262500X-0.450000X-0.262500X0*%
%ADD12RoundRect,0.250000X0.475000X-0.250000X0.475000X0.250000X-0.475000X0.250000X-0.475000X-0.250000X0*%
%ADD13C,5.600000*%
%ADD14RoundRect,0.150000X0.150000X-0.512500X0.150000X0.512500X-0.150000X0.512500X-0.150000X-0.512500X0*%
%ADD15RoundRect,0.150000X-0.150000X0.512500X-0.150000X-0.512500X0.150000X-0.512500X0.150000X0.512500X0*%
%ADD16RoundRect,0.250000X-0.450000X0.262500X-0.450000X-0.262500X0.450000X-0.262500X0.450000X0.262500X0*%
%ADD17RoundRect,0.150000X-0.150000X0.587500X-0.150000X-0.587500X0.150000X-0.587500X0.150000X0.587500X0*%
%ADD18RoundRect,0.250000X-0.475000X0.250000X-0.475000X-0.250000X0.475000X-0.250000X0.475000X0.250000X0*%
%ADD19RoundRect,0.100000X-0.637500X-0.100000X0.637500X-0.100000X0.637500X0.100000X-0.637500X0.100000X0*%
%ADD20RoundRect,0.243750X0.456250X-0.243750X0.456250X0.243750X-0.456250X0.243750X-0.456250X-0.243750X0*%
%ADD21RoundRect,0.150000X0.150000X-0.587500X0.150000X0.587500X-0.150000X0.587500X-0.150000X-0.587500X0*%
%ADD22RoundRect,0.250000X0.250000X0.475000X-0.250000X0.475000X-0.250000X-0.475000X0.250000X-0.475000X0*%
%ADD23RoundRect,0.250000X0.262500X0.450000X-0.262500X0.450000X-0.262500X-0.450000X0.262500X-0.450000X0*%
%ADD24RoundRect,0.150000X0.587500X0.150000X-0.587500X0.150000X-0.587500X-0.150000X0.587500X-0.150000X0*%
%ADD25RoundRect,0.150000X0.512500X0.150000X-0.512500X0.150000X-0.512500X-0.150000X0.512500X-0.150000X0*%
%ADD26RoundRect,0.225000X-0.375000X0.225000X-0.375000X-0.225000X0.375000X-0.225000X0.375000X0.225000X0*%
%ADD27RoundRect,0.243750X-0.456250X0.243750X-0.456250X-0.243750X0.456250X-0.243750X0.456250X0.243750X0*%
%ADD28R,3.000000X3.000000*%
%ADD29C,3.000000*%
%ADD30RoundRect,0.243750X0.243750X0.456250X-0.243750X0.456250X-0.243750X-0.456250X0.243750X-0.456250X0*%
%ADD31R,0.802000X1.505000*%
%ADD32R,3.502000X2.613000*%
%ADD33RoundRect,0.250000X0.700000X-1.825000X0.700000X1.825000X-0.700000X1.825000X-0.700000X-1.825000X0*%
%ADD34R,1.700000X1.700000*%
%ADD35O,1.700000X1.700000*%
G04 APERTURE END LIST*
D10*
%TO.C,R41*%
X124087500Y-61000000D03*
X125912500Y-61000000D03*
%TD*%
D11*
%TO.C,R18*%
X157000000Y-60127500D03*
X157000000Y-58302500D03*
%TD*%
%TO.C,R20*%
X153500000Y-60162500D03*
X153500000Y-58337500D03*
%TD*%
D12*
%TO.C,C7*%
X143050000Y-69700000D03*
X143050000Y-67800000D03*
%TD*%
D11*
%TO.C,R27*%
X153000000Y-103662500D03*
X153000000Y-101837500D03*
%TD*%
D13*
%TO.C,J2*%
X82550000Y-120650000D03*
%TD*%
D12*
%TO.C,C9*%
X140000000Y-99950000D03*
X140000000Y-98050000D03*
%TD*%
D14*
%TO.C,D34*%
X97625000Y-90725000D03*
X99525000Y-90725000D03*
X98575000Y-88450000D03*
%TD*%
D15*
%TO.C,D12*%
X149700000Y-89475000D03*
X147800000Y-89475000D03*
X148750000Y-91750000D03*
%TD*%
D16*
%TO.C,R34*%
X89500000Y-113337500D03*
X89500000Y-115162500D03*
%TD*%
D17*
%TO.C,Q1*%
X126000000Y-64750000D03*
X124100000Y-64750000D03*
X125050000Y-66625000D03*
%TD*%
D12*
%TO.C,C8*%
X136750000Y-99900000D03*
X136750000Y-98000000D03*
%TD*%
D15*
%TO.C,D8*%
X149750000Y-66025000D03*
X147850000Y-66025000D03*
X148800000Y-68300000D03*
%TD*%
D12*
%TO.C,C10*%
X143532500Y-99950000D03*
X143532500Y-98050000D03*
%TD*%
D18*
%TO.C,C11*%
X110400000Y-99905000D03*
X110400000Y-101805000D03*
%TD*%
D19*
%TO.C,U1*%
X120035000Y-82650000D03*
X120035000Y-83300000D03*
X120035000Y-83950000D03*
X120035000Y-84600000D03*
X120035000Y-85250000D03*
X120035000Y-85900000D03*
X120035000Y-86550000D03*
X120035000Y-87200000D03*
X120035000Y-87850000D03*
X120035000Y-88500000D03*
X120035000Y-89150000D03*
X120035000Y-89800000D03*
X125760000Y-89800000D03*
X125760000Y-89150000D03*
X125760000Y-88500000D03*
X125760000Y-87850000D03*
X125760000Y-87200000D03*
X125760000Y-86550000D03*
X125760000Y-85900000D03*
X125760000Y-85250000D03*
X125760000Y-84600000D03*
X125760000Y-83950000D03*
X125760000Y-83300000D03*
X125760000Y-82650000D03*
%TD*%
D20*
%TO.C,D27*%
X93905000Y-62937500D03*
X93905000Y-61062500D03*
%TD*%
D11*
%TO.C,R29*%
X153000000Y-93800000D03*
X153000000Y-91975000D03*
%TD*%
D16*
%TO.C,R9*%
X90095000Y-70587500D03*
X90095000Y-72412500D03*
%TD*%
D21*
%TO.C,Q2*%
X119600000Y-65375000D03*
X121500000Y-65375000D03*
X120550000Y-63500000D03*
%TD*%
D22*
%TO.C,C19*%
X122950000Y-73000000D03*
X121050000Y-73000000D03*
%TD*%
D11*
%TO.C,R45*%
X124000000Y-112912500D03*
X124000000Y-111087500D03*
%TD*%
D23*
%TO.C,R6*%
X115800000Y-84000000D03*
X113975000Y-84000000D03*
%TD*%
D24*
%TO.C,Q4*%
X128875000Y-112950000D03*
X128875000Y-111050000D03*
X127000000Y-112000000D03*
%TD*%
D16*
%TO.C,R12*%
X94095000Y-70587500D03*
X94095000Y-72412500D03*
%TD*%
D24*
%TO.C,Q3*%
X116200000Y-112900000D03*
X116200000Y-111000000D03*
X114325000Y-111950000D03*
%TD*%
D13*
%TO.C,J1*%
X82550000Y-50800000D03*
%TD*%
D15*
%TO.C,U6*%
X126950000Y-71000000D03*
X126000000Y-71000000D03*
X125050000Y-71000000D03*
X125050000Y-73275000D03*
X126950000Y-73275000D03*
%TD*%
D16*
%TO.C,R38*%
X93500000Y-113587500D03*
X93500000Y-115412500D03*
%TD*%
D25*
%TO.C,D18*%
X122000000Y-57000000D03*
X122000000Y-55100000D03*
X119725000Y-56050000D03*
%TD*%
D12*
%TO.C,C5*%
X137000000Y-69700000D03*
X137000000Y-67800000D03*
%TD*%
D11*
%TO.C,R53*%
X93905000Y-57912500D03*
X93905000Y-56087500D03*
%TD*%
%TO.C,R57*%
X131000000Y-71912500D03*
X131000000Y-70087500D03*
%TD*%
D22*
%TO.C,C18*%
X131950000Y-104000000D03*
X130050000Y-104000000D03*
%TD*%
D23*
%TO.C,R40*%
X118662500Y-68250000D03*
X116837500Y-68250000D03*
%TD*%
%TO.C,R43*%
X130412500Y-61000000D03*
X128587500Y-61000000D03*
%TD*%
D16*
%TO.C,R33*%
X89500000Y-103812500D03*
X89500000Y-105637500D03*
%TD*%
D18*
%TO.C,C12*%
X107000000Y-100000000D03*
X107000000Y-101900000D03*
%TD*%
D11*
%TO.C,R56*%
X93625000Y-90637500D03*
X93625000Y-88812500D03*
%TD*%
%TO.C,R25*%
X156750000Y-98912500D03*
X156750000Y-97087500D03*
%TD*%
D16*
%TO.C,R8*%
X110905000Y-55087500D03*
X110905000Y-56912500D03*
%TD*%
D26*
%TO.C,D20*%
X132000000Y-110350000D03*
X132000000Y-113650000D03*
%TD*%
D27*
%TO.C,D2*%
X90000000Y-75475000D03*
X90000000Y-77350000D03*
%TD*%
D11*
%TO.C,R46*%
X136000000Y-113912500D03*
X136000000Y-112087500D03*
%TD*%
D13*
%TO.C,J4*%
X165100000Y-50800000D03*
%TD*%
D16*
%TO.C,R14*%
X94000000Y-79925000D03*
X94000000Y-81750000D03*
%TD*%
D22*
%TO.C,C14*%
X117000000Y-56000000D03*
X115100000Y-56000000D03*
%TD*%
D16*
%TO.C,R49*%
X89905000Y-61087500D03*
X89905000Y-62912500D03*
%TD*%
D15*
%TO.C,D33*%
X149700000Y-110725000D03*
X147800000Y-110725000D03*
X148750000Y-113000000D03*
%TD*%
D11*
%TO.C,R17*%
X156750000Y-69162500D03*
X156750000Y-67337500D03*
%TD*%
D18*
%TO.C,C3*%
X103905000Y-69000000D03*
X103905000Y-70900000D03*
%TD*%
D27*
%TO.C,D28*%
X153250000Y-76562500D03*
X153250000Y-78437500D03*
%TD*%
%TO.C,D14*%
X89500000Y-108787500D03*
X89500000Y-110662500D03*
%TD*%
D10*
%TO.C,R2*%
X130200000Y-84800000D03*
X132025000Y-84800000D03*
%TD*%
%TO.C,R15*%
X139527500Y-82510000D03*
X141352500Y-82510000D03*
%TD*%
D12*
%TO.C,C6*%
X140040000Y-69700000D03*
X140040000Y-67800000D03*
%TD*%
D14*
%TO.C,D15*%
X97675000Y-103000000D03*
X99575000Y-103000000D03*
X98625000Y-100725000D03*
%TD*%
D28*
%TO.C,J7*%
X165100000Y-91440000D03*
D29*
X165100000Y-96520000D03*
X165100000Y-101600000D03*
X165100000Y-106680000D03*
X165100000Y-111760000D03*
%TD*%
D30*
%TO.C,D21*%
X111000000Y-112000000D03*
X109125000Y-112000000D03*
%TD*%
D27*
%TO.C,D23*%
X89905000Y-56125000D03*
X89905000Y-58000000D03*
%TD*%
D16*
%TO.C,R11*%
X94095000Y-65987500D03*
X94095000Y-67812500D03*
%TD*%
D10*
%TO.C,R48*%
X130087500Y-107000000D03*
X131912500Y-107000000D03*
%TD*%
D11*
%TO.C,R26*%
X157000000Y-89000000D03*
X157000000Y-87175000D03*
%TD*%
D14*
%TO.C,D16*%
X97675000Y-109862500D03*
X99575000Y-109862500D03*
X98625000Y-107587500D03*
%TD*%
D11*
%TO.C,R30*%
X153000000Y-88912500D03*
X153000000Y-87087500D03*
%TD*%
D28*
%TO.C,J10*%
X132080000Y-120650000D03*
D29*
X127000000Y-120650000D03*
X121920000Y-120650000D03*
X116840000Y-120650000D03*
%TD*%
D31*
%TO.C,U3*%
X142440000Y-72915000D03*
X141170000Y-72915000D03*
X139900000Y-72915000D03*
X138630000Y-72915000D03*
X138630000Y-77910000D03*
X139900000Y-77910000D03*
X141170000Y-77910000D03*
X142440000Y-77910000D03*
D32*
X140535000Y-75412500D03*
%TD*%
D28*
%TO.C,J5*%
X82550000Y-78740000D03*
D29*
X82550000Y-73660000D03*
X82550000Y-68580000D03*
X82550000Y-63500000D03*
X82550000Y-58420000D03*
%TD*%
D11*
%TO.C,R7*%
X107905000Y-56912500D03*
X107905000Y-55087500D03*
%TD*%
D10*
%TO.C,R24*%
X141087500Y-114602500D03*
X142912500Y-114602500D03*
%TD*%
D13*
%TO.C,J3*%
X165100000Y-120650000D03*
%TD*%
D14*
%TO.C,D4*%
X97955000Y-77137500D03*
X99855000Y-77137500D03*
X98905000Y-74862500D03*
%TD*%
D28*
%TO.C,J8*%
X82550000Y-111760000D03*
D29*
X82550000Y-106680000D03*
X82550000Y-101600000D03*
X82550000Y-96520000D03*
X82550000Y-91440000D03*
%TD*%
D16*
%TO.C,R52*%
X89625000Y-93812500D03*
X89625000Y-95637500D03*
%TD*%
D18*
%TO.C,C13*%
X103600000Y-100055000D03*
X103600000Y-101955000D03*
%TD*%
D16*
%TO.C,R37*%
X93500000Y-108837500D03*
X93500000Y-110662500D03*
%TD*%
D11*
%TO.C,R58*%
X131000000Y-75912500D03*
X131000000Y-74087500D03*
%TD*%
D23*
%TO.C,R44*%
X117000000Y-59000000D03*
X115175000Y-59000000D03*
%TD*%
D14*
%TO.C,D31*%
X97955000Y-57137500D03*
X99855000Y-57137500D03*
X98905000Y-54862500D03*
%TD*%
D11*
%TO.C,R21*%
X153500000Y-73412500D03*
X153500000Y-71587500D03*
%TD*%
D10*
%TO.C,R16*%
X135087500Y-82500000D03*
X136912500Y-82500000D03*
%TD*%
D20*
%TO.C,D6*%
X157000000Y-64552500D03*
X157000000Y-62677500D03*
%TD*%
D31*
%TO.C,U2*%
X105000000Y-65497500D03*
X106270000Y-65497500D03*
X107540000Y-65497500D03*
X108810000Y-65497500D03*
X108810000Y-60502500D03*
X107540000Y-60502500D03*
X106270000Y-60502500D03*
X105000000Y-60502500D03*
D32*
X106905000Y-63000000D03*
%TD*%
D25*
%TO.C,D17*%
X127500000Y-56950000D03*
X127500000Y-55050000D03*
X125225000Y-56000000D03*
%TD*%
D18*
%TO.C,C4*%
X106905000Y-69050000D03*
X106905000Y-70950000D03*
%TD*%
D31*
%TO.C,U4*%
X144000000Y-103005000D03*
X142730000Y-103005000D03*
X141460000Y-103005000D03*
X140190000Y-103005000D03*
X140190000Y-108000000D03*
X141460000Y-108000000D03*
X142730000Y-108000000D03*
X144000000Y-108000000D03*
D32*
X142095000Y-105502500D03*
%TD*%
D11*
%TO.C,R32*%
X111000000Y-89912500D03*
X111000000Y-88087500D03*
%TD*%
D20*
%TO.C,D10*%
X157000000Y-93875000D03*
X157000000Y-92000000D03*
%TD*%
%TO.C,D5*%
X156750000Y-73500000D03*
X156750000Y-71625000D03*
%TD*%
D16*
%TO.C,R36*%
X93500000Y-103837500D03*
X93500000Y-105662500D03*
%TD*%
%TO.C,R35*%
X93500000Y-98837500D03*
X93500000Y-100662500D03*
%TD*%
D10*
%TO.C,R5*%
X113975000Y-80800000D03*
X115800000Y-80800000D03*
%TD*%
D11*
%TO.C,R50*%
X156750000Y-78350000D03*
X156750000Y-76525000D03*
%TD*%
D20*
%TO.C,D9*%
X156750000Y-103687500D03*
X156750000Y-101812500D03*
%TD*%
D14*
%TO.C,D38*%
X97625000Y-95725000D03*
X99525000Y-95725000D03*
X98575000Y-93450000D03*
%TD*%
D11*
%TO.C,R51*%
X157000000Y-108750000D03*
X157000000Y-106925000D03*
%TD*%
D16*
%TO.C,R10*%
X90000000Y-79925000D03*
X90000000Y-81750000D03*
%TD*%
D33*
%TO.C,C15*%
X119800000Y-106000000D03*
X119800000Y-99050000D03*
%TD*%
D14*
%TO.C,D35*%
X98005000Y-64000000D03*
X99905000Y-64000000D03*
X98955000Y-61725000D03*
%TD*%
D11*
%TO.C,R22*%
X153500000Y-69162500D03*
X153500000Y-67337500D03*
%TD*%
D25*
%TO.C,D39*%
X133137500Y-56950000D03*
X133137500Y-55050000D03*
X130862500Y-56000000D03*
%TD*%
D15*
%TO.C,D7*%
X149700000Y-59975000D03*
X147800000Y-59975000D03*
X148750000Y-62250000D03*
%TD*%
D27*
%TO.C,D26*%
X89625000Y-88787500D03*
X89625000Y-90662500D03*
%TD*%
D15*
%TO.C,D11*%
X149750000Y-98750000D03*
X147850000Y-98750000D03*
X148800000Y-101025000D03*
%TD*%
D27*
%TO.C,D22*%
X127000000Y-105062500D03*
X127000000Y-106937500D03*
%TD*%
D18*
%TO.C,C17*%
X112000000Y-107050000D03*
X112000000Y-108950000D03*
%TD*%
D16*
%TO.C,R55*%
X153000000Y-111925000D03*
X153000000Y-113750000D03*
%TD*%
D31*
%TO.C,U5*%
X104190000Y-95995000D03*
X105460000Y-95995000D03*
X106730000Y-95995000D03*
X108000000Y-95995000D03*
X108000000Y-91000000D03*
X106730000Y-91000000D03*
X105460000Y-91000000D03*
X104190000Y-91000000D03*
D32*
X106095000Y-93497500D03*
%TD*%
D16*
%TO.C,R54*%
X153250000Y-81087500D03*
X153250000Y-82912500D03*
%TD*%
D20*
%TO.C,D25*%
X157000000Y-113775000D03*
X157000000Y-111900000D03*
%TD*%
D28*
%TO.C,J6*%
X165100000Y-59690000D03*
D29*
X165100000Y-64770000D03*
X165100000Y-69850000D03*
X165100000Y-74930000D03*
X165100000Y-80010000D03*
%TD*%
D23*
%TO.C,R42*%
X121412500Y-60000000D03*
X119587500Y-60000000D03*
%TD*%
D26*
%TO.C,D19*%
X119400000Y-110350000D03*
X119400000Y-113650000D03*
%TD*%
D14*
%TO.C,D3*%
X97955000Y-70137500D03*
X99855000Y-70137500D03*
X98905000Y-67862500D03*
%TD*%
D27*
%TO.C,D29*%
X153000000Y-106900000D03*
X153000000Y-108775000D03*
%TD*%
D34*
%TO.C,J9*%
X118110000Y-50800000D03*
D35*
X120650000Y-50800000D03*
X123190000Y-50800000D03*
X125730000Y-50800000D03*
X128270000Y-50800000D03*
%TD*%
D23*
%TO.C,R1*%
X132025000Y-82550000D03*
X130200000Y-82550000D03*
%TD*%
D12*
%TO.C,C1*%
X125500000Y-80950000D03*
X125500000Y-79050000D03*
%TD*%
D11*
%TO.C,R19*%
X153500000Y-64415000D03*
X153500000Y-62590000D03*
%TD*%
D16*
%TO.C,R3*%
X118500000Y-77087500D03*
X118500000Y-78912500D03*
%TD*%
D15*
%TO.C,D36*%
X149700000Y-73300000D03*
X147800000Y-73300000D03*
X148750000Y-75575000D03*
%TD*%
D18*
%TO.C,C2*%
X109905000Y-69050000D03*
X109905000Y-70950000D03*
%TD*%
D27*
%TO.C,D13*%
X89500000Y-98812500D03*
X89500000Y-100687500D03*
%TD*%
D15*
%TO.C,D37*%
X149700000Y-104475000D03*
X147800000Y-104475000D03*
X148750000Y-106750000D03*
%TD*%
D20*
%TO.C,D24*%
X156750000Y-82875000D03*
X156750000Y-81000000D03*
%TD*%
%TO.C,D30*%
X93625000Y-95662500D03*
X93625000Y-93787500D03*
%TD*%
D11*
%TO.C,R39*%
X130000000Y-65912500D03*
X130000000Y-64087500D03*
%TD*%
%TO.C,R47*%
X108000000Y-108912500D03*
X108000000Y-107087500D03*
%TD*%
%TO.C,R28*%
X153000000Y-98912500D03*
X153000000Y-97087500D03*
%TD*%
D23*
%TO.C,R31*%
X107912500Y-87000000D03*
X106087500Y-87000000D03*
%TD*%
D11*
%TO.C,R4*%
X121250000Y-78912500D03*
X121250000Y-77087500D03*
%TD*%
D15*
%TO.C,D32*%
X149700000Y-80300000D03*
X147800000Y-80300000D03*
X148750000Y-82575000D03*
%TD*%
D22*
%TO.C,C16*%
X131950000Y-101000000D03*
X130050000Y-101000000D03*
%TD*%
D10*
%TO.C,R23*%
X141000000Y-111602500D03*
X142825000Y-111602500D03*
%TD*%
D27*
%TO.C,D1*%
X90095000Y-65962500D03*
X90095000Y-67837500D03*
%TD*%
D16*
%TO.C,R13*%
X94000000Y-75500000D03*
X94000000Y-77325000D03*
%TD*%
M02*
